<svg width="12" height="16" viewBox="0 0 12 16" fill="none" xmlns="http://www.w3.org/2000/svg">
<g clip-path="url(#clip0_27_1062)">
<path d="M5.92799 15.4948C5.74907 15.4478 5.58348 15.3625 5.44356 15.2453C5.30365 15.1281 5.19302 14.982 5.11993 14.8178C3.84215 12.5498 2.55122 10.285 1.27015 8.01694C0.658662 6.9712 0.428016 5.75853 0.614925 4.57198C0.801833 3.38542 1.39555 2.29318 2.30158 1.46911C2.85945 0.941466 3.53156 0.539107 4.26979 0.290838C5.00802 0.0425683 5.79412 -0.0454734 6.57181 0.0330166C7.8451 0.143572 9.03931 0.675434 9.95137 1.53815C10.8634 2.40087 11.437 3.54119 11.5746 4.76517C11.7227 5.84912 11.5087 6.95034 10.9636 7.90939C9.64966 10.2786 8.28647 12.6542 6.94628 15.0013C6.8739 15.1294 6.77361 15.241 6.65228 15.3284C6.53095 15.4157 6.39145 15.4768 6.24333 15.5074L5.92799 15.4948ZM8.3456 4.8569C8.34649 4.28077 8.11079 3.72765 7.68989 3.31819C7.269 2.90873 6.69706 2.67614 6.0988 2.67113C5.80131 2.66946 5.5064 2.72429 5.23094 2.83248C4.95548 2.94067 4.70486 3.10009 4.49344 3.30163C4.28202 3.50317 4.11393 3.74288 3.99879 4.00703C3.88365 4.27118 3.82373 4.55461 3.82243 4.84108C3.8224 5.41697 4.05838 5.9696 4.47909 6.37889C4.8998 6.78817 5.47124 7.02102 6.06924 7.02686C6.36672 7.02852 6.66163 6.9737 6.9371 6.86551C7.21256 6.75732 7.46317 6.59789 7.67459 6.39635C7.88602 6.19481 8.05411 5.95511 8.16924 5.69095C8.28438 5.4268 8.34431 5.14338 8.3456 4.8569Z" fill="white"/>
</g>
<defs>
<clipPath id="clip0_27_1062">
<rect width="11.0599" height="15.4839" fill="white" transform="translate(0.557617 0.0137329)"/>
</clipPath>
</defs>
</svg>
