<svg width="15" height="15" viewBox="0 0 15 15" fill="none" xmlns="http://www.w3.org/2000/svg">
<path d="M3.22944 0.980909C3.80446 0.833588 4.08485 1.21851 4.2987 1.76978C4.6171 2.59192 4.96402 3.40457 5.31094 4.21246C5.37703 4.33471 5.40594 4.47363 5.39412 4.6121C5.3823 4.75057 5.33026 4.88256 5.24441 4.99184C4.95927 5.37203 4.68364 5.76172 4.38424 6.12765C4.29458 6.22041 4.24062 6.34189 4.23192 6.47061C4.22323 6.59933 4.26035 6.72699 4.33672 6.83098C5.43571 8.7392 7.15216 10.216 9.20306 11.0177C9.32242 11.0805 9.46053 11.0978 9.59167 11.0663C9.72282 11.0349 9.83805 10.9568 9.91591 10.8467C10.2676 10.4047 10.6383 9.97698 10.9757 9.52552C11.0406 9.40138 11.1515 9.30757 11.2847 9.26406C11.4179 9.22056 11.5628 9.23081 11.6885 9.29266C12.7055 9.76789 13.713 10.2431 14.7157 10.7469C14.7743 10.7872 14.823 10.8402 14.8584 10.9018C14.8938 10.9635 14.9148 11.0324 14.9201 11.1033C14.9734 11.5982 14.8878 12.0983 14.673 12.5473C14.4581 12.9964 14.1224 13.3768 13.7035 13.6458C13.1695 13.991 12.5652 14.2127 11.9346 14.2949C11.3041 14.3771 10.6632 14.3177 10.0585 14.121C6.83642 13.2228 4.389 11.2696 2.42155 8.61309C1.66425 7.70507 1.09266 6.65716 0.739236 5.52885C0.533837 4.87265 0.502049 4.17441 0.646973 3.50226C0.791897 2.83011 1.10858 2.20701 1.56613 1.69375C2.08413 1.05695 2.27898 0.971405 3.22944 0.980909Z" fill="white"/>
</svg>
