<svg width="157" height="58" viewBox="0 0 157 58" fill="none" xmlns="http://www.w3.org/2000/svg">
<path d="M57.0622 0H0V57.0909H57.0622V0Z" fill="#ECF7FC"/>
<path d="M17.1456 26.9376H19.2724V18.4306H21.3977V26.9376H23.523V18.4306H25.6483V26.9376H27.7736V16.3042H17.1456V26.9376Z" fill="#00477B"/>
<path d="M4.9931 26.9376H15.6212V24.8113H7.1184V18.4306H15.6212V16.3042H4.9931V26.9376Z" fill="#00477B"/>
<path fill-rule="evenodd" clip-rule="evenodd" d="M24.4905 37.0438L25.3888 36.6928C25.7805 37.6277 26.018 38.2368 26.1045 38.5248L25.1717 38.7987C24.9772 38.2016 24.7498 37.6157 24.4905 37.0438V37.0438ZM23.1124 37.2106L24.0956 36.9902C24.3285 37.7652 24.5139 38.5536 24.651 39.3511L23.6567 39.5085C23.5146 38.7338 23.3329 37.9668 23.1124 37.2106V37.2106ZM21.8177 37.2326L22.834 37.1996C22.9389 38.3832 22.985 39.3396 22.9724 40.0688L21.9782 40.0232C22.0115 39.09 21.9577 38.1558 21.8177 37.2326ZM20.4413 38.177C19.5994 38.7411 18.7171 39.2425 17.8015 39.6769L17.2871 38.6413C17.715 38.4634 18.0831 38.3045 18.3883 38.1691V35.3361H17.6206V34.2438H18.3899V31.8498H17.6206V30.7591H20.2399V31.8498H19.4533V34.2438H20.1597V35.3361H19.4533V37.5647L19.8907 37.2499L20.501 38.0369C20.5781 37.7426 20.6489 37.4246 20.7134 37.0925L21.7831 37.39C21.5341 38.5111 21.0628 39.5708 20.3972 40.5064C20.1702 40.2329 19.8904 40.0081 19.5745 39.8453C19.8749 39.4464 20.1258 39.0125 20.3217 38.5532C20.3509 38.4262 20.3909 38.3019 20.4413 38.1817V38.177ZM23.3044 33.9069H21.7108V33.3246H23.3028L23.3044 33.9069ZM23.3044 32.3645H21.7108V31.8561C21.7094 31.8402 21.7115 31.8243 21.7168 31.8093C21.7221 31.7943 21.7305 31.7806 21.7415 31.7691C21.7525 31.7576 21.7659 31.7487 21.7807 31.7428C21.7954 31.7369 21.8113 31.7342 21.8272 31.7349H23.3028L23.3044 32.3645ZM21.7108 35.4572V34.8717H23.3028V35.4572H21.7108ZM20.6521 35.8665V36.3072C20.6521 36.4409 20.7134 36.5071 20.8361 36.5071H26.0526C26.1454 36.5071 26.1911 36.537 26.1911 36.5952C26.2209 37.7945 26.2084 38.5705 26.158 38.9214C26.1231 39.1697 26.0133 39.4014 25.8434 39.5856C25.7342 39.6709 25.5978 39.7134 25.4595 39.7053C25.0603 39.6719 24.6636 39.613 24.2718 39.529L24.3804 40.6874C25.534 40.7755 26.2744 40.6795 26.6016 40.3994C26.8851 40.16 27.0686 39.8231 27.116 39.455C27.2293 38.8087 27.2791 37.5621 27.2655 35.7154C27.2728 35.5538 27.2052 35.4688 27.0626 35.4604H24.3631V34.8717H26.7448V33.9116H24.3631V33.3293H26.6929V32.3692H24.3631V31.7396H26.9493V30.6914H20.8896C20.857 30.6871 20.8239 30.6904 20.7929 30.7012C20.7618 30.7119 20.7337 30.7298 20.7108 30.7533C20.6879 30.7769 20.6707 30.8054 20.6608 30.8368C20.6509 30.8681 20.6484 30.9013 20.6536 30.9338L20.6521 35.8665ZM9.94376 37.1004V40.6087H11.0449V37.1004H13.09C13.1529 37.1004 13.186 37.1319 13.186 37.1901V38.9765C13.186 39.1166 13.09 39.2268 12.8981 39.3086C12.6322 39.4046 12.1273 39.3401 11.38 39.1198L11.4115 40.3789C12.4854 40.5888 13.272 40.5667 13.7712 40.3128C14.1131 40.1365 14.284 39.8831 14.284 39.5526V36.2835C14.289 36.2461 14.2853 36.208 14.2731 36.1723C14.2609 36.1366 14.2406 36.1042 14.2138 36.0776C14.1869 36.0511 14.1543 36.0311 14.1185 36.0193C14.0826 36.0075 14.0445 36.0042 14.0072 36.0097H11.0465V35.1724H9.94533V36.0097H8.43827C8.82866 35.6498 9.19643 35.2661 9.53946 34.8607C9.54824 34.8388 9.56295 34.8197 9.58194 34.8056H14.9306V33.7149H10.3842C10.4912 33.5371 10.6092 33.3592 10.7382 33.1735L9.96736 32.6541C10.1373 32.588 10.3386 32.5234 10.5667 32.4573C11.5798 32.7501 12.6668 33.1231 13.8373 33.5717L14.1362 32.5109C13.4733 32.2632 12.832 32.0282 12.2122 31.8057C12.563 31.6483 12.939 31.4689 13.3449 31.2769L12.854 30.2617C12.1333 30.6503 11.3906 30.9966 10.6296 31.2989C9.31823 30.8894 7.97779 30.5795 6.61973 30.3719L6.37432 31.4532C7.10493 31.5633 7.8295 31.7104 8.54524 31.8939C7.522 32.1096 6.48069 32.2282 5.43516 32.248L5.679 33.3403C6.84736 33.3221 8.00931 33.1636 9.13989 32.8681C9.33024 32.8146 9.54418 32.7611 9.78015 32.7107C9.53632 33.0838 9.30821 33.419 9.10528 33.7133H5.35022V34.8041H8.20545C7.53047 35.4544 6.78366 36.0258 5.97947 36.5071C5.65226 36.6644 5.32347 36.8328 4.99469 37.0013L5.60506 37.9614C5.99677 37.7567 6.39163 37.5317 6.78177 37.2893V40.2892H7.88296V37.1901C7.88254 37.1786 7.88441 37.1672 7.88847 37.1564C7.89254 37.1456 7.8987 37.1358 7.90661 37.1274C7.91452 37.1191 7.92402 37.1124 7.93454 37.1078C7.94506 37.1031 7.95641 37.1006 7.96791 37.1004H9.94376Z" fill="#00477B"/>
<path d="M29.2933 26.9376H39.9213V24.8113H31.4186V22.6849H39.9213V20.5569H31.4186V18.4306H39.9213V16.3042H29.2933V26.9376Z" fill="#00477B"/>
<path d="M52.069 16.3042H41.441V18.4306H49.9438V20.5569H41.441V26.9376H43.5663V22.6849H45.6916L49.2862 26.9376H52.069L48.476 22.6849H52.069V16.3042Z" fill="#00477B"/>
<path d="M71.1952 44.4995C70.2356 45.3006 70.1427 45.3698 68.428 46.5361C67.9026 45.277 67.6273 44.8426 66.8738 43.9517C69.1505 42.7641 71.1707 41.1386 72.8186 39.1686H70.3205C69.2977 39.1473 68.2744 39.1856 67.256 39.2835V36.3544C68.2737 36.4633 69.2972 36.509 70.3205 36.4913H74.6199C75.0541 35.5989 75.2145 35.1881 75.3058 34.7301L78.5307 35.1425C78.3642 35.3767 78.2259 35.6298 78.1185 35.8964C78.0273 36.0805 77.9612 36.2112 77.8039 36.4913H85.2133C86.2215 36.5086 87.2297 36.4629 88.2322 36.3544V39.2835C87.433 39.1922 86.7928 39.1686 85.2133 39.1686H80.1148V41.0227H84.2757C84.9938 41.0369 85.712 41.0064 86.4262 40.9314C86.356 41.5463 86.3255 42.165 86.335 42.7839V46.8572C86.335 47.9778 86.1053 48.5035 85.4886 48.8938C85.0544 49.1441 84.2537 49.2826 83.2862 49.2826C82.9716 49.2826 82.6916 49.2826 81.754 49.237C81.6172 48.0927 81.4567 47.4285 81.0917 46.5817C81.6446 46.6632 82.2021 46.7095 82.7608 46.7203C83.2862 46.7203 83.4467 46.6054 83.4467 46.2843V43.6086H80.1148V48.1163C80.0966 48.9502 80.1424 49.7842 80.2517 50.611H77.118C77.2264 49.7841 77.2727 48.9502 77.2564 48.1163V43.607H74.0771V47.0697C74.0771 48.3052 74.0992 48.8309 74.192 49.4951H71.0583C71.1603 48.6908 71.206 47.8803 71.1952 47.0697V44.4995ZM83.7802 36.1482C82.1377 35.2476 80.4508 34.4307 78.7257 33.7008C76.1411 34.5932 73.558 35.1881 69.6928 35.8051C69.2873 34.9414 68.7383 34.1527 68.0694 33.4725C71.2471 33.1279 72.7573 32.854 74.9754 32.2354C73.4699 31.6738 71.9355 31.1931 70.3787 30.7953L73.053 29.1931C74.5853 29.6511 76.042 30.1374 78.5417 31.0456C80.1872 30.3829 81.6282 29.5818 82.4289 28.9192L85.6302 30.4522C85.2352 30.6222 84.853 30.8205 84.4865 31.0456C83.6402 31.5036 82.635 32.0529 81.9491 32.396C82.5657 32.6478 83.9375 33.2664 86.0392 34.2501L83.7802 36.1482ZM77.2627 41.0274V39.1686H76.1615C75.7122 39.8163 75.223 40.4356 74.697 41.0227L77.2627 41.0274Z" fill="#00477B"/>
<path d="M91.8236 32.9516C91.2045 32.9376 90.5852 32.9681 89.9705 33.0429V30.1311C90.654 30.2098 91.3416 30.2482 92.0297 30.246H95.1618C95.8724 30.2487 96.5825 30.2104 97.2887 30.1311V33.0366C96.6815 32.9665 96.0702 32.9381 95.4591 32.9516H95.0485V36.7731H95.2546C95.767 36.7829 96.2793 36.7523 96.7868 36.6818V39.5416C96.279 39.474 95.7669 39.4434 95.2546 39.4503H95.0485V43.607C95.4371 43.4937 95.7108 43.4024 96.9237 42.9901L97.0385 45.6437C94.3847 46.7454 94.3847 46.7454 91.3658 47.726C91.0009 47.8629 90.5431 48.0235 90.2001 48.1604L89.6511 45.0031C90.337 44.9354 90.9316 44.7969 92.2122 44.4318V39.444H91.9841C91.4406 39.4321 90.8972 39.47 90.3606 39.5573V36.6755C90.8816 36.7487 91.4078 36.7793 91.9337 36.7668H92.2075V32.9516H91.8236ZM99.7585 43.5913C99.4439 46.4055 99.0962 47.7323 98.0674 50.1577L95.9169 48.8765C97.0181 46.8399 97.3815 45.6956 97.6788 43.1789L99.7585 43.5913ZM106.3 40.3884H108.884C109.579 40.4043 110.275 40.3738 110.965 40.2971C110.942 40.5709 110.896 41.4398 110.851 42.9507C110.693 47.0697 110.416 48.6704 109.731 49.5407C109.182 50.227 108.335 50.4851 106.414 50.4851C105.911 50.4851 105.59 50.4615 104.882 50.4158C104.889 49.4954 104.766 48.5787 104.516 47.6929L103.356 47.8865C103.28 46.4496 103.104 45.0196 102.829 43.607L104.522 43.3552C104.899 44.7237 105.137 46.127 105.231 47.5434L104.659 47.6583C104.766 47.6546 104.872 47.6701 104.973 47.704C105.517 47.8075 106.068 47.8686 106.62 47.8865C107.192 47.8865 107.512 47.7496 107.649 47.3829C107.923 46.8116 108.061 45.3698 108.083 42.6926H100.331C99.1182 42.6926 98.4559 42.7146 97.8141 42.7618C97.8817 42.0284 97.9053 41.5263 97.9053 39.8784V32.5565C97.9233 31.6631 97.8849 30.7694 97.7905 29.8809C98.77 29.9928 99.756 30.0386 100.742 30.0178H107.945C108.915 30.0325 109.885 29.9867 110.849 29.8809V32.5345C109.998 32.4509 109.143 32.4131 108.288 32.4212H106.3V33.6331H108.153C108.764 33.648 109.376 33.6175 109.982 33.5418V35.8303C109.383 35.7572 108.779 35.7267 108.175 35.739H106.3V36.9745H108.175C108.772 36.9876 109.37 36.9582 109.963 36.8864V39.1686C109.379 39.1026 108.791 39.0721 108.203 39.0773H106.3V40.3884ZM102.161 43.5158C102.368 44.9101 102.482 46.3166 102.504 47.726V48.779L100.285 49.0056C100.353 47.9039 100.377 47.4049 100.377 46.4432C100.377 45.4139 100.353 44.841 100.285 43.6291L102.161 43.5158ZM103.693 32.4196H100.743V33.6315H103.693V32.4196ZM103.693 35.7374H100.743V36.973H103.693V35.7374ZM100.743 39.0773V40.3821H103.693V39.0773H100.743ZM106.643 43.127C107.215 44.66 107.237 44.7009 107.626 46.2843L106.002 46.7879C105.785 45.6821 105.479 44.5957 105.087 43.5394L106.643 43.127Z" fill="#00477B"/>
<path d="M117.461 40.1524C117.231 40.7709 117.164 40.9535 116.843 41.7546L113.756 41.2825C114.621 39.378 115.295 37.3925 115.768 35.3551C115.903 34.8441 116.002 34.3246 116.066 33.8L119.176 34.2108C119.061 34.6216 119.039 34.7129 118.878 35.3315C118.741 35.8572 118.535 36.6126 118.329 37.3902H125.99L125.945 32.8148H117.392C116.361 32.8011 115.33 32.8468 114.304 32.9517V29.925C115.329 30.0344 116.36 30.0801 117.392 30.062H129.628C130.659 30.0795 131.69 30.0337 132.716 29.925V32.9517C131.69 32.8424 130.659 32.7966 129.628 32.8148H128.92L128.965 37.3902H130.612C131.61 37.4047 132.609 37.359 133.601 37.2532V40.2972C132.608 40.1925 131.61 40.1462 130.612 40.1587H129.009L129.078 47.5042C129.101 49.9296 128.323 50.4553 124.686 50.4553C124.184 50.4553 123.772 50.4553 122.766 50.4097C122.583 49.0592 122.451 48.5335 122.034 47.4349C123.025 47.5631 124.023 47.632 125.023 47.6411C125.967 47.6411 126.099 47.5719 126.099 47.0918L126.03 40.3885C125.069 41.8758 124.133 42.9508 122.531 44.4146C120.222 46.4969 117.843 48.0346 114.527 49.5865C114.02 48.6376 113.389 47.7601 112.652 46.9769C115.784 45.7414 117.843 44.5987 119.855 42.9729C120.93 42.1595 121.898 41.214 122.737 40.1587L117.461 40.1524Z" fill="#00477B"/>
<path d="M139.37 33.2664C138.728 33.3798 138.226 33.4726 136.853 33.6316C136.556 32.4653 136.419 32.0986 135.893 31.0928C139.62 30.7261 142.433 30.0399 143.806 29.1931L145.452 31.5949C145.35 31.648 145.245 31.6942 145.137 31.7334C144.542 32.0073 143.377 32.374 142.209 32.6778V35.2858H143.353C143.932 35.304 144.512 35.2655 145.084 35.1709V38.0307C144.492 37.961 143.896 37.9305 143.3 37.9394H142.338C143.803 39.9068 143.94 40.0673 145.449 41.1659C144.854 42.1103 144.626 42.562 144.077 43.999C143.208 43.0137 143.002 42.7399 142.11 41.2525C142.134 41.7105 142.18 42.5337 142.202 43.7236V47.7276C142.202 49.1001 142.225 49.7407 142.338 50.6111H139.232C139.333 49.6534 139.379 48.6906 139.37 47.7276V44.5231C139.37 44.0887 139.392 43.5394 139.461 42.0977C138.797 43.9738 138.111 45.2094 136.899 46.6511C136.351 45.2094 136.03 44.5452 135.505 43.722C137.099 42.0824 138.303 40.1035 139.025 37.9331H137.975C137.302 37.9322 136.629 37.9705 135.961 38.048V35.1646C136.643 35.2551 137.332 35.2935 138.02 35.2795H139.37V33.2664ZM147.144 46.33C146.139 46.5362 145.452 46.7203 144.903 46.8793L144.629 43.7456C145.36 43.7204 146.087 43.6282 146.801 43.4702L151.809 42.3952V32.1222C151.809 30.7261 151.785 30.0855 151.672 29.3537H154.919C154.804 30.1768 154.782 30.7025 154.782 32.0986V41.7546C156.017 41.4571 156.108 41.4398 156.816 41.1817L157 44.2713C156.255 44.3634 155.514 44.4932 154.782 44.6601V47.863C154.782 49.2591 154.804 49.8996 154.919 50.6551H151.672C151.785 49.8776 151.809 49.3047 151.809 47.841V45.3006L147.144 46.33ZM146.617 36.2396C148.515 37.59 149.43 38.3219 150.865 39.7415L149.134 42.1024C147.442 40.3176 146.595 39.6078 144.857 38.3722L146.617 36.2396ZM147.44 30.5199C149.521 31.916 150.528 32.7234 151.785 34.0203L149.934 36.4001C148.664 34.9881 147.228 33.736 145.656 32.6715L147.44 30.5199Z" fill="#00477B"/>
<path d="M74.6608 18.3568C74.4468 19.1689 74.2439 19.6159 73.9057 20.0503C73.2623 20.8373 72.1752 21.2796 70.8239 21.2796C69.5953 21.2796 68.6137 20.9081 67.9246 20.1967C67.1381 19.372 66.6945 18.0971 66.6945 16.6522C66.6945 15.1617 67.1664 13.8522 68.0143 13.0054C68.6923 12.3161 69.707 11.9336 70.8365 11.9336C71.7159 11.9336 72.3813 12.102 73.0027 12.475C73.4982 12.7784 73.9093 13.2017 74.1983 13.7058C74.3485 13.9807 74.4657 14.2723 74.5475 14.5746L72.9744 14.9351C72.8171 14.4393 72.7148 14.2252 72.4899 13.9655C72.106 13.5012 71.546 13.2651 70.8428 13.2651C69.2398 13.2651 68.2692 14.5243 68.2692 16.5956C68.2692 18.6668 69.2634 19.948 70.8428 19.948C71.6294 19.948 72.309 19.6427 72.6708 19.1123C72.8627 18.8305 72.9524 18.5929 73.042 18.0735L74.6608 18.3568Z" fill="#00477B"/>
<path d="M80.0298 21.1001C79.919 20.5756 79.7529 20.0644 79.5343 19.575L77.9093 15.7031C77.6759 15.1407 77.4834 14.5621 77.3335 13.9718C77.3791 14.5699 77.4247 15.4954 77.4247 15.7441V19.4475C77.4107 19.9983 77.4407 20.5494 77.5144 21.0954H75.9413C76.0139 20.5493 76.0439 19.9983 76.031 19.4475V13.7814C76.0427 13.2227 76.0127 12.664 75.9413 12.1099H78.0052C78.1046 12.5694 78.2446 13.0193 78.4237 13.454L80.7032 19.0556L82.9826 13.4571C83.1677 13.0257 83.3038 12.5748 83.3885 12.113H85.465C85.3947 12.6673 85.3643 13.2259 85.3738 13.7845V19.4506C85.3577 20.0015 85.3882 20.5528 85.465 21.0985H83.8919C83.9649 20.5524 83.9948 20.0014 83.9816 19.4506V15.7031C84.0272 14.721 84.0602 14.1449 84.0712 13.9718C83.9334 14.5316 83.76 15.082 83.5521 15.6197L81.8594 19.5939C81.6517 20.0793 81.4859 20.5816 81.3639 21.0954L80.0298 21.1001Z" fill="#00477B"/>
<path d="M93.4801 21.1787C92.9972 21.1159 92.5103 21.0896 92.0234 21.1H88.5028C87.8263 21.1 87.5211 21.111 87.0696 21.133C87.1407 20.6395 87.1712 20.141 87.1609 19.6425V13.5357C87.166 13.0488 87.1355 12.5622 87.0696 12.0798C87.5211 12.1019 87.8153 12.1129 88.5028 12.1129H91.9117C92.3979 12.1161 92.8839 12.0898 93.3669 12.0342V13.5247C92.8844 13.4634 92.3981 13.4371 91.9117 13.446H88.6617V15.7707H91.4005C91.8904 15.7752 92.38 15.7489 92.8666 15.692V17.1715C92.381 17.104 91.8906 17.0772 91.4005 17.0912H88.6475V19.7558H92.0297C92.5128 19.762 92.9958 19.7357 93.4754 19.6771L93.4801 21.1787Z" fill="#00477B"/>
<path d="M100.525 21.1C100.501 20.8293 100.311 20.2532 99.9378 19.2931C99.3275 17.7349 98.9326 17.3178 98.0642 17.3178H96.3888V19.6205C96.3777 20.1153 96.4082 20.6103 96.4801 21.1H94.7984C94.8689 20.6138 94.8989 20.1226 94.8881 19.6315V13.5467C94.894 13.0562 94.864 12.566 94.7984 12.0798C95.2703 12.1019 95.6227 12.1129 96.2425 12.1129H98.9515C100.666 12.1129 101.648 12.9707 101.648 14.4612C101.648 15.1836 101.456 15.7486 101.072 16.1437C100.757 16.4711 100.463 16.6159 99.8135 16.7985C100.525 17.0235 100.739 17.3399 101.859 19.9825C101.948 20.1855 102.231 20.7946 102.389 21.1H100.525ZM98.651 16.0304C99.0474 16.0404 99.432 15.8946 99.7223 15.6243C99.8468 15.492 99.9431 15.3357 100.005 15.165C100.067 14.9942 100.094 14.8126 100.084 14.6312C100.084 13.8174 99.6216 13.4004 98.6966 13.4004H96.3888V16.0304H98.651Z" fill="#00477B"/>
<path d="M107.366 13.5467C107.374 13.0562 107.344 12.5657 107.277 12.0798C107.728 12.1019 107.999 12.1129 108.71 12.1129H110.755C112.171 12.1129 113.08 12.4072 113.802 13.106C114.625 13.8851 115.06 15.0593 115.06 16.5277C115.06 18.0623 114.609 19.2821 113.728 20.1179C113.006 20.7946 112.104 21.1 110.772 21.1H108.705C108.016 21.1 107.734 21.111 107.272 21.133C107.342 20.6395 107.372 20.141 107.361 19.6425L107.366 13.5467ZM110.67 19.7669C111.595 19.7669 112.193 19.5528 112.666 19.0444C113.209 18.4684 113.49 17.5996 113.49 16.5388C113.49 15.4779 113.231 14.6642 112.704 14.1228C112.241 13.638 111.655 13.446 110.673 13.446H108.862V19.7669H110.67Z" fill="#00477B"/>
<path d="M117.431 18.2324C117.488 18.8525 117.588 19.1689 117.848 19.4915C118.021 19.6846 118.231 19.8403 118.466 19.949C118.701 20.0577 118.956 20.117 119.215 20.1233C119.474 20.1297 119.732 20.0829 119.972 19.9859C120.212 19.8888 120.43 19.7436 120.612 19.5592C120.761 19.3886 120.872 19.1886 120.939 18.9721L122.272 19.4018C122.112 19.7899 121.878 20.1429 121.583 20.4406C120.996 21.0166 120.206 21.3094 119.259 21.3094C117.261 21.3094 115.998 19.9779 115.998 17.8657C115.998 15.7771 117.256 14.4109 119.179 14.4109C120.5 14.4109 121.538 15.0672 121.988 16.1957C122.206 16.7414 122.317 17.3238 122.316 17.9113C122.316 17.9333 122.316 17.968 122.339 18.2261L117.431 18.2324ZM120.871 17.1149C120.793 16.6175 120.658 16.3138 120.376 16.0305C120.215 15.8748 120.024 15.7542 119.814 15.6765C119.604 15.5987 119.38 15.5654 119.157 15.5787C118.277 15.5787 117.634 16.1658 117.464 17.1149H120.871Z" fill="#00477B"/>
<path d="M123.455 21.1C123.523 20.6137 123.554 20.1227 123.546 19.6315V16.0871C123.554 15.5964 123.524 15.1059 123.455 14.6202H124.99V15.2183C124.991 15.3802 124.984 15.542 124.966 15.703C125.655 14.8232 126.253 14.5068 127.269 14.5068C128.138 14.5068 128.781 14.7886 129.187 15.3426C129.458 15.714 129.571 16.1658 129.571 16.9165V19.6252C129.56 20.1164 129.59 20.6075 129.661 21.0937H128.025C128.081 20.6063 128.107 20.1159 128.103 19.6252V17.1258C128.103 16.6537 128.047 16.3389 127.911 16.1327C127.808 15.9799 127.666 15.8568 127.501 15.7756C127.335 15.6945 127.151 15.658 126.967 15.67C126.154 15.67 125.489 16.2334 124.993 17.3509V19.6315C124.987 20.1226 125.017 20.6134 125.083 21.1H123.455Z" fill="#00477B"/>
<path d="M133.417 12.8809C133.365 13.3418 133.339 13.8052 133.339 14.2691V14.62H133.81C134.191 14.6304 134.572 14.6077 134.949 14.5524V15.8839C134.585 15.8286 134.217 15.8059 133.848 15.8162H133.34V19.3151C133.34 19.8691 133.543 20.0721 134.084 20.0721C134.377 20.0719 134.664 19.9854 134.909 19.8234L135.111 21.0212C134.66 21.1953 134.179 21.2756 133.696 21.2573C132.398 21.2573 131.88 20.7945 131.88 19.6094V15.8162H131.451C131.115 15.809 130.779 15.8316 130.447 15.8839V14.5524C130.782 14.6075 131.122 14.6302 131.462 14.62H131.88V14.2691C131.879 13.8052 131.852 13.3418 131.8 12.8809H133.417Z" fill="#00477B"/>
<path d="M140.232 20.3602C139.781 20.7899 139.499 20.9489 139.035 21.0716C138.693 21.1636 138.34 21.2092 137.986 21.207C136.609 21.207 135.783 20.4971 135.783 19.3183C135.791 18.9214 135.916 18.5357 136.143 18.2101C136.369 17.8845 136.688 17.6337 137.057 17.4894C137.791 17.1856 138.631 17.0723 140.24 17.0392V16.4632C140.24 15.8084 139.799 15.47 138.942 15.47C138.491 15.47 138.028 15.5928 137.768 15.7974C137.555 15.9548 137.454 16.1122 137.317 16.5198L135.873 16.2601C136.132 15.6054 136.335 15.3158 136.765 15.001C137.317 14.5949 137.949 14.4265 138.92 14.4265C140.002 14.4265 140.65 14.6185 141.143 15.0923C141.525 15.4527 141.673 15.8792 141.673 16.6505V19.6866C141.666 20.1604 141.696 20.634 141.763 21.1031H140.24L140.232 20.3602ZM140.232 18.0135C138.077 18.0576 137.23 18.4306 137.23 19.3104C137.23 19.8424 137.625 20.1698 138.256 20.1698C138.838 20.1774 139.4 19.9629 139.829 19.5701C139.962 19.4416 140.067 19.287 140.137 19.1161C140.207 18.9452 140.241 18.7616 140.237 18.5769L140.232 18.0135Z" fill="#00477B"/>
<path d="M144.73 12.1128C144.668 12.6035 144.642 13.0979 144.651 13.5923V19.6314C144.646 20.1221 144.672 20.6126 144.73 21.0999H143.094C143.153 20.6127 143.179 20.1221 143.172 19.6314V13.5813C143.181 13.0905 143.155 12.5997 143.094 12.1128H144.73Z" fill="#00477B"/>
<path d="M37.2958 36.5071C37.6635 36.5149 38.0313 36.4991 38.397 36.4598C38.3637 36.8261 38.3495 37.1938 38.3545 37.5616V39.6549C38.3527 40.0333 38.3706 40.4116 38.408 40.7881H37.2156V40.371H31.4737V40.7771H30.3253C30.3567 40.4529 30.3788 40.0594 30.3788 39.6549V37.4782C30.3788 37.1539 30.3677 36.8313 30.3457 36.4724C30.5612 36.4945 30.975 36.5071 31.4469 36.5071H32.9288C32.9493 36.3339 32.9493 36.3339 32.9603 36.1262H30.6367C30.256 36.1219 29.8754 36.1445 29.4978 36.1938V35.1551C29.8753 35.205 30.2562 35.2245 30.6367 35.2133H38.3042C38.6168 35.2217 38.9295 35.2022 39.2386 35.1551V36.1844C38.8321 36.1417 38.4235 36.1228 38.0147 36.1277H35.655V36.5086L37.2958 36.5071ZM33.536 32.355C33.7699 32.3676 34.0044 32.3518 34.2345 32.3078V33.0145C33.934 32.9909 33.8255 32.9783 33.6052 32.9783H33.1962C33.5104 33.2499 33.8705 33.4631 34.2597 33.6079C34.0955 33.7384 33.9573 33.8985 33.8522 34.0801C34.0882 34.0675 34.1197 34.0675 34.3037 34.0454V34.9237C34.0178 34.894 33.7306 34.8788 33.4432 34.878H30.6257C30.3898 34.878 30.1097 34.8891 29.7873 34.9001C29.8093 34.6813 29.8203 34.3571 29.8203 33.9557V31.2486C29.8203 30.8331 29.8093 30.5907 29.7873 30.1846C30.0829 30.2237 30.3811 30.2394 30.6792 30.2318H33.289C33.6302 30.2335 33.9712 30.214 34.31 30.1736V31.0644C33.89 31.0408 33.7185 31.0298 33.418 31.0298H32.2508C32.2083 31.1227 32.1879 31.1872 32.1234 31.3446H33.3362C33.5736 31.352 33.8112 31.3368 34.0457 31.2989V32.0277C33.8111 31.9911 33.5736 31.9759 33.3362 31.982H33.0578C33.0358 32.1772 33.0248 32.248 33.0043 32.3519L33.536 32.355ZM31.5382 32.9846C31.3587 32.9823 31.1793 32.9944 31.0017 33.0208V32.322C31.133 32.3422 31.2654 32.3537 31.3981 32.3566C31.2611 32.194 31.0932 32.0603 30.9042 31.9631C31.1985 31.716 31.4244 31.3973 31.5602 31.0377H30.7657V34.0801H31.3242C31.2109 33.9008 31.069 33.7413 30.9042 33.6079C31.4422 33.4584 31.7206 33.2931 31.9786 32.9783L31.5382 32.9846ZM32.2681 32.355C32.2791 32.2512 32.2901 32.1977 32.3121 31.9852H31.7788C31.6871 32.1213 31.5787 32.2456 31.4564 32.355H32.2618H32.2681ZM32.2901 38.4855C32.0921 38.2176 31.8488 37.9864 31.5712 37.8024C32.1186 37.7331 32.4946 37.5474 32.7086 37.2248H31.4737V38.4839L32.2901 38.4855ZM31.4737 39.2142V39.5494H37.2203V39.2142H31.4737ZM33.5581 34.0785C33.2014 33.8641 32.8907 33.5812 32.6441 33.2459C32.4047 33.5986 32.08 33.885 31.7002 34.0785H33.5581ZM37.2203 38.4855V37.2263H36.3928C36.6302 37.3762 36.8922 37.4828 37.1668 37.5411C37.0583 38.1534 36.8978 38.2352 35.8234 38.2352C34.8999 38.2352 34.6529 38.1203 34.6529 37.6796V37.2295H33.805C33.6226 37.8181 33.1758 38.2242 32.4301 38.4886L37.2203 38.4855ZM34.6529 36.1246H33.9655C33.9545 36.378 33.9545 36.4126 33.9435 36.5055H34.6529V36.1246ZM35.9303 31.0345C35.9195 31.3576 35.7849 31.6642 35.5544 31.8907C35.3991 32.0451 35.2174 32.1704 35.0179 32.2606H37.6073C37.8265 32.2723 38.0463 32.257 38.2617 32.215L38.7557 32.747C38.6817 32.8103 38.6133 32.8798 38.5512 32.9547C38.2429 33.3178 37.8934 33.6436 37.5098 33.9258C38.0956 34.1039 38.7022 34.205 39.3141 34.2264C39.1184 34.5022 38.9661 34.8063 38.8626 35.1283C37.8637 34.9552 37.2628 34.782 36.6288 34.4704C36.0584 34.7605 35.4515 34.9723 34.8244 35.1C34.7262 34.7976 34.5893 34.5093 34.417 34.2422C34.8823 34.1906 35.34 34.0849 35.7809 33.9274C35.454 33.6697 35.1709 33.3609 34.9424 33.0129C34.7807 33.0102 34.6191 33.0218 34.4595 33.0476V32.2276C34.5544 32.2493 34.6515 32.2609 34.7489 32.2622C34.632 32.0031 34.4682 31.7678 34.266 31.5681C34.5241 31.5103 34.7575 31.3726 34.933 31.1746C35.0665 30.9713 35.1406 30.7347 35.1469 30.4915C35.1456 30.3863 35.1382 30.2812 35.1249 30.1767C35.3707 30.2127 35.6191 30.2279 35.8674 30.2224H37.1118C37.3528 30.2277 37.5938 30.2124 37.8322 30.1767C37.797 30.3671 37.7827 30.5608 37.7898 30.7544V31.1825C37.7898 31.3399 37.8102 31.3556 38.1044 31.3556C38.4804 31.3556 38.5008 31.321 38.5339 30.6269C38.7779 30.7671 39.0438 30.865 39.3204 30.9165C39.278 31.4611 39.1804 31.7491 39.0058 31.9002C38.8312 32.0513 38.5984 32.0843 37.8244 32.0843C37.0504 32.0843 36.901 32.0151 36.901 31.5413V31.044L35.9303 31.0345ZM35.6519 37.3302C35.6519 37.527 35.7054 37.5616 36.0169 37.5616C36.3283 37.5616 36.3614 37.527 36.3818 37.2153H35.6519V37.3302ZM35.9099 32.9815C36.1033 33.2036 36.3364 33.3878 36.5973 33.5245C36.8816 33.3682 37.1512 33.1864 37.4028 32.9815H35.9099Z" fill="#00477B"/>
<path d="M50.6658 37.1368C50.6658 37.7002 50.6768 37.8608 50.6989 38.1362C50.4676 38.1142 50.315 38.1142 50.0177 38.1016C50.5278 38.7211 51.1687 39.2199 51.8944 39.5622C51.646 39.8714 51.4323 40.2071 51.2573 40.5632C50.4079 40.0637 49.6606 39.4079 49.0549 38.6304L49.7676 38.1016H48.4839V39.7353C48.4839 40.08 48.3848 40.3334 48.1992 40.4593C48.0135 40.5852 47.7602 40.656 47.2332 40.656C46.8384 40.656 46.4467 40.6435 45.9936 40.6088C45.9749 40.2156 45.882 39.8295 45.7199 39.4709C46.1143 39.5438 46.5144 39.5823 46.9155 39.5858C47.2773 39.5858 47.3324 39.5512 47.3324 39.3088V38.1016H46.1368C45.9165 38.1016 45.852 38.1016 45.6428 38.1142L46.3665 38.5391C45.8512 39.3368 45.1796 40.0217 44.3922 40.5522C44.1846 40.2348 43.9293 39.9513 43.6355 39.7117C44.5133 39.1718 44.9522 38.7579 45.3361 38.1252C45.2814 38.1333 45.2261 38.137 45.1709 38.1362C45.1929 37.8497 45.2039 37.664 45.2039 37.1478V36.0319C44.9963 36.1704 44.8893 36.2396 44.5353 36.4348C44.4673 36.21 44.3826 35.9907 44.2821 35.7785C44.1955 36.9636 44.0414 37.8372 43.7787 38.6115C43.5518 39.3313 43.1986 40.005 42.7357 40.601C42.4918 40.2478 42.1958 39.9336 41.8579 39.6692C42.5941 38.75 42.9009 37.9221 43.0865 36.3451C42.7719 36.5528 42.3408 36.8062 42.0891 36.9432C42.0149 36.9777 41.9447 37.0205 41.8799 37.0706L41.5322 35.8477C41.9271 35.7674 42.5202 35.503 43.1777 35.1237C43.1997 34.7334 43.1997 34.5602 43.2108 34.0314L42.4242 34.5838C42.2417 33.8388 41.9652 33.1201 41.6014 32.4449L42.4352 31.916C42.7537 32.4971 43.0155 33.1074 43.217 33.7387V33.3357C43.217 33.1406 43.2171 32.4858 43.206 32.1175C43.206 31.2204 43.206 31.0945 43.151 30.6789C43.5992 30.7271 44.05 30.7465 44.5007 30.7372H46.6937V30.6569C46.7011 30.4258 46.6832 30.1947 46.6402 29.9675H47.9821C47.943 30.1952 47.9245 30.4259 47.927 30.6569V30.7482H50.5274C50.9748 30.7614 51.4225 30.7382 51.8661 30.6789V31.8295C51.465 31.7939 51.0622 31.7787 50.6595 31.7838H48.2637C48.1756 32.0719 48.1425 32.1868 48.0765 32.3693H50.5935C50.9708 32.378 51.3483 32.3591 51.723 32.3127V33.4144C51.3632 33.3672 51.0003 33.3482 50.6375 33.3578H49.1619C49.3803 33.6932 49.6506 33.9918 49.9626 34.2423C50.2589 34.0043 50.5117 33.7167 50.7099 33.3924L51.5861 33.9669C51.3192 34.2505 51.0372 34.5195 50.7413 34.7727C51.1619 35.0051 51.6087 35.1864 52.0722 35.3126C51.8663 35.6459 51.7075 36.006 51.6003 36.3828C51.278 36.2542 50.9666 36.1 50.669 35.9217L50.6658 37.1368ZM44.3466 33.4097C44.3466 34.1007 44.3355 34.6295 44.3025 35.3189C44.6363 35.1608 44.9526 34.9683 45.2464 34.7444C45.015 34.4841 44.7536 34.2522 44.4677 34.0534L45.1473 33.4553C45.4163 33.6711 45.6697 33.9056 45.9055 34.1573C46.1374 33.9139 46.3396 33.644 46.508 33.353H45.5862C45.2494 33.3457 44.9125 33.361 44.5778 33.3987V32.3221C44.9273 32.3596 45.2788 32.3749 45.6302 32.3678H46.98C47.0568 32.1777 47.1189 31.9819 47.1656 31.7823H44.3466V33.4097ZM46.2784 35.9059H49.5678V35.4228H46.2784V35.9059ZM46.2784 37.217H49.5678V36.7291H46.2784V37.217ZM48.8992 34.5036C48.5734 34.1571 48.2933 33.7705 48.0654 33.353H47.6486C47.4406 33.7589 47.1946 34.1442 46.9139 34.5036H48.8992Z" fill="#00477B"/>
</svg>
