<svg width="50" height="50" viewBox="0 0 50 50" fill="none" xmlns="http://www.w3.org/2000/svg">
<circle cx="25" cy="25" r="25" fill="#9BD0F5"/>
<path d="M15.2239 42H16.2639V38.36C16.2639 37.7 16.1739 36.75 16.1239 36.08H16.1639L16.7439 37.78L18.0339 41.29H18.7539L20.0339 37.78L20.6239 36.08H20.6639C20.6039 36.75 20.5139 37.7 20.5139 38.36V42H21.5939V34.64H20.2539L18.9239 38.36C18.7539 38.85 18.6139 39.35 18.4439 39.85H18.3939C18.2239 39.35 18.0739 38.85 17.9039 38.36L16.5539 34.64H15.2239V42ZM25.7247 42.13C26.3847 42.13 26.9747 41.8 27.4747 41.37H27.5047L27.6047 42H28.5447V38.69C28.5447 37.23 27.9147 36.36 26.5447 36.36C25.6647 36.36 24.8947 36.72 24.3247 37.08L24.7547 37.86C25.2247 37.56 25.7647 37.3 26.3447 37.3C27.1547 37.3 27.3847 37.86 27.3947 38.5C25.1047 38.75 24.1047 39.36 24.1047 40.54C24.1047 41.51 24.7747 42.13 25.7247 42.13ZM26.0747 41.22C25.5847 41.22 25.2147 41 25.2147 40.46C25.2147 39.84 25.7647 39.43 27.3947 39.23V40.58C26.9447 40.99 26.5547 41.22 26.0747 41.22ZM35.6166 36.5H34.4966L33.6166 39.33L33.1866 40.88H33.1366C32.9666 40.37 32.7966 39.82 32.6366 39.33L31.6166 36.5H30.4366L32.6166 41.96L32.5066 42.34C32.3066 42.93 31.9566 43.37 31.3566 43.37C31.2166 43.37 31.0566 43.32 30.9566 43.29L30.7366 44.19C30.9266 44.26 31.1466 44.3 31.4266 44.3C32.5866 44.3 33.1666 43.51 33.5966 42.33L35.6166 36.5Z" fill="white"/>
<path d="M17.4538 24.26C20.1538 24.26 22.3737 22.7 22.3737 20.04C22.3737 18.06 21.0338 16.78 19.3338 16.36V16.26C20.8938 15.68 21.8738 14.5 21.8738 12.8C21.8738 10.36 20.0138 9 17.3737 9C15.6738 9 14.3138 9.74 13.1538 10.78L14.3538 12.22C15.1938 11.4 16.1538 10.84 17.2938 10.82C18.6938 10.84 19.5538 11.66 19.5538 12.96C19.5538 14.44 18.5938 15.54 15.6938 15.54V17.24C19.0138 17.24 20.0538 18.3 20.0538 19.94C20.0538 21.46 18.9138 22.38 17.2538 22.38C15.7338 22.38 14.6338 21.64 13.7738 20.76L12.6538 22.24C13.6338 23.34 15.1338 24.26 17.4538 24.26ZM31.2 24.26C34.08 24.26 35.96 21.7 35.96 16.58C35.96 11.5 34.08 9 31.2 9C28.3 9 26.44 11.48 26.44 16.58C26.44 21.7 28.3 24.26 31.2 24.26ZM31.2 22.44C29.7 22.44 28.64 20.84 28.64 16.58C28.64 12.36 29.7 10.82 31.2 10.82C32.7 10.82 33.76 12.36 33.76 16.58C33.76 20.84 32.7 22.44 31.2 22.44Z" fill="white"/>
<path d="M7 30H43.5" stroke="white" stroke-linecap="round"/>
</svg>
