<svg width="50" height="50" viewBox="0 0 50 50" fill="none" xmlns="http://www.w3.org/2000/svg">
<circle cx="25" cy="25" r="25" fill="#C2C7CD"/>
<path d="M15.2239 42H16.2639V38.36C16.2639 37.7 16.1739 36.75 16.1239 36.08H16.1639L16.7439 37.78L18.0339 41.29H18.7539L20.0339 37.78L20.6239 36.08H20.6639C20.6039 36.75 20.5139 37.7 20.5139 38.36V42H21.5939V34.64H20.2539L18.9239 38.36C18.7539 38.85 18.6139 39.35 18.4439 39.85H18.3939C18.2239 39.35 18.0739 38.85 17.9039 38.36L16.5539 34.64H15.2239V42ZM25.7247 42.13C26.3847 42.13 26.9747 41.8 27.4747 41.37H27.5047L27.6047 42H28.5447V38.69C28.5447 37.23 27.9147 36.36 26.5447 36.36C25.6647 36.36 24.8947 36.72 24.3247 37.08L24.7547 37.86C25.2247 37.56 25.7647 37.3 26.3447 37.3C27.1547 37.3 27.3847 37.86 27.3947 38.5C25.1047 38.75 24.1047 39.36 24.1047 40.54C24.1047 41.51 24.7747 42.13 25.7247 42.13ZM26.0747 41.22C25.5847 41.22 25.2147 41 25.2147 40.46C25.2147 39.84 25.7647 39.43 27.3947 39.23V40.58C26.9447 40.99 26.5547 41.22 26.0747 41.22ZM35.6166 36.5H34.4966L33.6166 39.33L33.1866 40.88H33.1366C32.9666 40.37 32.7966 39.82 32.6366 39.33L31.6166 36.5H30.4366L32.6166 41.96L32.5066 42.34C32.3066 42.93 31.9566 43.37 31.3566 43.37C31.2166 43.37 31.0566 43.32 30.9566 43.29L30.7366 44.19C30.9266 44.26 31.1466 44.3 31.4266 44.3C32.5866 44.3 33.1666 43.51 33.5966 42.33L35.6166 36.5Z" fill="white"/>
<path d="M13.8138 24H22.2138V22.1H19.3338V9.28H17.5938C16.7538 9.8 15.7738 10.14 14.3938 10.4V11.86H17.0338V22.1H13.8138V24ZM31.62 22.5C30.04 22.5 28.98 21.12 28.74 18.2C29.62 16.94 30.62 16.48 31.48 16.48C33.06 16.48 33.9 17.54 33.9 19.44C33.9 21.34 32.9 22.5 31.62 22.5ZM35.8 10.58C34.96 9.7 33.76 9 32.12 9C29.22 9 26.56 11.26 26.56 16.92C26.56 21.92 28.84 24.26 31.64 24.26C34.04 24.26 36.04 22.36 36.04 19.44C36.04 16.32 34.38 14.8 31.9 14.8C30.84 14.8 29.56 15.44 28.7 16.5C28.8 12.3 30.36 10.88 32.24 10.88C33.1 10.88 34 11.34 34.54 11.98L35.8 10.58Z" fill="white"/>
<path d="M7 30H43.5" stroke="white" stroke-linecap="round"/>
</svg>
