<svg width="40" height="37" viewBox="0 0 40 37" fill="none" xmlns="http://www.w3.org/2000/svg">
<path d="M10.8685 21.5653C10.5027 21.5653 10.1519 21.42 9.89323 21.1613C9.63457 20.9027 9.48926 20.5518 9.48926 20.186V16.3793C9.48926 16.0135 9.63457 15.6626 9.89323 15.404C10.1519 15.1453 10.5027 15 10.8685 15C11.2343 15 11.5852 15.1453 11.8438 15.404C12.1025 15.6626 12.2478 16.0135 12.2478 16.3793V20.186C12.2478 20.5518 12.1025 20.9027 11.8438 21.1613C11.5852 21.42 11.2343 21.5653 10.8685 21.5653Z" fill="#FFB7B7"/>
<path d="M10.8685 36.82C10.5027 36.82 10.1519 36.6747 9.89323 36.4161C9.63457 36.1574 9.48926 35.8066 9.48926 35.4408V31.634C9.48926 31.2682 9.63457 30.9174 9.89323 30.6587C10.1519 30.4001 10.5027 30.2548 10.8685 30.2548C11.2343 30.2548 11.5852 30.4001 11.8438 30.6587C12.1025 30.9174 12.2478 31.2682 12.2478 31.634V35.4408C12.2478 35.8066 12.1025 36.1574 11.8438 36.4161C11.5852 36.6747 11.2343 36.82 10.8685 36.82Z" fill="#FFB7B7"/>
<path d="M20.4271 27.2893H16.6341C16.2683 27.2893 15.9175 27.144 15.6589 26.8853C15.4002 26.6266 15.2549 26.2758 15.2549 25.91C15.2549 25.5442 15.4002 25.1934 15.6589 24.9347C15.9175 24.6761 16.2683 24.5308 16.6341 24.5308H20.4271C20.7929 24.5308 21.1438 24.6761 21.4024 24.9347C21.6611 25.1934 21.8064 25.5442 21.8064 25.91C21.8064 26.2758 21.6611 26.6266 21.4024 26.8853C21.1438 27.144 20.7929 27.2893 20.4271 27.2893Z" fill="#FFB7B7"/>
<path d="M5.17225 27.2893H1.37927C1.01346 27.2893 0.662639 27.144 0.403977 26.8853C0.145314 26.6266 0 26.2758 0 25.91C0 25.5442 0.145314 25.1934 0.403977 24.9347C0.662639 24.6761 1.01346 24.5308 1.37927 24.5308H5.17225C5.53805 24.5308 5.88887 24.6761 6.14753 24.9347C6.4062 25.1934 6.55151 25.5442 6.55151 25.91C6.55151 26.2758 6.4062 26.6266 6.14753 26.8853C5.88887 27.144 5.53805 27.2893 5.17225 27.2893Z" fill="#FFB7B7"/>
<path d="M32.4716 4.51324C32.2201 4.51324 31.979 4.41336 31.8011 4.23555C31.6233 4.05773 31.5234 3.81655 31.5234 3.56508V0.948165C31.5234 0.696696 31.6233 0.455511 31.8011 0.277696C31.979 0.0998804 32.2201 0 32.4716 0C32.7231 0 32.9642 0.0998804 33.1421 0.277696C33.3199 0.455511 33.4198 0.696696 33.4198 0.948165V3.56508C33.4198 3.81655 33.3199 4.05773 33.1421 4.23555C32.9642 4.41336 32.7231 4.51324 32.4716 4.51324Z" fill="#FFB7B7"/>
<path d="M32.4716 15.0001C32.2201 15.0001 31.979 14.9002 31.8011 14.7224C31.6233 14.5445 31.5234 14.3034 31.5234 14.0519V11.435C31.5234 11.1835 31.6233 10.9423 31.8011 10.7645C31.979 10.5867 32.2201 10.4868 32.4716 10.4868C32.7231 10.4868 32.9642 10.5867 33.1421 10.7645C33.3199 10.9423 33.4198 11.1835 33.4198 11.435V14.0519C33.4198 14.3034 33.3199 14.5445 33.1421 14.7224C32.9642 14.9002 32.7231 15.0001 32.4716 15.0001Z" fill="#FFB7B7"/>
<path d="M39.0429 8.44821H36.4355C36.184 8.44821 35.9428 8.3483 35.765 8.17048C35.5872 7.99267 35.4873 7.75151 35.4873 7.50004C35.4873 7.24858 35.5872 7.00739 35.765 6.82958C35.9428 6.65176 36.184 6.55188 36.4355 6.55188H39.0429C39.2944 6.55188 39.5356 6.65176 39.7134 6.82958C39.8912 7.00739 39.9911 7.24858 39.9911 7.50004C39.9911 7.75151 39.8912 7.99267 39.7134 8.17048C39.5356 8.3483 39.2944 8.44821 39.0429 8.44821Z" fill="#FFB7B7"/>
<path d="M28.5556 8.44821H25.9482C25.6967 8.44821 25.4555 8.3483 25.2777 8.17048C25.0999 7.99267 25 7.75151 25 7.50004C25 7.24858 25.0999 7.00739 25.2777 6.82958C25.4555 6.65176 25.6967 6.55188 25.9482 6.55188H28.5556C28.8071 6.55188 29.0483 6.65176 29.2261 6.82958C29.4039 7.00739 29.5038 7.24858 29.5038 7.50004C29.5038 7.75151 29.4039 7.99267 29.2261 8.17048C29.0483 8.3483 28.8071 8.44821 28.5556 8.44821Z" fill="#FFB7B7"/>
</svg>
