<svg width="40" height="40" viewBox="0 0 40 40" fill="none" xmlns="http://www.w3.org/2000/svg">
<circle cx="20" cy="20" r="20" fill="#FFB7B7"/>
<path d="M19.873 18.875C20.6478 18.875 21.2533 18.6602 21.6895 18.2305C22.1257 17.7943 22.3438 17.2767 22.3438 16.6777C22.3438 16.1569 22.1354 15.6784 21.7188 15.2422C21.3021 14.806 20.6673 14.5879 19.8145 14.5879C18.9681 14.5879 18.3561 14.806 17.9785 15.2422C17.6009 15.6784 17.4121 16.1895 17.4121 16.7754C17.4121 17.4329 17.6562 17.9473 18.1445 18.3184C18.6328 18.6895 19.209 18.875 19.873 18.875ZM19.9805 25.7988C20.7943 25.7988 21.4681 25.5807 22.002 25.1445C22.5423 24.7018 22.8125 24.0443 22.8125 23.1719C22.8125 22.2669 22.5358 21.5801 21.9824 21.1113C21.429 20.6426 20.7194 20.4082 19.8535 20.4082C19.0137 20.4082 18.3268 20.6491 17.793 21.1309C17.2656 21.6061 17.002 22.2669 17.002 23.1133C17.002 23.8424 17.2428 24.474 17.7246 25.0078C18.2129 25.5352 18.9648 25.7988 19.9805 25.7988ZM17.4805 19.5488C16.9922 19.3405 16.6113 19.0964 16.3379 18.8164C15.8236 18.2956 15.5664 17.6185 15.5664 16.7852C15.5664 15.7435 15.944 14.8483 16.6992 14.0996C17.4544 13.3509 18.5254 12.9766 19.9121 12.9766C21.2533 12.9766 22.3047 13.3314 23.0664 14.041C23.8281 14.7441 24.209 15.5677 24.209 16.5117C24.209 17.3841 23.9876 18.0905 23.5449 18.6309C23.2975 18.9368 22.9134 19.2363 22.3926 19.5293C22.972 19.7962 23.4277 20.1022 23.7598 20.4473C24.3783 21.0983 24.6875 21.9447 24.6875 22.9863C24.6875 24.2168 24.2741 25.2617 23.4473 26.1211C22.6204 26.974 21.4518 27.4004 19.9414 27.4004C18.5807 27.4004 17.4284 27.0326 16.4844 26.2969C15.5469 25.5547 15.0781 24.4805 15.0781 23.0742C15.0781 22.2474 15.2799 21.5345 15.6836 20.9355C16.0872 20.3301 16.6862 19.8678 17.4805 19.5488Z" fill="white"/>
</svg>
