<svg width="40" height="40" viewBox="0 0 40 40" fill="none" xmlns="http://www.w3.org/2000/svg">
<circle cx="20" cy="20" r="20" fill="#FFB7B7"/>
<path d="M17.0898 23.6211C17.1419 24.5911 17.5163 25.2617 18.2129 25.6328C18.571 25.8281 18.9746 25.9258 19.4238 25.9258C20.2637 25.9258 20.9798 25.5775 21.5723 24.8809C22.1647 24.1777 22.5846 22.7552 22.832 20.6133C22.4414 21.2318 21.9564 21.668 21.377 21.9219C20.804 22.1693 20.1855 22.293 19.5215 22.293C18.1738 22.293 17.1061 21.873 16.3184 21.0332C15.5371 20.1934 15.1465 19.1126 15.1465 17.791C15.1465 16.5215 15.5339 15.4049 16.3086 14.4414C17.0833 13.4779 18.2259 12.9961 19.7363 12.9961C21.7741 12.9961 23.1803 13.9141 23.9551 15.75C24.3848 16.7591 24.5996 18.0221 24.5996 19.5391C24.5996 21.2513 24.3424 22.7682 23.8281 24.0898C22.9753 26.2904 21.5299 27.3906 19.4922 27.3906C18.125 27.3906 17.0866 27.0326 16.377 26.3164C15.6673 25.6003 15.3125 24.7018 15.3125 23.6211H17.0898ZM19.7559 20.75C20.4525 20.75 21.0872 20.5221 21.6602 20.0664C22.2396 19.6042 22.5293 18.8001 22.5293 17.6543C22.5293 16.6257 22.2689 15.8607 21.748 15.3594C21.2337 14.8516 20.5762 14.5977 19.7754 14.5977C18.916 14.5977 18.2324 14.8874 17.7246 15.4668C17.2233 16.0397 16.9727 16.8079 16.9727 17.7715C16.9727 18.6829 17.194 19.4089 17.6367 19.9492C18.0794 20.4831 18.7858 20.75 19.7559 20.75Z" fill="white"/>
</svg>
