<svg width="102" height="102" viewBox="0 0 102 102" fill="none" xmlns="http://www.w3.org/2000/svg">
<path d="M101.949 0H0V102H101.949V0Z" fill="#ECF7FC"/>
<path d="M30.6323 48.1276H34.4322V32.9287H38.2294V48.1276H42.0265V32.9287H45.8236V48.1276H49.6207V29.1296H30.6323V48.1276Z" fill="#00477B"/>
<path d="M8.9209 48.1276H27.9093V44.3285H12.718V32.9287H27.9093V29.1296H8.9209V48.1276Z" fill="#00477B"/>
<path fill-rule="evenodd" clip-rule="evenodd" d="M43.7545 66.1834L45.3594 65.5563C46.0592 67.2266 46.4836 68.3149 46.6382 68.8295L44.9715 69.3188C44.6241 68.2519 44.2178 67.2052 43.7545 66.1834ZM41.2924 66.4814L43.0491 66.0877C43.4651 67.4723 43.7964 68.8809 44.0412 70.3058L42.2649 70.587C42.0109 69.2028 41.6863 67.8325 41.2924 66.4814ZM38.9793 66.5208L40.795 66.4617C40.9823 68.5764 41.0648 70.2851 41.0423 71.588L39.266 71.5065C39.3254 69.8393 39.2294 68.1702 38.9793 66.5208ZM36.5201 68.208C35.0159 69.216 33.4396 70.1117 31.8039 70.8878L30.8848 69.0376C31.6493 68.7198 32.307 68.4358 32.8522 68.194V63.1323H31.4807V61.1808H32.855V56.9037H31.4807V54.955H36.1603V56.9037H34.755V61.1808H36.017V63.1323H34.755V67.1141L35.5364 66.5517L36.6269 67.9577C36.7646 67.4319 36.8911 66.8639 37.0063 66.2705L38.9175 66.802C38.4725 68.8049 37.6306 70.6982 36.4414 72.3698C36.0358 71.8812 35.5358 71.4795 34.9714 71.1887C35.5081 70.4761 35.9564 69.7008 36.3065 68.8801C36.3586 68.6532 36.4301 68.4312 36.5201 68.2164V68.208ZM41.6353 60.579H38.7882V59.5386H41.6325L41.6353 60.579ZM41.6353 57.8233H38.7882V56.915C38.7858 56.8866 38.7894 56.8581 38.7989 56.8313C38.8084 56.8045 38.8235 56.7801 38.8432 56.7596C38.8628 56.7391 38.8867 56.723 38.9131 56.7125C38.9395 56.7019 38.9678 56.6972 38.9962 56.6985H41.6325L41.6353 57.8233ZM38.7882 63.3489V62.3028H41.6325V63.3489H38.7882ZM36.8967 64.08V64.8673C36.8967 65.1064 37.0063 65.2245 37.2255 65.2245H46.5454C46.7113 65.2245 46.7928 65.2779 46.7928 65.3819C46.8462 67.5247 46.8237 68.911 46.7338 69.5381C46.6714 69.9816 46.4753 70.3956 46.1716 70.7248C45.9766 70.877 45.7328 70.953 45.4859 70.9385C44.7725 70.8788 44.0638 70.7736 43.3639 70.6235L43.5578 72.6932C45.6189 72.8506 46.9417 72.6791 47.5263 72.1786C48.0327 71.7509 48.3606 71.1489 48.4454 70.4914C48.6478 69.3366 48.7368 67.1094 48.7124 63.81C48.7255 63.5213 48.6047 63.3695 48.3498 63.3545H43.5269V62.3028H47.7821V60.5875H43.5269V59.547H47.6894V57.8317H43.5269V56.7069H48.1475V54.8341H37.3211C37.2629 54.8263 37.2037 54.8323 37.1482 54.8515C37.0928 54.8707 37.0425 54.9026 37.0016 54.9447C36.9606 54.9868 36.9301 55.0378 36.9123 55.0938C36.8946 55.1498 36.8902 55.2091 36.8995 55.2671L36.8967 64.08ZM17.765 66.2846V72.5526H19.7324V66.2846H23.3862C23.4986 66.2846 23.5576 66.3408 23.5576 66.4449V69.6365C23.5576 69.8868 23.3862 70.0836 23.0433 70.2298C22.5683 70.4014 21.6661 70.2861 20.331 69.8924L20.3873 72.142C22.306 72.5169 23.7113 72.4776 24.6031 72.0239C25.214 71.709 25.5194 71.2562 25.5194 70.6657V64.8252C25.5284 64.7583 25.5217 64.6903 25.4999 64.6264C25.4782 64.5626 25.4419 64.5046 25.3939 64.4572C25.346 64.4098 25.2877 64.3741 25.2236 64.3531C25.1595 64.332 25.0915 64.3261 25.0247 64.3359H19.7352V62.8399H17.7678V64.3359H15.0752C15.7727 63.6929 16.4298 63.0073 17.0427 62.2831C17.0583 62.2439 17.0846 62.2098 17.1185 62.1847H26.6746V60.236H18.5519C18.7431 59.9182 18.9539 59.6004 19.1843 59.2686L17.8071 58.3407C18.1107 58.2226 18.4704 58.1073 18.878 57.9892C20.688 58.5122 22.6301 59.1786 24.7212 59.9801L25.2552 58.0848C24.071 57.6424 22.9252 57.2224 21.8178 56.825C22.4446 56.5438 23.1163 56.2232 23.8415 55.8802L22.9646 54.0664C21.6768 54.7606 20.3499 55.3793 18.9904 55.9195C16.6474 55.1878 14.2525 54.6341 11.8262 54.2633L11.3877 56.1951C12.6931 56.3919 13.9876 56.6547 15.2664 56.9825C13.4382 57.3678 11.5778 57.5797 9.70981 57.6152L10.1455 59.5667C12.2329 59.5342 14.3089 59.251 16.3288 58.7231C16.6688 58.6275 17.0511 58.5319 17.4727 58.4419C17.037 59.1083 16.6295 59.7073 16.2669 60.2332H9.55804V62.1819H14.6593C13.4533 63.3438 12.1191 64.3646 10.6823 65.2245C10.0977 65.5057 9.51027 65.8065 8.92285 66.1074L10.0134 67.8228C10.7132 67.4572 11.4187 67.0551 12.1157 66.622V71.9817H14.0831V66.4449C14.0824 66.4243 14.0857 66.4038 14.093 66.3846C14.1002 66.3654 14.1112 66.3478 14.1254 66.3329C14.1395 66.3179 14.1565 66.306 14.1753 66.2977C14.1941 66.2894 14.2143 66.2849 14.2349 66.2846H17.765Z" fill="#00477B"/>
<path d="M52.3364 48.1276H71.3248V44.3285H56.1335V40.5295H71.3248V36.7277H56.1335V32.9287H71.3248V29.1296H52.3364V48.1276Z" fill="#00477B"/>
<path d="M93.0279 29.1296H74.0396V32.9287H89.2308V36.7277H74.0396V48.1276H77.8367V40.5295H81.6338L88.056 48.1276H93.0279L86.6085 40.5295H93.0279V29.1296Z" fill="#00477B"/>
<path d="M66.6333 65.2245C67.2902 65.2385 67.9474 65.2103 68.6007 65.1401C68.5412 65.7945 68.5159 66.4515 68.5248 67.1085V70.8485C68.5216 71.5246 68.5535 72.2004 68.6204 72.8731H66.4899V72.128H56.2313V72.8534H54.1795C54.2358 72.2742 54.2751 71.5712 54.2751 70.8485V66.9595C54.2751 66.3802 54.2554 65.8037 54.2161 65.1626C54.6011 65.202 55.3403 65.2245 56.1835 65.2245H58.8311C58.8676 64.9152 58.8676 64.9151 58.8873 64.544H54.736C54.0558 64.5363 53.3758 64.5767 52.7012 64.6649V62.809C53.3756 62.8982 54.0561 62.933 54.736 62.913H68.4349C68.9934 62.928 69.5521 62.8931 70.1044 62.809V64.648C69.3781 64.5717 68.648 64.5379 67.9177 64.5468H63.7018V65.2273L66.6333 65.2245ZM59.916 57.8064C60.3338 57.8289 60.7528 57.8005 61.1639 57.722V58.9846C60.627 58.9424 60.4331 58.9199 60.0396 58.9199H59.3089C59.8702 59.4051 60.5136 59.786 61.2088 60.0447C60.9156 60.2779 60.6686 60.564 60.4809 60.8883C60.9025 60.8658 60.9587 60.8659 61.2875 60.8265V62.3956C60.7768 62.3426 60.2636 62.3154 59.7501 62.314H54.7164C54.2948 62.314 53.7945 62.3337 53.2183 62.3534C53.2577 61.9625 53.2773 61.3833 53.2773 60.6662V55.8295C53.2773 55.0872 53.2577 54.6541 53.2183 53.9286C53.7465 53.9984 54.2793 54.0266 54.8119 54.013H59.4747C60.0843 54.0159 60.6935 53.9812 61.2988 53.9089V55.5005C60.5483 55.4584 60.242 55.4387 59.7052 55.4387H57.6197C57.5438 55.6046 57.5073 55.7199 57.3921 56.0011H59.559C59.9832 56.0144 60.4076 55.9871 60.8266 55.9195V57.2215C60.4074 57.1562 59.9831 57.129 59.559 57.1399H59.0615C59.0222 57.4886 59.0025 57.6152 58.966 57.8008L59.916 57.8064ZM56.3465 58.9312C56.0258 58.927 55.7053 58.9486 55.3881 58.9959V57.7473C55.6226 57.7834 55.8592 57.804 56.0964 57.8092C55.8516 57.5187 55.5516 57.2798 55.2138 57.1062C55.7397 56.6646 56.1433 56.0953 56.3859 55.4527H54.9665V60.8883H55.9643C55.7618 60.568 55.5083 60.2831 55.2138 60.0447C56.1751 59.7776 56.6725 59.4823 57.1335 58.9199L56.3465 58.9312ZM57.6506 57.8064C57.6703 57.6208 57.69 57.5252 57.7293 57.1456H56.7765C56.6125 57.3888 56.419 57.6108 56.2004 57.8064H57.6394H57.6506ZM57.69 68.7592C57.3362 68.2805 56.9015 67.8675 56.4055 67.5388C57.3836 67.415 58.0554 67.0832 58.4376 66.5067H56.2313V68.7564L57.69 68.7592ZM56.2313 70.0611V70.6601H66.4984V70.0611H56.2313ZM59.9553 60.8855C59.318 60.5026 58.763 59.997 58.3224 59.398C57.8946 60.0282 57.3145 60.5399 56.636 60.8855H59.9553ZM66.4984 68.7592V66.5095H65.02C65.444 66.7774 65.9123 66.9678 66.4028 67.0719C66.2089 68.1658 65.9222 68.3121 64.0026 68.3121C62.3527 68.3121 61.9115 68.1068 61.9115 67.3194V66.5152H60.3966C60.0705 67.5669 59.2723 68.2924 57.9401 68.7648L66.4984 68.7592ZM61.9115 64.5411H60.6833C60.6636 64.9939 60.6636 65.0557 60.6439 65.2217H61.9115V64.5411ZM64.1937 55.4471C64.1744 56.0244 63.9338 56.5721 63.522 56.9768C63.2445 57.2527 62.9199 57.4765 62.5635 57.6377H67.1898C67.5814 57.6586 67.9741 57.6312 68.359 57.5561L69.2415 58.5066C69.1094 58.6197 68.9871 58.7439 68.8761 58.8778C68.3253 59.5264 67.7009 60.1086 67.0155 60.6128C68.0623 60.9309 69.146 61.1115 70.2393 61.1499C69.8896 61.6425 69.6175 62.1859 69.4326 62.7612C67.6479 62.4518 66.5743 62.1425 65.4416 61.5857C64.4225 62.1041 63.3381 62.4824 62.2178 62.7105C62.0424 62.1704 61.7977 61.6552 61.4899 61.178C62.3212 61.0858 63.139 60.8971 63.9267 60.6156C63.3427 60.1552 62.8369 59.6035 62.4286 58.9818C62.1398 58.977 61.851 58.9977 61.5658 59.0437V57.5786C61.7355 57.6175 61.9088 57.6382 62.0829 57.6405C61.874 57.1776 61.5815 56.7572 61.2201 56.4004C61.6813 56.2972 62.0983 56.0512 62.4118 55.6974C62.6504 55.3342 62.7828 54.9115 62.794 54.477C62.7916 54.2889 62.7785 54.1011 62.7547 53.9146C63.1938 53.9788 63.6376 54.0061 64.0813 53.9961H66.3044C66.7351 54.0056 67.1657 53.9784 67.5917 53.9146C67.5287 54.2547 67.5033 54.6008 67.5158 54.9466V55.7114C67.5158 55.9926 67.5523 56.0208 68.0779 56.0208C68.7497 56.0208 68.7862 55.9589 68.8452 54.7188C69.2811 54.9693 69.7563 55.1443 70.2505 55.2362C70.1746 56.2092 70.0004 56.7238 69.6884 56.9937C69.3764 57.2637 68.9604 57.3227 67.5776 57.3227C66.1948 57.3227 65.9278 57.199 65.9278 56.3526V55.464L64.1937 55.4471ZM63.6962 66.6951C63.6962 67.0466 63.7918 67.1085 64.3483 67.1085C64.9048 67.1085 64.9638 67.0467 65.0003 66.4899H63.6962V66.6951ZM64.1572 58.9256C64.5027 59.3225 64.9193 59.6515 65.3854 59.8957C65.8933 59.6164 66.375 59.2917 66.8244 58.9256H64.1572Z" fill="#00477B"/>
<path d="M90.5209 66.3492C90.5209 67.3559 90.5406 67.6428 90.58 68.1349C90.1668 68.0955 89.8942 68.0955 89.363 68.073C90.2743 69.1799 91.4194 70.0711 92.716 70.6825C92.2721 71.2351 91.8904 71.8348 91.5777 72.471C90.0601 71.5786 88.725 70.407 87.6429 69.0178L88.9161 68.073H86.6226V70.9919C86.6226 71.6077 86.4456 72.0604 86.1139 72.2854C85.7823 72.5103 85.3298 72.6369 84.3882 72.6369C83.6828 72.6369 82.9829 72.6144 82.1735 72.5525C82.14 71.8501 81.9741 71.1602 81.6844 70.5194C82.3891 70.6498 83.1039 70.7185 83.8205 70.7247C84.4669 70.7247 84.5653 70.6629 84.5653 70.2298V68.073H82.4292C82.0358 68.073 81.9205 68.073 81.5467 68.0955L82.8396 68.8547C81.9191 70.2799 80.7191 71.5035 79.3123 72.4513C78.9413 71.8843 78.4854 71.3778 77.9604 70.9497C79.5287 69.9852 80.3129 69.2456 80.9986 68.1152C80.901 68.1298 80.8023 68.1363 80.7035 68.1349C80.7429 67.6231 80.7626 67.2912 80.7626 66.3689V64.3752C80.3916 64.6227 80.2004 64.7464 79.5681 65.0951C79.4464 64.6935 79.2952 64.3016 79.1156 63.9225C78.961 66.0399 78.6855 67.6006 78.2162 68.9841C77.8108 70.2701 77.1798 71.4737 76.3527 72.5385C75.917 71.9075 75.3882 71.3462 74.7844 70.8738C76.0998 69.2315 76.6479 67.7524 76.9795 64.9348C76.4174 65.306 75.6473 65.7587 75.1976 66.0034C75.0649 66.0651 74.9395 66.1415 74.8238 66.2311L74.2026 64.0462C74.9081 63.9028 75.9677 63.4304 77.1425 62.7527C77.1819 62.0553 77.1819 61.746 77.2015 60.8011L75.7962 61.7882C75.4702 60.4571 74.9763 59.173 74.3263 57.9666L75.8159 57.0218C76.3849 58.0599 76.8527 59.1503 77.2128 60.2781V59.5582C77.2128 59.2095 77.2128 58.0398 77.1931 57.3817C77.1931 55.7789 77.1931 55.5539 77.0947 54.8116C77.8955 54.8975 78.701 54.9323 79.5062 54.9156H83.4242V54.7722C83.4375 54.3594 83.4055 53.9463 83.3286 53.5405H85.7261C85.6562 53.9473 85.6233 54.3595 85.6277 54.7722V54.9353H90.2736C91.0729 54.9588 91.8728 54.9175 92.6654 54.8116V56.8671C91.9487 56.8036 91.2292 56.7764 90.5097 56.7856H86.2292C86.0718 57.3002 86.0127 57.5055 85.8947 57.8317H90.3917C91.0659 57.8472 91.7404 57.8133 92.4097 57.7304V59.6988C91.7669 59.6144 91.1184 59.5806 90.4704 59.5976H87.834C88.2242 60.1969 88.7071 60.7303 89.2646 61.178C89.7939 60.7527 90.2456 60.239 90.5996 59.6595L92.1651 60.6859C91.6882 61.1925 91.1844 61.6731 90.6558 62.1256C91.4072 62.5408 92.2054 62.8646 93.0336 63.0901C92.6658 63.6856 92.382 64.329 92.1904 65.0023C91.6147 64.7725 91.0583 64.497 90.5266 64.1784L90.5209 66.3492ZM79.2308 59.6904C79.2308 60.9249 79.2111 61.8697 79.1521 63.1014C79.7484 62.819 80.3136 62.475 80.8384 62.075C80.4251 61.6099 79.9581 61.1955 79.4472 60.8405L80.6614 59.7719C81.1421 60.1573 81.5948 60.5764 82.0161 61.0261C82.4303 60.5913 82.7916 60.109 83.0925 59.5892H81.4455C80.8439 59.5761 80.242 59.6034 79.6439 59.6707V57.7473C80.2683 57.8143 80.8964 57.8415 81.5242 57.8288H83.9357C84.073 57.4892 84.1839 57.1395 84.2674 56.7828H79.2308V59.6904ZM82.6822 64.1502H88.5591V63.287H82.6822V64.1502ZM82.6822 66.4926H88.5591V65.6209H82.6822V66.4926ZM87.3646 61.6447C86.7827 61.0258 86.2821 60.335 85.875 59.5892H85.1302C84.7587 60.3143 84.3192 61.0026 83.8177 61.6447H87.3646Z" fill="#00477B"/>
</svg>
