<svg width="89" height="89" viewBox="0 0 89 89" fill="none" xmlns="http://www.w3.org/2000/svg">
<circle cx="44.5" cy="44.5" r="44" fill="white" stroke="#505050"/>
<path d="M66.0368 42.1772C66.5685 43.6477 66.8411 45.1982 66.8427 46.7606C66.8427 56.1961 57.04 63.8449 44.9521 63.8449C32.8641 63.8449 23.0554 56.1961 23.0554 46.7606C23.06 45.1984 23.3325 43.6484 23.8613 42.1772C20.8995 43.0442 18.2996 44.8404 16.4504 47.2972C14.6011 49.7541 13.6017 52.7397 13.6016 55.8077C13.6016 59.5765 15.1083 63.1908 17.7903 65.8557C20.4722 68.5206 24.1098 70.0177 27.9027 70.0177H61.9955C63.8761 70.0193 65.7385 69.6523 67.4761 68.9378C69.2138 68.2232 70.7926 67.1752 72.122 65.8536C73.4515 64.532 74.5056 62.9629 75.224 61.236C75.9424 59.5091 76.311 57.6584 76.3086 55.7898C76.3038 52.7233 75.3009 49.7406 73.4496 47.2872C71.5983 44.8337 68.9979 43.0412 66.0368 42.1772Z" fill="white"/>
<path d="M45.0031 64C57.702 64 68 56.4423 68 47.1192C67.9984 45.5754 67.712 44.0433 67.1534 42.5904C65.776 42.2035 64.3461 42.0047 62.9078 42H27.0922C25.654 42.0051 24.224 42.2039 22.8466 42.5904C22.291 44.0441 22.0048 45.5756 22 47.1192C22 56.4423 32.298 64 45.0031 64Z" fill="white"/>
<path d="M13.6016 55.7902C13.6016 52.0214 15.1083 48.407 17.7903 45.7421C20.4722 43.0772 24.1098 41.5801 27.9027 41.5801H61.9955C63.8745 41.5785 65.7355 41.9449 67.472 42.6584C69.2084 43.3718 70.7864 44.4182 72.1157 45.7379C73.4449 47.0575 74.4994 48.6246 75.2188 50.3494C75.9383 52.0743 76.3086 53.9231 76.3086 55.7902" stroke="#505050" stroke-width="1.3" stroke-linecap="round" stroke-linejoin="round"/>
<path d="M68.8688 41.0419C64.6591 39.0819 59.1383 39.787 59.1383 39.787C59.1383 39.787 59.5953 40.7671 60.2027 42.1295L31.4863 41.5797C31.5705 41.8307 31.6547 42.0757 31.745 42.3267L32.4245 44.2329C36.971 56.8833 38.0295 59.5485 40.7838 59.2796C42.8165 59.0824 43.1353 57.3853 43.5262 54.3974C43.6465 53.5071 43.7667 52.6048 43.9652 51.6606C44.759 48.0752 46.0701 46.3602 48.0968 46.3602C50.1235 46.3602 51.4345 48.0454 52.2283 51.6606C52.4328 52.5869 52.5531 53.5071 52.6673 54.3974C53.0582 57.3853 53.377 59.0824 55.4097 59.2796C57.1417 59.4529 57.9716 58.5805 60.1667 53.1127L61.4236 49.7245C61.7002 48.9656 62.0671 47.5913 62.5602 47.5913C63.6968 47.5913 62.5602 51.1766 64.2681 51.1766C65.7235 51.2065 65.9039 48.3203 66.0242 46.5216C66.1445 44.7229 66.4572 44.2509 67.8765 44.3524C69.7829 44.4839 71.0218 47.9378 73.1387 46.5873C74.9067 45.446 71.6532 42.3207 68.8688 41.0419Z" fill="#FFB7B7"/>
<path d="M58.5197 48.8282C59.1211 47.1729 59.8247 45.2428 60.6126 43.0497L61.3041 41.1316C64.0766 33.417 64.4494 27.298 62.3686 23.4437C61.8519 22.4548 61.1241 21.5899 60.2359 20.9097C59.3477 20.2295 58.3207 19.7504 57.2267 19.5058C54.8212 18.9082 52.8546 19.2906 50.6114 19.7447C46.9052 20.661 43.0295 20.661 39.3233 19.7447C37.0681 19.2906 35.1136 18.9022 32.708 19.5058C31.6148 19.7504 30.5887 20.2296 29.7015 20.9099C28.8143 21.5901 28.0875 22.455 27.5722 23.4437C25.4913 27.298 25.8582 33.417 28.6306 41.1316L29.3162 43.0319C33.8627 55.6883 34.9211 58.3534 37.6755 58.0845C39.7082 57.8873 40.027 56.1901 40.4179 53.2023C40.5321 52.312 40.6524 51.4097 40.8569 50.4655C41.6507 46.8801 42.9617 45.1651 44.9884 45.1651C47.0151 45.1651 48.3261 46.8503 49.12 50.4655C49.3184 51.3917 49.4387 52.312 49.559 53.2023C49.9499 56.1901 50.2686 57.8873 52.3013 58.0845C54.0333 58.2577 55.176 57.4092 57.365 51.9415L58.5197 48.8282Z" fill="white"/>
<path d="M45.0364 27.0111C43.5806 27.0034 42.1513 26.6227 40.8868 25.9056C40.7527 25.8218 40.6573 25.6888 40.6212 25.5356C40.5852 25.3823 40.6115 25.2211 40.6944 25.0869C40.7362 25.0201 40.7908 24.9622 40.8552 24.9164C40.9195 24.8706 40.9923 24.8379 41.0694 24.8201C41.1465 24.8023 41.2264 24.7999 41.3044 24.8129C41.3825 24.8259 41.4572 24.854 41.5243 24.8957C42.5642 25.4908 43.7432 25.8041 44.9432 25.8041C46.1433 25.8041 47.3223 25.4908 48.3622 24.8957C48.4963 24.8407 48.646 24.8359 48.7835 24.882C48.9211 24.9281 49.0372 25.022 49.1104 25.1465C49.1837 25.271 49.2092 25.4176 49.1822 25.5593C49.1552 25.701 49.0776 25.8283 48.9635 25.9176C47.7794 26.6313 46.4214 27.0094 45.0364 27.0111Z" fill="#505050"/>
<path d="M37.2175 59.3037C33.8256 59.3037 32.5026 55.6107 28.1305 43.4383L27.4449 41.5321C24.5522 33.4949 24.2094 27.0412 26.4526 22.8761C27.0549 21.7445 27.8941 20.7542 28.9138 19.9719C29.9335 19.1896 31.1101 18.6333 32.3642 18.3406C35.0525 17.6773 37.2235 18.1136 39.5268 18.5737C43.0802 19.4591 46.7985 19.4591 50.3519 18.5737C52.6492 18.1136 54.8202 17.6773 57.5144 18.3406C58.7675 18.6341 59.9428 19.1907 60.9615 19.973C61.9801 20.7553 62.8184 21.7452 63.4201 22.8761C65.6633 27.0591 65.3204 33.4949 62.4278 41.5321L61.7422 43.4563C60.9484 45.6613 60.2567 47.5794 59.6433 49.2406C59.5883 49.3896 59.476 49.5108 59.3311 49.5775C59.1861 49.6442 59.0205 49.6509 58.8705 49.5962C58.7206 49.5416 58.5987 49.4299 58.5316 49.2859C58.4645 49.1419 58.4577 48.9773 58.5127 48.8284C59.1141 47.1671 59.8177 45.2429 60.6056 43.0499L61.2971 41.1317C64.0696 33.4172 64.4424 27.2981 62.3616 23.4439C61.8443 22.4548 61.1163 21.5896 60.2283 20.9085C59.3403 20.2274 58.3137 19.7468 57.2197 19.5C54.8142 18.9024 52.8476 19.2908 50.6044 19.7449C46.8982 20.6612 43.0225 20.6612 39.3163 19.7449C37.0611 19.2908 35.1066 18.9024 32.701 19.5C31.6079 19.7468 30.582 20.2275 29.695 20.9087C28.808 21.5898 28.0812 22.455 27.5652 23.4439C25.4843 27.2981 25.8512 33.4172 28.6236 41.1317L29.3092 43.032C33.8497 55.6884 34.9081 58.3535 37.6685 58.0846C39.7012 57.8874 40.0199 56.1903 40.4109 53.2025C40.5251 52.3121 40.6454 51.4098 40.8499 50.4657C41.6437 46.8803 42.9547 45.1653 44.9814 45.1653C47.0081 45.1653 48.3192 46.8504 49.113 50.4657C49.3115 51.3919 49.4317 52.3121 49.552 53.2025C49.9429 56.1903 50.2616 57.8874 52.2943 58.0846C54.0263 58.2579 55.169 57.4093 57.358 51.9357C57.4181 51.7893 57.5341 51.6725 57.6806 51.6109C57.8271 51.5493 57.9923 51.5479 58.1398 51.607C58.2868 51.6656 58.4046 51.7794 58.4677 51.9237C58.5307 52.068 58.5339 52.2312 58.4766 52.3778C56.5161 57.2779 55.0728 59.5486 52.1741 59.2738C49.0949 58.975 48.7161 56.1186 48.3552 53.3579C48.247 52.4914 48.1267 51.5652 47.9343 50.7227C47.0803 46.8086 45.8414 46.3604 44.9814 46.3604C44.1214 46.3604 42.8826 46.8086 42.0226 50.7227C41.8301 51.5951 41.7159 52.5153 41.6016 53.3579C41.2408 56.1186 40.8679 58.975 37.7888 59.2738C37.5783 59.2917 37.4039 59.3037 37.2175 59.3037Z" fill="#505050"/>
<path d="M74.125 47.1788C73.8844 46.9697 73.5236 47.0115 73.4574 47.3282C73.1327 48.7564 73.1748 51.6964 74.0588 52.3059C75.3217 53.1365 76.6568 52.5988 76.9515 51.308C77.2221 50.2384 75.6104 48.4935 74.125 47.1788Z" fill="#FFB7B7"/>
</svg>
