<svg width="89" height="89" viewBox="0 0 89 89" fill="none" xmlns="http://www.w3.org/2000/svg">
<circle cx="44.5" cy="44.5" r="44" fill="white" stroke="#505050"/>
<path d="M63.7975 43.6851C62.3966 43.6851 58.7137 46.204 53.6299 45.5206C47.0435 44.6283 42.9314 43.4987 36.6501 46.5768C31.9447 48.8811 26.0306 44.0069 24.4377 43.8545C24.0518 43.7869 23.6587 43.7698 23.2684 43.8036C16.3996 44.9332 14.5469 50.7223 14.5469 56.5678C14.5469 60.1299 15.9621 63.546 18.4811 66.0648C21.0002 68.5835 24.4169 69.9985 27.9794 69.9985H60.0016C63.5641 69.9985 66.9807 68.5835 69.4998 66.0648C72.0189 63.546 73.4341 60.1299 73.4341 56.5678C73.4341 50.4681 71.5982 43.9336 63.7975 43.6851Z" fill="#FFB7B7"/>
<path d="M14.5645 53.6989C14.5645 46.2776 22.6477 39.6978 30.6688 46.5995" stroke="#505050" stroke-width="1.3" stroke-linecap="round" stroke-linejoin="round"/>
<path d="M73.4344 53.716C73.4344 46.3003 65.3512 39.7148 57.3301 46.6165" stroke="#505050" stroke-width="1.3" stroke-linecap="round" stroke-linejoin="round"/>
<path d="M56.7366 47.1361C57.3015 45.5716 57.9568 43.7473 58.7024 41.6802L59.3519 39.8616C61.956 32.5702 62.3005 26.7924 60.3461 23.1439C59.862 22.2094 59.1794 21.392 58.3461 20.749C57.5128 20.1061 56.549 19.6531 55.5222 19.4219C53.2627 18.8571 51.41 19.2186 49.3087 19.6478C45.8285 20.5215 42.1863 20.5215 38.7061 19.6478C36.5822 19.2186 34.7521 18.8514 32.4926 19.4219C31.4651 19.6531 30.5004 20.106 29.6662 20.7489C28.8319 21.3918 28.1483 22.2092 27.663 23.1439C25.7086 26.7924 26.0588 32.5702 28.6628 39.8616L29.3068 41.6632C33.5715 53.6198 34.5657 56.1444 37.1528 55.8903C39.062 55.6982 39.3613 54.0942 39.7285 51.2703C39.8415 50.4287 39.9544 49.5759 40.1408 48.6892C40.8865 45.2666 42.1179 43.6739 44.0215 43.6739C45.9251 43.6739 47.1565 45.2666 47.9021 48.6892C48.0941 49.559 48.2072 50.4287 48.3145 51.2703C48.6817 54.0942 48.981 55.6982 50.8903 55.8903C52.5171 56.0484 53.5903 55.2464 55.6521 50.0786L56.7366 47.1361Z" fill="white"/>
<path d="M44.0787 26.5156C42.7134 26.5109 41.3726 26.1529 40.1867 25.4764C40.1236 25.4372 40.0688 25.3858 40.0255 25.3254C39.9822 25.265 39.9513 25.1966 39.9345 25.1241C39.9177 25.0517 39.9154 24.9768 39.9277 24.9035C39.9399 24.8301 39.9665 24.76 40.0059 24.697C40.0851 24.571 40.2108 24.4814 40.3557 24.4475C40.5006 24.4137 40.653 24.4383 40.7798 24.5162C41.7567 25.0782 42.864 25.3739 43.9911 25.3739C45.1181 25.3739 46.2254 25.0782 47.2023 24.5162C47.2662 24.4697 47.3393 24.4372 47.4166 24.4206C47.4938 24.4041 47.5737 24.4041 47.6511 24.4204C47.7284 24.4367 47.8015 24.469 47.8655 24.5153C47.9296 24.5616 47.9832 24.6208 48.0229 24.6891C48.0627 24.7574 48.0876 24.8333 48.0962 24.9119C48.1047 24.9904 48.0967 25.0699 48.0726 25.1452C48.0485 25.2204 48.0088 25.2898 47.9562 25.3488C47.9037 25.4078 47.8392 25.4551 47.7672 25.4876C46.6539 26.1589 45.3787 26.5143 44.0787 26.5156Z" fill="#505050"/>
<path d="M36.7463 57.0368C33.5548 57.0368 32.3121 53.5464 28.2055 42.0417L27.5672 40.24C24.8502 32.6436 24.5283 26.5439 26.6353 22.6129C27.198 21.5416 27.9845 20.6039 28.9416 19.8633C29.8987 19.1226 31.0039 18.5965 32.1822 18.3206C34.7128 17.6937 36.752 18.106 38.9098 18.5408C42.2473 19.3777 45.7398 19.3777 49.0774 18.5408C51.2408 18.106 53.28 17.6937 55.8049 18.3206C56.9834 18.5979 58.0888 19.1244 59.0466 19.8648C60.0044 20.6053 60.7924 21.5424 61.3575 22.6129C63.4645 26.5665 63.1425 32.6436 60.4255 40.24L59.7759 42.0586C59.0302 44.1427 58.3863 45.9556 57.8045 47.5257C57.7836 47.6009 57.7473 47.671 57.6979 47.7315C57.6485 47.792 57.5872 47.8416 57.5177 47.8772C57.4481 47.9128 57.372 47.9335 57.294 47.9382C57.2161 47.9429 57.138 47.9313 57.0648 47.9043C56.9915 47.8773 56.9246 47.8353 56.8684 47.7812C56.8121 47.727 56.7677 47.6618 56.738 47.5896C56.7082 47.5174 56.6938 47.4398 56.6956 47.3617C56.6973 47.2836 56.7152 47.2068 56.7482 47.136C57.3131 45.5716 57.9683 43.7473 58.7139 41.6745L59.3635 39.8616C61.9676 32.5702 62.3121 26.7868 60.3577 23.1439C59.8736 22.2094 59.191 21.392 58.3577 20.7491C57.5244 20.1061 56.5606 19.6531 55.5337 19.4219C53.2743 18.8571 51.4215 19.2186 49.3202 19.6478C45.8391 20.5138 42.1988 20.5138 38.7177 19.6478C36.5938 19.2186 34.7637 18.8514 32.5042 19.4219C31.4767 19.6531 30.512 20.106 29.6778 20.7489C28.8435 21.3918 28.1599 22.2092 27.6746 23.1439C25.7202 26.7868 26.0704 32.5702 28.6744 39.8616L29.3184 41.6576C33.5831 53.6198 34.5773 56.1388 37.1644 55.8846C39.0736 55.6982 39.3729 54.0942 39.7401 51.2703C39.8531 50.4287 39.966 49.5759 40.1525 48.6836C40.8981 45.2948 42.1295 43.6739 44.0331 43.6739C45.9367 43.6739 47.1681 45.2666 47.9137 48.6836C48.1057 49.559 48.2187 50.4287 48.326 51.2703C48.6932 54.0942 48.9926 55.6982 50.9019 55.8846C52.5287 56.0484 53.6019 55.2464 55.6637 50.0786C55.6911 50.0096 55.7318 49.9466 55.7835 49.8934C55.8353 49.8401 55.897 49.7976 55.9652 49.7682C56.0334 49.7388 56.1068 49.7231 56.1811 49.7221C56.2553 49.7211 56.329 49.7348 56.398 49.7623C56.467 49.7897 56.53 49.8304 56.5833 49.8822C56.6365 49.9339 56.679 49.9956 56.7084 50.0638C56.7378 50.132 56.7535 50.2054 56.7545 50.2796C56.7555 50.3539 56.7419 50.4275 56.7143 50.4965C54.8672 55.1221 53.5116 57.274 50.7889 57.0085C47.8968 56.7261 47.5465 54.0264 47.2076 51.4171C47.1003 50.5982 46.993 49.7566 46.8122 48.9264C46.0045 45.227 44.8408 44.8035 44.0331 44.8035C43.2253 44.8035 42.0617 45.227 41.2596 48.9264C41.0789 49.7566 40.9659 50.6208 40.8642 51.4171C40.5253 54.0264 40.1694 56.7261 37.2773 57.0085C37.101 57.0276 36.9237 57.0371 36.7463 57.0368Z" fill="#505050"/>
</svg>
