<svg width="89" height="89" viewBox="0 0 89 89" fill="none" xmlns="http://www.w3.org/2000/svg">
<circle cx="44.5" cy="44.5" r="44" fill="white" stroke="#505050"/>
<path d="M60.0255 61.0111C65.737 57.7698 72.1797 59.7728 72.1797 63.1853C72.1797 69.1488 59.6513 73.9823 44.1923 73.9823C28.7333 73.9823 16.1992 69.1488 16.1992 63.1853C16.1992 59.904 19.8553 59.5103 25.7107 58.854C25.7107 58.854 29.027 61.9698 42.2233 63.2025C47.1747 63.6647 55.0049 63.8587 60.0255 61.0111Z" fill="#FFB7B7" stroke="#505050" stroke-width="1.8" stroke-miterlimit="10"/>
<path d="M61.3613 59.847C67.9133 60.4576 72.1797 59.7728 72.1797 63.1853C72.1797 69.1488 59.6513 73.9823 44.1923 73.9823C28.7333 73.9823 16.1992 69.1488 16.1992 63.1853C16.1992 59.904 19.8553 59.5103 25.7107 58.854" fill="white"/>
<path d="M61.3613 59.847C67.9133 60.4576 72.1797 59.7728 72.1797 63.1853C72.1797 69.1488 59.6513 73.9823 44.1923 73.9823C28.7333 73.9823 16.1992 69.1488 16.1992 63.1853C16.1992 59.904 19.8553 59.5103 25.7107 58.854" stroke="#505050" stroke-miterlimit="10"/>
<path d="M26.8797 38.1217C23.9061 38.1186 21.0551 36.9465 18.9524 34.8624C16.8497 32.7783 15.6671 29.9525 15.6641 27.0052C15.6641 21.8692 18.9055 18.5137 23.9203 18.5137C26.6839 18.5137 30.7142 19.3126 34.6063 20.083C38.3487 20.8249 41.8895 21.5211 44.1926 21.5211C46.4956 21.5211 50.5259 20.7564 54.3892 20.0088C58.3561 19.2384 62.1043 18.5137 64.4648 18.5137C69.1745 18.5137 72.7211 22.1659 72.7211 27.0052C72.7181 29.9525 71.5354 32.7783 69.4327 34.8624C67.3301 36.9465 64.4791 38.1186 61.5055 38.1217H26.8797Z" fill="white"/>
<path d="M64.4635 19.0272C69.1213 19.0272 72.2016 22.7022 72.2016 27.0164C72.2016 29.8285 71.0746 32.5254 69.0684 34.5139C67.0622 36.5023 64.3413 37.6194 61.5041 37.6194H26.8784C24.0412 37.6194 21.3203 36.5023 19.3141 34.5139C17.3079 32.5254 16.1809 29.8285 16.1809 27.0164C16.1809 22.7136 18.6163 19.0272 23.919 19.0272C29.2217 19.0272 39.3664 22.0346 44.1912 22.0346C49.016 22.0346 59.7999 19.0272 64.4635 19.0272ZM64.4635 18C62.0511 18 58.2799 18.7304 54.2899 19.5065C50.4727 20.2426 46.523 21.0073 44.1912 21.0073C41.8594 21.0073 38.261 20.2826 34.7086 19.5807C30.7877 18.8046 26.7344 18 23.919 18C18.5875 18 15.1445 21.5324 15.1445 27.005C15.1491 30.0881 16.3868 33.0437 18.5863 35.2238C20.7859 37.4039 23.7678 38.6306 26.8784 38.6352H61.5041C64.6147 38.6306 67.5966 37.4039 69.7962 35.2238C71.9957 33.0437 73.2334 30.0881 73.238 27.005C73.238 21.869 69.4668 18 64.4635 18Z" fill="#505050"/>
<path d="M18.6514 46.4191C17.5561 46.4191 16.5055 45.9882 15.7304 45.221C14.9553 44.4538 14.5191 43.4131 14.5176 42.3274V35.4794C14.5176 33.5436 15.2934 31.6872 16.6744 30.3184C18.0554 28.9496 19.9284 28.1807 21.8814 28.1807C23.8344 28.1807 25.7075 28.9496 27.0885 30.3184C28.4695 31.6872 29.2453 33.5436 29.2453 35.4794V42.3274C29.2438 43.4131 28.8076 44.4538 28.0325 45.221C27.2574 45.9882 26.2068 46.4191 25.1114 46.4191H18.6514Z" fill="white"/>
<path d="M21.882 28.683C23.6976 28.683 25.4389 29.3978 26.7227 30.6703C28.0065 31.9427 28.7277 33.6686 28.7277 35.4682V42.3161C28.7262 43.2656 28.3446 44.1757 27.6667 44.8465C26.9888 45.5174 26.07 45.8942 25.1121 45.8942H18.6521C17.6941 45.8942 16.7753 45.5174 16.0974 44.8465C15.4195 44.1757 15.0379 43.2656 15.0364 42.3161V35.4682C15.0364 34.5771 15.2134 33.6948 15.5575 32.8716C15.9015 32.0483 16.4057 31.3003 17.0414 30.6703C17.6771 30.0402 18.4318 29.5404 19.2623 29.1995C20.0929 28.8585 20.983 28.683 21.882 28.683ZM21.882 27.6558C19.792 27.6573 17.7881 28.4809 16.3102 29.9457C14.8324 31.4104 14.0015 33.3967 14 35.4682V42.3161C14.003 43.5376 14.4943 44.708 15.3663 45.5712C16.2382 46.4344 17.4197 46.9199 18.6521 46.9214H25.1121C26.3449 46.9214 27.5272 46.4364 28.3995 45.5729C29.2718 44.7094 29.7626 43.5381 29.7641 42.3161V35.4682C29.7626 33.3967 28.9316 31.4104 27.4538 29.9457C25.9759 28.4809 23.972 27.6573 21.882 27.6558Z" fill="#505050"/>
<path d="M24.8407 67.9501C23.1854 67.947 21.5989 67.2936 20.4289 66.1329C19.259 64.9722 18.6011 63.3991 18.5996 61.7584V55.0074C18.5996 54.1775 18.9319 53.3815 19.5234 52.7941C20.1149 52.2067 20.9174 51.876 21.7547 51.8745H27.9325C28.7699 51.876 29.5724 52.2067 30.1639 52.7941C30.7555 53.3815 31.0877 54.1775 31.0877 55.0074V61.7584C31.0847 63.3996 30.4255 64.9727 29.2546 66.1332C28.0837 67.2937 26.4966 67.947 24.8407 67.9501Z" fill="white"/>
<path d="M27.9321 52.388C28.6315 52.388 29.3023 52.6634 29.7968 53.1536C30.2913 53.6437 30.5691 54.3085 30.5691 55.0017V61.7583C30.5934 62.5187 30.4633 63.2762 30.1865 63.9859C29.9097 64.6955 29.4918 65.3428 28.9577 65.8892C28.4236 66.4357 27.7842 66.8701 27.0774 67.1668C26.3706 67.4635 25.6108 67.6164 24.8432 67.6164C24.0756 67.6164 23.3159 67.4635 22.6091 67.1668C21.9023 66.8701 21.2628 66.4357 20.7287 65.8892C20.1946 65.3428 19.7767 64.6955 19.4999 63.9859C19.2231 63.2762 19.0931 62.5187 19.1174 61.7583V55.0017C19.1174 54.3085 19.3952 53.6437 19.8897 53.1536C20.3842 52.6634 21.0549 52.388 21.7543 52.388H27.9321ZM27.9321 51.3608H21.7543C20.7801 51.3608 19.8458 51.7444 19.1569 52.4272C18.468 53.11 18.081 54.0361 18.081 55.0017V61.7583C18.0546 62.655 18.21 63.5477 18.538 64.3838C18.8659 65.2198 19.3598 65.9821 19.9903 66.6256C20.6208 67.2691 21.3752 67.7806 22.2088 68.1299C23.0424 68.4792 23.9382 68.6592 24.8432 68.6592C25.7482 68.6592 26.6441 68.4792 27.4777 68.1299C28.3112 67.7806 29.0656 67.2691 29.6961 66.6256C30.3267 65.9821 30.8206 65.2198 31.1485 64.3838C31.4765 63.5477 31.6318 62.655 31.6054 61.7583V55.0017C31.6054 54.0361 31.2184 53.11 30.5295 52.4272C29.8407 51.7444 28.9063 51.3608 27.9321 51.3608Z" fill="#505050"/>
<path d="M63.9461 67.9501C62.2898 67.9486 60.7018 67.2957 59.5306 66.1349C58.3594 64.9741 57.7007 63.4001 57.6992 61.7584V55.0074C57.6992 54.1775 58.0314 53.3815 58.6229 52.7941C59.2145 52.2067 60.017 51.876 60.8543 51.8745H67.0321C67.8695 51.876 68.672 52.2067 69.2635 52.7941C69.8551 53.3815 70.1873 54.1775 70.1873 55.0074V61.7584C70.1857 63.3991 69.5279 64.9722 68.3579 66.1329C67.188 67.2936 65.6014 67.947 63.9461 67.9501Z" fill="white"/>
<path d="M67.0337 52.388C67.733 52.388 68.4037 52.6634 68.8983 53.1536C69.3928 53.6437 69.6706 54.3085 69.6706 55.0017V61.7583C69.6949 62.5187 69.5649 63.2762 69.2881 63.9859C69.0113 64.6955 68.5934 65.3428 68.0593 65.8892C67.5252 66.4357 66.8858 66.8701 66.179 67.1668C65.4722 67.4635 64.7124 67.6164 63.9448 67.6164C63.1772 67.6164 62.4174 67.4635 61.7106 67.1668C61.0038 66.8701 60.3643 66.4357 59.8302 65.8892C59.2961 65.3428 58.8783 64.6955 58.6015 63.9859C58.3247 63.2762 58.1946 62.5187 58.2189 61.7583V55.0017C58.2189 54.3085 58.4968 53.6437 58.9913 53.1536C59.4858 52.6634 60.1565 52.388 60.8559 52.388H67.0337ZM67.0337 51.3608H60.8559C59.8817 51.3608 58.9473 51.7444 58.2584 52.4272C57.5696 53.11 57.1826 54.0361 57.1826 55.0017V61.7583C57.1562 62.655 57.3115 63.5477 57.6395 64.3838C57.9674 65.2198 58.4613 65.9821 59.0919 66.6256C59.7224 67.2691 60.4768 67.7806 61.3104 68.1299C62.144 68.4792 63.0398 68.6592 63.9448 68.6592C64.8498 68.6592 65.7456 68.4792 66.5792 68.1299C67.4127 67.7806 68.1672 67.2691 68.7977 66.6256C69.4282 65.9821 69.9221 65.2198 70.2501 64.3838C70.578 63.5477 70.7334 62.655 70.707 61.7583V55.0017C70.707 54.0361 70.32 53.11 69.6311 52.4272C68.9422 51.7444 68.0079 51.3608 67.0337 51.3608Z" fill="#505050"/>
<path d="M63.6417 46.4191C62.5463 46.4191 61.4957 45.9882 60.7206 45.221C59.9455 44.4538 59.5093 43.4131 59.5078 42.3274V35.4794C59.5078 33.5436 60.2836 31.6872 61.6646 30.3184C63.0456 28.9496 64.9186 28.1807 66.8716 28.1807C68.8247 28.1807 70.6977 28.9496 72.0787 30.3184C73.4597 31.6872 74.2355 33.5436 74.2355 35.4794V42.3274C74.234 43.4131 73.7978 44.4538 73.0227 45.221C72.2477 45.9882 71.197 46.4191 70.1016 46.4191H63.6417Z" fill="white"/>
<path d="M66.8703 28.683C68.6859 28.683 70.4272 29.3978 71.711 30.6703C72.9948 31.9427 73.716 33.6686 73.716 35.4682V42.3161C73.7145 43.2656 73.3329 44.1757 72.655 44.8465C71.977 45.5174 71.0582 45.8942 70.1003 45.8942H63.6403C62.6824 45.8942 61.7636 45.5174 61.0857 44.8465C60.4078 44.1757 60.0261 43.2656 60.0246 42.3161V35.4682C60.0246 33.6686 60.7459 31.9427 62.0297 30.6703C63.3135 29.3978 65.0547 28.683 66.8703 28.683ZM66.8703 27.6558C64.7803 27.6573 62.7764 28.4809 61.2985 29.9457C59.8207 31.4104 58.9898 33.3967 58.9883 35.4682V42.3161C58.9913 43.5376 59.4826 44.708 60.3546 45.5712C61.2265 46.4344 62.408 46.9199 63.6403 46.9214H70.1003C71.3331 46.9214 72.5155 46.4364 73.3878 45.5729C74.2601 44.7094 74.7509 43.5381 74.7524 42.3161V35.4682C74.7509 33.3967 73.9199 31.4104 72.4421 29.9457C70.9642 28.4809 68.9603 27.6573 66.8703 27.6558Z" fill="#505050"/>
<path d="M31.8479 48.5763C30.5631 48.5763 29.3309 48.0709 28.422 47.171C27.513 46.2711 27.0015 45.0504 27 43.777V34.538C27 32.4418 27.8402 30.4315 29.3356 28.9493C30.8311 27.467 32.8593 26.6343 34.9742 26.6343C37.0891 26.6343 39.1173 27.467 40.6128 28.9493C42.1082 30.4315 42.9484 32.4418 42.9484 34.538V43.777C42.9469 45.0494 42.4362 46.2693 41.5285 47.169C40.6207 48.0687 39.39 48.5748 38.1063 48.5763H31.8479Z" fill="white"/>
<path d="M34.9638 27.1477C36.9439 27.1552 38.8403 27.9402 40.2377 29.3306C41.6352 30.7211 42.4198 32.6037 42.4198 34.5663V43.8054C42.4198 44.942 41.9642 46.032 41.1533 46.8358C40.3425 47.6395 39.2426 48.0911 38.0959 48.0911H31.849C30.7017 48.0911 29.6012 47.6397 28.7894 46.8361C27.9776 46.0326 27.5208 44.9425 27.5193 43.8054V34.5663C27.5193 32.5987 28.3079 30.7118 29.7115 29.3205C31.1152 27.9293 33.019 27.1477 35.0041 27.1477M35.0041 26.1205C32.7527 26.1235 30.5944 27.0113 29.0025 28.5892C27.4105 30.167 26.5148 32.3063 26.5117 34.5378V43.7768C26.5208 45.177 27.086 46.5174 28.085 47.5075C29.084 48.4976 30.4362 49.0579 31.849 49.0669H38.1074C39.5281 49.0639 40.8897 48.5031 41.8943 47.5074C42.8989 46.5117 43.4646 45.1621 43.4677 43.754V34.5149C43.4646 32.2835 42.5689 30.1443 40.9769 28.5664C39.385 26.9885 37.2267 26.1007 34.9753 26.0977L35.0041 26.1205Z" fill="#FFB7B7"/>
<path d="M51.7404 48.2682C50.4552 48.2667 49.223 47.7599 48.3142 46.8591C47.4054 45.9583 46.8941 44.7371 46.8926 43.4632V34.2299C46.8926 32.1337 47.7327 30.1233 49.2281 28.6411C50.7236 27.1589 52.7519 26.3262 54.8667 26.3262C56.9816 26.3262 59.0099 27.1589 60.5053 28.6411C62.0008 30.1233 62.8409 32.1337 62.8409 34.2299V43.4632C62.8409 44.7366 62.331 45.9578 61.4231 46.8588C60.5152 47.7597 59.2836 48.2667 57.9989 48.2682H51.7404Z" fill="white"/>
<path d="M54.8796 26.8394C55.8609 26.8349 56.8334 27.0225 57.7413 27.3916C58.6492 27.7607 59.4746 28.3039 60.1701 28.99C60.8656 29.6762 61.4174 30.4918 61.794 31.3899C62.1706 32.2881 62.3644 33.2511 62.3644 34.2237V43.4628C62.3644 44.6 61.9091 45.6906 61.0984 46.4952C60.2876 47.2999 59.1878 47.7526 58.0405 47.7542H51.7821C50.6348 47.7526 49.535 47.2999 48.7243 46.4952C47.9135 45.6906 47.4582 44.6 47.4582 43.4628V34.2294C47.4582 32.271 48.2431 30.3928 49.6403 29.0079C51.0375 27.6231 52.9325 26.8451 54.9085 26.8451M54.9085 25.8179C52.6581 25.8194 50.5004 26.7061 48.9092 28.2832C47.318 29.8604 46.4234 31.999 46.4219 34.2294V43.4685C46.4219 44.878 46.9864 46.23 47.9915 47.2273C48.9966 48.2246 50.3599 48.7856 51.7821 48.7871H58.0405C59.4622 48.7841 60.8247 48.2226 61.8294 47.2256C62.8342 46.2287 63.3993 44.8776 63.4008 43.4685V34.2294C63.3978 31.9985 62.5019 29.8599 60.9097 28.2829C59.3176 26.7059 57.1593 25.8194 54.9085 25.8179Z" fill="#FFB7B7"/>
<path d="M51.8387 68.401C50.0063 68.401 48.249 67.6795 46.9533 66.3952C45.6576 65.111 44.9297 63.3692 44.9297 61.553V53.6493C44.9297 52.5399 45.3744 51.476 46.1658 50.6915C46.9573 49.907 48.0307 49.4663 49.15 49.4663H54.5045C55.6237 49.4663 56.6972 49.907 57.4886 50.6915C58.2801 51.476 58.7248 52.5399 58.7248 53.6493V61.553C58.7248 63.3652 58 65.1036 56.7093 66.3872C55.4186 67.6708 53.6671 68.3949 51.8387 68.401Z" fill="white"/>
<path d="M54.5148 49.9916C55.4967 49.9916 56.4384 50.3782 57.1326 51.0663C57.8269 51.7544 58.2169 52.6878 58.2169 53.661V61.5647C58.2169 63.2416 57.5448 64.8499 56.3484 66.0356C55.1521 67.2214 53.5295 67.8876 51.8376 67.8876C50.1457 67.8876 48.5231 67.2214 47.3267 66.0356C46.1304 64.8499 45.4583 63.2416 45.4583 61.5647V53.661C45.4583 52.6878 45.8483 51.7544 46.5426 51.0663C47.2368 50.3782 48.1785 49.9916 49.1603 49.9916H54.5148ZM54.5148 48.9644H49.1603C47.9041 48.9659 46.6997 49.4612 45.8114 50.3416C44.9231 51.2221 44.4234 52.4158 44.4219 53.661V61.5647C44.4219 63.514 45.2032 65.3836 46.5939 66.762C47.9846 68.1404 49.8708 68.9148 51.8376 68.9148C53.8043 68.9148 55.6905 68.1404 57.0813 66.762C58.472 65.3836 59.2533 63.514 59.2533 61.5647V53.661C59.2517 52.4158 58.752 51.2221 57.8637 50.3416C56.9754 49.4612 55.7711 48.9659 54.5148 48.9644Z" fill="#FFB7B7"/>
<path d="M36.0399 68.401C34.2075 68.401 32.4501 67.6795 31.1544 66.3952C29.8587 65.111 29.1309 63.3692 29.1309 61.553V53.6493C29.1309 52.5399 29.5755 51.476 30.3669 50.6915C31.1584 49.907 32.2318 49.4663 33.3511 49.4663H38.7056C39.8249 49.4663 40.8984 49.907 41.6898 50.6915C42.4813 51.476 42.9259 52.5399 42.9259 53.6493V61.553C42.9259 63.3652 42.2011 65.1036 40.9104 66.3872C39.6197 67.6708 37.8683 68.3949 36.0399 68.401Z" fill="white"/>
<path d="M38.718 49.9916C39.6998 49.9916 40.6414 50.3782 41.3357 51.0663C42.03 51.7544 42.42 52.6878 42.42 53.661V61.5647C42.42 63.2416 41.7479 64.8499 40.5515 66.0356C39.3552 67.2214 37.7326 67.8876 36.0407 67.8876C34.3488 67.8876 32.7262 67.2214 31.5298 66.0356C30.3335 64.8499 29.6613 63.2416 29.6613 61.5647V53.661C29.6613 52.6878 30.0514 51.7544 30.7456 51.0663C31.4399 50.3782 32.3816 49.9916 33.3634 49.9916H38.718ZM38.718 48.9644H33.3634C32.1072 48.9659 30.9029 49.4612 30.0146 50.3416C29.1263 51.2221 28.6265 52.4158 28.625 53.661V61.5647C28.625 63.514 29.4063 65.3836 30.797 66.762C32.1877 68.1404 34.0739 68.9148 36.0407 68.9148C38.0075 68.9148 39.8937 68.1404 41.2844 66.762C42.6751 65.3836 43.4564 63.514 43.4564 61.5647V53.661C43.4549 52.4158 42.9551 51.2221 42.0668 50.3416C41.1785 49.4612 39.9742 48.9659 38.718 48.9644Z" fill="#FFB7B7"/>
</svg>
