<svg width="89" height="89" viewBox="0 0 89 89" fill="none" xmlns="http://www.w3.org/2000/svg">
<circle cx="44.5" cy="44.5" r="44" fill="white" stroke="#505050"/>
<path d="M66.1207 37.7212C66.6562 39.498 66.9283 41.3452 66.9279 43.2027C66.9279 54.4824 57.1095 63.6243 45.0022 63.6243C32.8949 63.6243 23.0706 54.4885 23.0706 43.2027C23.0732 41.3455 23.3451 39.4986 23.8777 37.7212C17.9385 39.792 13.6016 46.3028 13.6016 54.0134C13.6016 63.3929 20.0166 71 27.9255 71H62.0729C69.9878 71 76.3969 63.3929 76.3969 54.0134C76.4089 46.3028 72.0599 39.792 66.1207 37.7212Z" fill="#FFB7B7"/>
<path d="M45.002 63.6184C57.1093 63.6184 66.9276 54.4826 66.9276 43.1968C66.928 41.3394 66.656 39.4921 66.1205 37.7153C64.8193 37.2559 63.4509 37.0212 62.0727 37.021H27.9253C26.5471 37.0217 25.1788 37.2564 23.8774 37.7153C23.3448 39.4928 23.0729 41.3396 23.0703 43.1968C23.0703 54.4765 32.8886 63.6184 45.002 63.6184Z" fill="#FFB7B7"/>
<path d="M13.6016 54.0133C13.6016 44.6339 20.0166 37.0269 27.9255 37.0269H62.0729C69.9878 37.0269 76.3969 44.6339 76.3969 54.0133" stroke="#505050" stroke-width="1.3" stroke-linecap="round" stroke-linejoin="round"/>
<path d="M58.5909 49.4211C59.1932 47.728 59.898 45.7668 60.6871 43.5315L61.3798 41.5765C64.1566 33.7136 64.5301 27.4769 62.446 23.5485C61.9278 22.5404 61.1987 21.6586 60.3093 20.9644C59.4198 20.2702 58.3915 19.7802 57.2958 19.5286C54.8864 18.9196 52.9167 19.3155 50.67 19.7784C46.9578 20.7123 43.0759 20.7123 39.3638 19.7784C37.105 19.3155 35.1473 18.9196 32.7379 19.5286C31.643 19.7802 30.6155 20.2703 29.7271 20.9645C28.8387 21.6588 28.1107 22.5406 27.5938 23.5485C25.5097 27.4769 25.8771 33.7136 28.6539 41.5765L29.3406 43.5132C33.8944 56.413 34.9546 59.1295 37.7133 58.8554C39.7493 58.6544 40.0685 56.9247 40.4601 53.8794C40.5745 52.9719 40.695 52.0522 40.8998 51.0899C41.6949 47.4356 43.008 45.6876 45.0379 45.6876C47.0679 45.6876 48.381 47.4052 49.1761 51.0899C49.3749 52.034 49.4954 52.9719 49.6158 53.8794C50.0074 56.9247 50.3266 58.6544 52.3626 58.8554C54.0973 59.0259 55.2418 58.1671 57.4344 52.5882L58.5909 49.4211Z" fill="white"/>
<path d="M45.0853 27.1724C43.6271 27.1646 42.1955 26.7765 40.929 26.0457C40.8617 26.0034 40.8033 25.948 40.7571 25.8828C40.711 25.8177 40.678 25.744 40.6601 25.6659C40.6422 25.5878 40.6397 25.5069 40.6528 25.4278C40.6659 25.3488 40.6943 25.2731 40.7363 25.2052C40.7781 25.1371 40.8328 25.078 40.8973 25.0313C40.9618 24.9847 41.0347 24.9513 41.1119 24.9332C41.1891 24.9151 41.2691 24.9126 41.3473 24.9258C41.4255 24.9391 41.5003 24.9677 41.5675 25.0102C42.6087 25.618 43.7897 25.938 44.9919 25.938C46.1941 25.938 47.3752 25.618 48.4163 25.0102C48.5537 24.9279 48.7178 24.9041 48.8726 24.9441C49.0273 24.984 49.16 25.0846 49.2415 25.2235C49.3235 25.3616 49.348 25.527 49.3096 25.6834C49.2712 25.8398 49.1731 25.9745 49.0367 26.0579C47.8455 26.7885 46.4786 27.174 45.0853 27.1724Z" fill="#505050"/>
<path d="M37.2546 60.092C33.8573 60.092 32.5322 56.3341 28.1531 43.9216L27.4664 41.9847C24.5691 33.7868 24.2257 27.2152 26.4725 22.97C27.0738 21.8152 27.9138 20.8048 28.9355 20.0071C29.9571 19.2095 31.1365 18.6434 32.3936 18.3473C35.0861 17.6652 37.2607 18.1098 39.5677 18.5788C43.1256 19.4904 46.8521 19.4904 50.41 18.5788C52.711 18.1098 54.8855 17.6652 57.584 18.3473C58.8403 18.6435 60.0189 19.2096 61.0395 20.0073C62.0602 20.8049 62.8991 21.8154 63.4991 22.97C65.7459 27.2334 65.4026 33.7868 62.5052 41.9847L61.8186 43.9398C61.0235 46.1934 60.3307 48.1484 59.7163 49.8416C59.6612 49.9934 59.5487 50.1169 59.4036 50.1849C59.2584 50.2529 59.0925 50.2597 58.9423 50.2039C58.7922 50.1482 58.67 50.0345 58.6028 49.8877C58.5356 49.741 58.5288 49.5732 58.5839 49.4213C59.1863 47.7282 59.891 45.767 60.6801 43.5318L61.3728 41.5767C64.1497 33.7138 64.5231 27.4771 62.439 23.5487C61.9208 22.5406 61.1917 21.6588 60.3023 20.9646C59.4129 20.2704 58.3846 19.7804 57.2889 19.5289C54.8795 18.9198 52.9098 19.3157 50.663 19.7725C46.9519 20.7146 43.0679 20.7146 39.3568 19.7725C37.098 19.3157 35.1403 18.9137 32.7309 19.5289C31.636 19.7805 30.6086 20.2705 29.7201 20.9647C28.8317 21.659 28.1037 22.5408 27.5869 23.5487C25.5027 27.4771 25.8702 33.7138 28.647 41.5767L29.3337 43.5135C33.8874 56.4072 34.9476 59.1297 37.7064 58.8556C39.7423 58.6546 40.0616 56.9188 40.4531 53.8796C40.5676 52.9721 40.688 52.0525 40.8928 51.0902C41.6879 47.3993 43.001 45.6817 45.031 45.6817C47.0609 45.6817 48.3741 47.3993 49.1692 51.0902C49.3679 52.0342 49.4884 52.9721 49.6089 53.8796C50.0004 56.9249 50.3197 58.6546 52.3556 58.8556C54.0904 59.0261 55.2348 58.1674 57.4274 52.5884C57.4566 52.514 57.5001 52.4461 57.5552 52.3887C57.6104 52.3313 57.6763 52.2854 57.749 52.2537C57.8217 52.222 57.8999 52.2051 57.9791 52.204C58.0583 52.2029 58.1369 52.2177 58.2105 52.2474C58.2841 52.2769 58.3512 52.3208 58.408 52.3766C58.4648 52.4324 58.5102 52.499 58.5415 52.5725C58.5729 52.646 58.5895 52.7251 58.5906 52.8052C58.5917 52.8853 58.5771 52.9647 58.5478 53.0391C56.5841 58.0334 55.1385 60.3478 52.2351 60.0676C49.1511 59.7631 48.7716 56.8518 48.4102 54.0319C48.3018 53.1548 48.1813 52.2412 47.9885 51.3459C47.1332 47.3627 45.8923 46.8998 45.031 46.8998C44.1696 46.8998 42.9288 47.3627 42.0674 51.3459C41.8747 52.2412 41.7602 53.1731 41.6458 54.0319C41.2843 56.8518 40.9109 59.7631 37.8269 60.0676C37.6367 60.0863 37.4457 60.0944 37.2546 60.092Z" fill="#505050"/>
</svg>
