<svg width="89" height="89" viewBox="0 0 89 89" fill="none" xmlns="http://www.w3.org/2000/svg">
<circle cx="44.5" cy="44.5" r="44" fill="white" stroke="#505050"/>
<path d="M64.6397 43.083C65.1774 44.5574 65.4531 46.1121 65.4547 47.6788C65.4547 57.1402 55.5408 64.81 43.3157 64.81C31.0905 64.81 21.1705 57.1402 21.1705 47.6788C21.1751 46.1124 21.4507 44.5582 21.9855 43.083C18.9901 43.9524 16.3608 45.7534 14.4905 48.217C12.6202 50.6806 11.6095 53.6743 11.6094 56.7507C11.6094 60.5298 13.1332 64.1541 15.8456 66.8263C18.558 69.4986 22.2368 70.9998 26.0728 70.9998H60.5525C62.4531 71.0021 64.3355 70.6352 66.0921 69.9201C67.8486 69.2051 69.4448 68.1558 70.7893 66.8323C72.1338 65.5089 73.2002 63.9372 73.9275 62.2073C74.6549 60.4774 75.0288 58.6232 75.028 56.7507C75.0272 53.6728 74.0147 50.678 72.142 48.2142C70.2694 45.7504 67.6374 43.9502 64.6397 43.083Z" fill="white"/>
<path d="M43.5033 68C57.0303 68 68 59.4117 68 48.8173C67.9983 47.0629 67.6932 45.322 67.0982 43.671C65.631 43.2313 64.1078 43.0053 62.5757 43H24.4243C22.8923 43.0058 21.3691 43.2317 19.9018 43.671C19.31 45.3228 19.0051 47.0632 19 48.8173C19 59.4319 29.9696 68 43.5033 68Z" fill="white"/>
<path d="M11.6094 56.7509C11.6094 52.9718 13.1332 49.3476 15.8456 46.6754C18.558 44.0032 22.2368 42.502 26.0728 42.502H60.5525C62.4529 42.5004 64.3349 42.8677 66.0911 43.5831C67.8473 44.2985 69.4432 45.3478 70.7875 46.6711C72.1319 47.9944 73.1983 49.5658 73.9259 51.2953C74.6535 53.0249 75.028 54.8787 75.028 56.7509" stroke="#505050" stroke-width="1.3" stroke-linecap="round" stroke-linejoin="round"/>
<path d="M55.5042 52.4127C56.4712 50.9207 57.566 49.189 58.825 47.1997L59.9259 45.462C64.3355 38.4933 66.008 32.5791 64.7916 28.3548C64.4954 27.2772 63.9643 26.2762 63.2353 25.4214C62.5063 24.5666 61.597 23.8787 60.5706 23.4054C58.2959 22.3029 56.3131 22.273 53.9593 22.207C50.098 22.3198 46.2676 21.4968 42.8046 19.8102C40.6698 18.8875 38.833 18.0905 36.3028 18.1684C35.1684 18.1762 34.0495 18.4281 33.0242 18.9062C31.9988 19.3844 31.0919 20.0774 30.3666 20.9367C27.4776 24.2743 26.5166 30.3501 27.5871 38.4933L27.8547 40.5006C29.6064 53.8628 30.0686 56.6791 32.8542 57.0206C34.9039 57.2603 35.5912 55.6604 36.6191 52.8262C36.9293 51.9813 37.2273 51.1005 37.6469 50.2376C39.2161 46.8581 40.8766 45.486 42.8776 45.9174C44.8787 46.3488 45.8153 48.2782 45.8092 51.9873C45.8092 52.94 45.7302 53.8688 45.6511 54.7616C45.3956 57.7576 45.3409 59.5013 47.3054 60.1544C48.9841 60.6877 50.2918 60.1005 53.643 55.205L55.5042 52.4127Z" fill="white"/>
<path d="M46.9161 28.1813C45.4784 27.8681 44.1477 27.193 43.0539 26.2219C42.9386 26.1106 42.8728 25.9588 42.8711 25.7998C42.8694 25.6408 42.9319 25.4876 43.0448 25.374C43.1577 25.2603 43.3118 25.1956 43.4732 25.1939C43.6346 25.1922 43.7901 25.2537 43.9054 25.365C44.8047 26.1676 45.9022 26.7236 47.0881 26.977C48.274 27.2304 49.5067 27.1725 50.6627 26.8091C50.7396 26.7775 50.8223 26.7619 50.9057 26.7632C50.989 26.7645 51.0712 26.7826 51.1471 26.8164C51.223 26.8503 51.2911 26.8992 51.347 26.96C51.403 27.0209 51.4457 27.0923 51.4724 27.1701C51.4991 27.2479 51.5093 27.3302 51.5024 27.4121C51.4955 27.4939 51.4716 27.5734 51.4321 27.6458C51.3927 27.7181 51.3387 27.7817 51.2733 27.8326C51.2079 27.8835 51.1325 27.9205 51.052 27.9416C49.7223 28.3965 48.2907 28.4795 46.9161 28.1813Z" fill="#505050"/>
<path d="M32.2096 58.1651C28.8522 57.446 28.3413 53.5513 26.6566 40.6924L26.395 38.6851C25.282 30.1944 26.3403 23.8009 29.4361 20.1937C30.2751 19.2114 31.3187 18.4183 32.4961 17.8683C33.6736 17.3183 34.9573 17.0242 36.2603 17.006C39.0642 16.9221 41.126 17.8089 43.2852 18.7437C46.5986 20.3711 50.2713 21.1598 53.9715 21.0386C56.3436 21.0746 58.5879 21.1105 61.0998 22.3329C62.2794 22.8818 63.3247 23.675 64.1645 24.6585C65.0043 25.6419 65.6186 26.7924 65.9655 28.0313C67.2854 32.5852 65.552 38.8169 60.9478 46.0972L59.853 47.8289C58.594 49.8242 57.4931 51.562 56.5261 53.06C56.4389 53.1942 56.3013 53.2889 56.1433 53.3232C55.9853 53.3575 55.82 53.3285 55.6837 53.2427C55.5474 53.1569 55.4513 53.0212 55.4165 52.8656C55.3817 52.71 55.4111 52.5471 55.4982 52.4128C56.4652 50.9208 57.56 49.1891 58.819 47.1997L59.9199 45.4621C64.3294 38.4933 66.002 32.5792 64.7856 28.3548C64.4894 27.2772 63.9583 26.2762 63.2293 25.4214C62.5003 24.5667 61.591 23.8787 60.5646 23.4055C58.2899 22.303 56.3071 22.273 53.9533 22.2071C52.0302 22.2319 50.1098 22.0571 48.2239 21.6858C46.3525 21.2662 44.5318 20.6515 42.7925 19.8522C40.6577 18.9354 38.8209 18.1385 36.2907 18.2104C35.1569 18.2199 34.0389 18.473 33.0146 18.9522C31.9904 19.4313 31.0846 20.125 30.3606 20.9847C27.4655 24.3223 26.5045 30.3921 27.5811 38.5413L27.8426 40.5486C29.5943 53.9108 30.0626 56.727 32.8421 57.0686C34.8918 57.3083 35.5791 55.7084 36.607 52.8742C36.9172 52.0233 37.2152 51.1485 37.6349 50.2856C39.2041 46.9062 40.8645 45.5339 42.8655 45.9654C44.8666 46.3968 45.8032 48.3262 45.7971 52.0353C45.7971 52.988 45.7181 53.9108 45.639 54.8096C45.3835 57.8056 45.3288 59.5493 47.2933 60.2024C48.972 60.7357 50.2797 60.1425 53.6309 55.253C53.6756 55.1876 53.7329 55.1316 53.7996 55.088C53.8663 55.0445 53.941 55.0143 54.0196 54.9993C54.0981 54.9843 54.1789 54.9846 54.2573 55.0004C54.3357 55.0162 54.4101 55.0471 54.4764 55.0913C54.6087 55.18 54.7002 55.3167 54.7309 55.4715C54.7617 55.6263 54.7292 55.7867 54.6406 55.9181C51.6421 60.3042 49.7201 62.2337 46.9223 61.3409C43.9421 60.3941 44.1914 57.512 44.4286 54.7497C44.5077 53.8808 44.5807 52.9521 44.5807 52.0773C44.5807 48.0626 43.4555 47.3615 42.6101 47.1758C41.7647 46.99 40.4327 47.1757 38.7418 50.8249C38.3647 51.6458 38.0545 52.4967 37.7565 53.3176C36.8016 55.9481 35.8102 58.6685 32.7022 58.309C32.5441 58.2011 32.3738 58.201 32.2096 58.1651Z" fill="#505050"/>
<path d="M68.0391 23.2974C68.0391 23.2974 71.5241 27.4918 69.6508 32.8007" stroke="#FFB7B7" stroke-width="2" stroke-linecap="round" stroke-linejoin="round"/>
<path d="M71.2578 18.1982C71.2578 18.1982 76.8838 23.2975 75.0166 30.8175" stroke="#FFB7B7" stroke-width="2" stroke-linecap="round" stroke-linejoin="round"/>
<path d="M20.7501 35.9407C20.7501 35.9407 17.6056 31.4707 19.8864 26.3535" stroke="#FFB7B7" stroke-width="2" stroke-linecap="round" stroke-linejoin="round"/>
<path d="M17.1553 40.7824C17.1553 40.7824 11.9368 35.2757 14.3758 27.9175" stroke="#FFB7B7" stroke-width="2" stroke-linecap="round" stroke-linejoin="round"/>
</svg>
