<svg width="89" height="89" viewBox="0 0 89 89" fill="none" xmlns="http://www.w3.org/2000/svg">
<circle cx="44.5" cy="44.5" r="44" fill="white" stroke="#505050"/>
<path d="M60.2073 60.3993C65.9419 57.1286 72.4108 59.1497 72.4108 62.5931C72.4108 68.6104 59.8315 73.4875 44.3098 73.4875C28.7881 73.4875 16.2031 68.6104 16.2031 62.5931C16.2031 59.2821 19.8682 58.8848 25.7532 58.2227C25.7532 58.2227 29.083 61.3666 42.327 62.6104C47.3043 63.0768 55.1664 63.2726 60.2073 60.3993Z" fill="#FFB7B7" stroke="#505050" stroke-miterlimit="10"/>
<path d="M61.5485 59.2246C68.1271 59.8407 72.4108 59.1497 72.4108 62.5931C72.4108 68.6104 59.8315 73.4875 44.3098 73.4875C28.7881 73.4875 16.2031 68.6104 16.2031 62.5931C16.2031 59.2821 19.8682 58.8848 25.7532 58.2227" stroke="#505050" stroke-miterlimit="10"/>
<path d="M26.9213 37.3032C23.9356 37.3001 21.0731 36.1173 18.9619 34.0144C16.8507 31.9115 15.6632 29.0602 15.6602 26.0862C15.6602 20.9039 18.9148 17.5181 23.9557 17.5181C26.7306 17.5181 30.7714 18.3242 34.6851 19.1016C38.4427 19.8501 41.9921 20.5526 44.3103 20.5526C46.6284 20.5526 50.6693 19.781 54.5482 19.0267C58.5313 18.2493 62.2946 17.5181 64.6648 17.5181C69.3878 17.5181 72.9546 21.2033 72.9546 26.0862C72.9515 29.0602 71.7641 31.9115 69.6529 34.0144C67.5417 36.1173 64.6791 37.3001 61.6934 37.3032H26.9213Z" fill="#FFB7B7"/>
<path d="M64.6636 18.0364C69.3404 18.0364 72.4331 21.7447 72.4331 26.0978C72.4331 27.5028 72.1553 28.894 71.6156 30.192C71.0758 31.49 70.2846 32.6695 69.2872 33.6629C68.2898 34.6564 67.1057 35.4444 65.8026 35.9821C64.4994 36.5198 63.1027 36.7965 61.6922 36.7965H26.9201C24.0715 36.7965 21.3395 35.6693 19.3252 33.6629C17.3109 31.6566 16.1793 28.9353 16.1793 26.0978C16.1793 21.7562 18.6303 18.0364 23.9545 18.0364C29.2787 18.0364 39.4647 21.071 44.3091 21.071C49.1535 21.071 59.9811 18.0364 64.6636 18.0364ZM64.6636 17C62.2414 17 58.4549 17.737 54.4488 18.5201C50.6102 19.2629 46.6503 20.0345 44.3091 20.0345C41.9678 20.0345 38.3548 19.3032 34.7822 18.595C30.8512 17.8118 26.7814 17 23.9545 17C18.6014 17 15.1387 20.5642 15.1387 26.0863C15.1433 29.1973 16.386 32.1795 18.5945 34.3793C20.8029 36.579 23.7969 37.8169 26.9201 37.8214H61.6922C64.8155 37.8169 67.8095 36.579 70.0179 34.3793C72.2264 32.1795 73.4691 29.1973 73.4737 26.0863C73.4737 20.904 69.6814 17 64.6636 17Z" fill="#505050"/>
<path d="M18.6663 45.6755C17.5665 45.6755 16.5116 45.2408 15.7334 44.4667C14.9551 43.6926 14.5172 42.6425 14.5156 41.547V34.6372C14.5156 32.6839 15.2946 30.8107 16.6812 29.4295C18.0678 28.0484 19.9484 27.2725 21.9094 27.2725C23.8703 27.2725 25.751 28.0484 27.1376 29.4295C28.5242 30.8107 29.3031 32.6839 29.3031 34.6372V41.547C29.3016 42.6425 28.8636 43.6926 28.0854 44.4667C27.3071 45.2408 26.2523 45.6755 25.1525 45.6755H18.6663Z" fill="white"/>
<path d="M21.9083 27.7792C23.7312 27.7792 25.4795 28.5004 26.7686 29.7844C28.0576 31.0684 28.7818 32.8098 28.7818 34.6256V41.5354C28.7802 42.4935 28.3971 43.4117 27.7164 44.0886C27.0357 44.7655 26.1132 45.1458 25.1513 45.1458H18.6652C17.7033 45.1458 16.7808 44.7655 16.1001 44.0886C15.4195 43.4117 15.0363 42.4935 15.0348 41.5354V34.6256C15.0348 32.8098 15.759 31.0684 17.048 29.7844C18.337 28.5004 20.0853 27.7792 21.9083 27.7792ZM21.9083 26.7427C19.8108 26.7457 17.8002 27.5774 16.3176 29.0553C14.835 30.5331 14.0015 32.5364 14 34.6256V41.5354C14.0015 42.7684 14.4943 43.9503 15.3701 44.8215C16.2459 45.6928 17.4332 46.1822 18.671 46.1822H25.1571C26.3945 46.1807 27.5808 45.6908 28.4563 44.8199C29.3317 43.9489 29.825 42.7679 29.8281 41.5354V34.6256C29.822 32.5374 28.9849 30.5368 27.5003 29.0624C26.0157 27.588 24.0047 26.76 21.9083 26.76V26.7427Z" fill="#505050"/>
<path d="M25.2564 66.9013C23.7285 66.8941 22.266 66.2853 21.1877 65.2083C20.1094 64.1313 19.5029 62.6735 19.5 61.1533V54.3366C19.5014 53.6324 19.7832 52.9571 20.2841 52.4591C20.7852 51.9608 21.4648 51.6807 22.1737 51.6807H28.3708C29.0798 51.6807 29.7593 51.9608 30.2604 52.4591C30.7614 52.9571 31.0431 53.6324 31.0445 54.3365C31.0445 54.3367 31.0445 54.3369 31.0445 54.337V61.1528C31.0445 61.153 31.0445 61.1532 31.0445 61.1533C31.0416 62.679 30.4308 64.1416 29.3456 65.2195C28.2604 66.2974 26.7897 66.9025 25.2564 66.9013Z" fill="white" stroke="#505050"/>
<path d="M64.1375 67.4014C62.4749 67.3983 60.8813 66.7391 59.7057 65.5681C58.5301 64.3971 57.8683 62.8098 57.8652 61.1538V54.3361C57.8683 53.4992 58.2038 52.6974 58.7985 52.1062C59.3932 51.5149 60.1987 51.1822 61.0389 51.1807H67.2361C68.0768 51.1807 68.8832 51.5129 69.4782 52.1045C70.0732 52.6961 70.4083 53.4987 70.4098 54.3361V61.1538C70.4067 62.8098 69.7449 64.3971 68.5693 65.5681C67.3937 66.7391 65.8001 67.3983 64.1375 67.4014Z" fill="white"/>
<path d="M67.2359 51.6986C67.5841 51.6978 67.929 51.7655 68.2509 51.8977C68.5728 52.0299 68.8653 52.224 69.1118 52.469C69.3583 52.7139 69.5538 53.0049 69.6872 53.3253C69.8207 53.6456 69.8893 53.989 69.8893 54.3358V61.1535C69.8893 62.6756 69.2842 64.1359 68.2063 65.215C67.1285 66.294 65.6655 66.904 64.1373 66.9116C62.6101 66.9025 61.1487 66.2918 60.072 65.2129C58.9954 64.134 58.3911 62.6746 58.3911 61.1535V54.3358C58.3911 53.6364 58.6701 52.9656 59.1666 52.471C59.6631 51.9764 60.3366 51.6986 61.0388 51.6986H67.2359ZM67.2359 50.6621H61.0388C60.0606 50.6621 59.1225 51.0492 58.4308 51.7381C57.7391 52.4271 57.3505 53.3615 57.3505 54.3358V61.1535C57.324 62.0582 57.4801 62.959 57.8093 63.8026C58.1386 64.6462 58.6345 65.4154 59.2676 66.0647C59.9007 66.714 60.6582 67.2301 61.4951 67.5826C62.3321 67.9351 63.2315 68.1167 64.1402 68.1167C65.0489 68.1167 65.9484 67.9351 66.7853 67.5826C67.6223 67.2301 68.3797 66.714 69.0128 66.0647C69.6459 65.4154 70.1418 64.6462 70.4711 63.8026C70.8004 62.959 70.9564 62.0582 70.9299 61.1535V54.3358C70.9283 53.361 70.5385 52.4265 69.8459 51.7378C69.1533 51.049 68.2146 50.6621 67.2359 50.6621Z" fill="#505050"/>
<path d="M63.8382 45.6755C62.7383 45.6755 61.6835 45.2408 60.9052 44.4667C60.127 43.6926 59.689 42.6425 59.6875 41.547V34.6372C59.6875 32.6839 60.4665 30.8107 61.8531 29.4295C63.2397 28.0484 65.1203 27.2725 67.0813 27.2725C69.0422 27.2725 70.9228 28.0484 72.3094 29.4295C73.696 30.8107 74.475 32.6839 74.475 34.6372V41.547C74.4735 42.6425 74.0355 43.6926 73.2573 44.4667C72.479 45.2408 71.4242 45.6755 70.3243 45.6755H63.8382Z" fill="white"/>
<path d="M67.0801 27.7792C68.903 27.7792 70.6513 28.5004 71.9403 29.7844C73.2294 31.0684 73.9536 32.8098 73.9536 34.6256V41.5354C73.952 42.4935 73.5689 43.4117 72.8882 44.0886C72.2075 44.7655 71.285 45.1458 70.3231 45.1458H63.837C62.8751 45.1458 61.9526 44.7655 61.2719 44.0886C60.5913 43.4117 60.2081 42.4935 60.2066 41.5354V34.6256C60.2066 32.8098 60.9307 31.0684 62.2198 29.7844C63.5088 28.5004 65.2571 27.7792 67.0801 27.7792ZM67.0801 26.7427C64.9816 26.7442 62.9695 27.5752 61.4857 29.0532C60.0018 30.5313 59.1675 32.5354 59.166 34.6256V41.5354C59.1675 42.7684 59.6603 43.9503 60.5362 44.8215C61.412 45.6928 62.5992 46.1822 63.837 46.1822H70.3231C71.5605 46.1807 72.7468 45.6908 73.6223 44.8199C74.4978 43.9489 74.9911 42.7679 74.9941 41.5354V34.6256C74.988 32.5384 74.1517 30.5386 72.6683 29.0644C71.185 27.5901 69.1755 26.7615 67.0801 26.76V26.7427Z" fill="#505050"/>
<path d="M33.6214 47.8522C32.3315 47.8522 31.0943 47.3422 30.1816 46.4342C29.2689 45.5262 28.7554 44.2944 28.7539 43.0096V33.6699C28.7539 31.5547 29.5975 29.5262 31.099 28.0306C32.6005 26.535 34.637 25.6948 36.7604 25.6948C38.8839 25.6948 40.9204 26.535 42.4219 28.0306C43.9234 29.5262 44.767 31.5547 44.767 33.6699V42.9923C44.7654 44.2762 44.2527 45.507 43.3413 46.4148C42.4299 47.3227 41.1942 47.8334 39.9052 47.8349L33.6214 47.8522Z" fill="white"/>
<path d="M36.7593 26.2305C38.7524 26.2305 40.6639 27.0192 42.0733 28.423C43.4826 29.8268 44.2744 31.7308 44.2744 33.7161V43.0386C44.2744 44.1855 43.817 45.2854 43.0028 46.0964C42.1887 46.9073 41.0844 47.363 39.933 47.363H33.6202C32.4683 47.363 31.3634 46.9075 30.5483 46.0967C29.7332 45.2859 29.2745 44.186 29.273 43.0386V33.6701C29.273 31.6848 30.0648 29.7808 31.4741 28.3769C32.8835 26.9731 34.795 26.1845 36.7882 26.1845M36.7882 25.148C35.664 25.1457 34.5504 25.3646 33.5113 25.792C32.4723 26.2195 31.5282 26.8472 30.7332 27.639C29.9383 28.4308 29.3082 29.3712 28.8791 30.4062C28.4499 31.4411 28.2302 32.5503 28.2324 33.6701V42.9925C28.2355 44.4143 28.8043 45.777 29.8142 46.7819C30.8241 47.7868 32.1928 48.3519 33.6202 48.3534H39.9041C41.3305 48.3503 42.6977 47.7846 43.7064 46.7799C44.715 45.7752 45.283 44.4133 45.2861 42.9925V33.6701C45.283 31.4184 44.3837 29.2599 42.7853 27.6678C41.1868 26.0757 39.0198 25.1798 36.7593 25.1768L36.7882 25.148Z" fill="#505050"/>
<path d="M49.0834 47.8522C47.7944 47.8506 46.5587 47.3399 45.6473 46.4321C44.7359 45.5243 44.2232 44.2934 44.2216 43.0095V33.6698C44.1929 32.6049 44.3786 31.545 44.7679 30.5527C45.1572 29.5605 45.7422 28.656 46.4882 27.8926C47.2343 27.1293 48.1263 26.5225 49.1117 26.1082C50.097 25.6939 51.1557 25.4805 52.2253 25.4805C53.2948 25.4805 54.3535 25.6939 55.3389 26.1082C56.3242 26.5225 57.2163 27.1293 57.9623 27.8926C58.7084 28.656 59.2933 29.5605 59.6826 30.5527C60.0719 31.545 60.2576 32.6049 60.2289 33.6698V42.9922C60.2274 44.2761 59.7147 45.507 58.8033 46.4148C57.8918 47.3226 56.6561 47.8333 55.3672 47.8349L49.0834 47.8522Z" fill="white"/>
<path d="M52.23 26.2305C53.2153 26.2305 54.1908 26.4244 55.1007 26.801C56.0105 27.1776 56.8367 27.7296 57.5318 28.4251C58.2269 29.1207 58.7771 29.9461 59.151 30.8541C59.5249 31.7621 59.715 32.7347 59.7105 33.7161V43.0386C59.7105 44.1855 59.253 45.2854 58.4389 46.0964C57.6247 46.9074 56.5204 47.363 55.369 47.363H49.0852C47.9337 47.363 46.8295 46.9074 46.0153 46.0964C45.2011 45.2854 44.7437 44.1855 44.7437 43.0386V33.6701C44.7437 31.6848 45.5355 29.7808 46.9449 28.377C48.3542 26.9731 50.2657 26.1845 52.2589 26.1845M52.2589 25.148C51.1345 25.1449 50.0206 25.3633 48.9812 25.7905C47.9417 26.2177 46.9974 26.8453 46.2023 27.6373C45.4072 28.4293 44.7771 29.3699 44.3482 30.4053C43.9193 31.4406 43.7001 32.5501 43.7032 33.6701V42.9925C43.7047 44.4138 44.2722 45.7765 45.2812 46.7816C46.2902 47.7866 47.6582 48.3519 49.0852 48.3534H55.369C56.7959 48.3519 58.164 47.7866 59.173 46.7816C60.182 45.7765 60.7495 44.4138 60.751 42.9925V33.6701C60.7495 31.419 59.8514 29.2605 58.2539 27.6682C56.6564 26.0759 54.49 25.1798 52.23 25.1768L52.2589 25.148Z" fill="#505050"/>
<path d="M51.1246 67.8561C49.2847 67.8561 47.5203 67.1281 46.2194 65.8322C44.9184 64.5364 44.1875 62.7789 44.1875 60.9463V52.9713C44.1875 51.8519 44.6339 50.7783 45.4286 49.9867C46.2233 49.1952 47.3011 48.7505 48.4249 48.7505H53.8011C54.3576 48.7505 54.9086 48.8597 55.4227 49.0718C55.9368 49.2839 56.404 49.5948 56.7974 49.9867C57.1909 50.3787 57.503 50.844 57.716 51.3561C57.9289 51.8682 58.0385 52.417 58.0385 52.9713V60.9463C58.0385 62.7749 57.3109 64.529 56.0149 65.8241C54.7189 67.1193 52.9604 67.85 51.1246 67.8561Z" fill="white"/>
<path d="M53.8136 49.2801C54.7994 49.2801 55.7449 49.6702 56.442 50.3645C57.1391 51.0589 57.5307 52.0006 57.5307 52.9826V60.9576C57.5307 61.7955 57.365 62.6251 57.0431 63.3992C56.7212 64.1732 56.2494 64.8766 55.6546 65.469C55.0599 66.0614 54.3538 66.5314 53.5766 66.852C52.7995 67.1726 51.9666 67.3377 51.1254 67.3377C50.2843 67.3377 49.4514 67.1726 48.6743 66.852C47.8972 66.5314 47.1911 66.0614 46.5963 65.469C46.0015 64.8766 45.5297 64.1732 45.2078 63.3992C44.8859 62.6251 44.7202 61.7955 44.7202 60.9576V52.9826C44.7202 52.0006 45.1119 51.0589 45.809 50.3645C46.5061 49.6702 47.4515 49.2801 48.4374 49.2801H53.8136ZM53.8136 48.2437H48.4374C47.176 48.2452 45.9667 48.7449 45.0748 49.6333C44.1829 50.5217 43.6812 51.7262 43.6797 52.9826V60.9576C43.6797 62.9246 44.4642 64.811 45.8605 66.2019C47.2569 67.5928 49.1507 68.3741 51.1254 68.3741C53.1002 68.3741 54.9941 67.5928 56.3904 66.2019C57.7868 64.811 58.5712 62.9246 58.5712 60.9576V52.9826C58.5697 51.7262 58.068 50.5217 57.1761 49.6333C56.2842 48.7449 55.0749 48.2452 53.8136 48.2437Z" fill="#505050"/>
<path d="M37.8922 67.8561C36.0523 67.8561 34.2878 67.1281 32.9869 65.8322C31.6859 64.5364 30.9551 62.7789 30.9551 60.9463V52.9713C30.9551 52.417 31.0647 51.8682 31.2776 51.3561C31.4906 50.844 31.8027 50.3787 32.1962 49.9867C32.5897 49.5948 33.0568 49.2839 33.5709 49.0718C34.085 48.8597 34.636 48.7505 35.1924 48.7505H40.5918C41.1483 48.7505 41.6993 48.8597 42.2134 49.0718C42.7275 49.2839 43.1946 49.5948 43.5881 49.9867C43.9816 50.3787 44.2937 50.844 44.5067 51.3561C44.7196 51.8682 44.8292 52.417 44.8292 52.9713V60.9463C44.8292 62.7789 44.0984 64.5364 42.7974 65.8322C41.4965 67.1281 39.732 67.8561 37.8922 67.8561Z" fill="white"/>
<path d="M40.591 49.2801C41.5768 49.2801 42.5223 49.6702 43.2194 50.3645C43.9164 51.0589 44.3081 52.0006 44.3081 52.9826V60.9576C44.3081 62.6497 43.6332 64.2725 42.432 65.469C41.2308 66.6655 39.6016 67.3377 37.9028 67.3377C36.2041 67.3377 34.5749 66.6655 33.3737 65.469C32.1724 64.2725 31.4976 62.6497 31.4976 60.9576V52.9826C31.4976 52.0006 31.8892 51.0589 32.5863 50.3645C33.2834 49.6702 34.2289 49.2801 35.2147 49.2801H40.591ZM40.591 48.2437H35.2147C33.9534 48.2452 32.7441 48.7449 31.8522 49.6333C30.9603 50.5217 30.4586 51.7262 30.457 52.9826V60.9576C30.457 62.9246 31.2415 64.811 32.6379 66.2019C34.0342 67.5928 35.9281 68.3741 37.9028 68.3741C39.8776 68.3741 41.7714 67.5928 43.1678 66.2019C44.5642 64.811 45.3486 62.9246 45.3486 60.9576V52.9826C45.3471 51.7262 44.8454 50.5217 43.9535 49.6333C43.0616 48.7449 41.8523 48.2452 40.591 48.2437Z" fill="#505050"/>
</svg>
