<svg width="89" height="89" viewBox="0 0 89 89" fill="none" xmlns="http://www.w3.org/2000/svg">
<circle cx="44.5" cy="44.5" r="44" fill="white" stroke="#505050"/>
<path d="M66.1199 42.1597C66.6496 43.6308 66.9226 45.1808 66.9271 46.7429C66.9271 56.1785 57.1087 63.8214 44.9954 63.8214C32.8821 63.8214 23.0698 56.1785 23.0698 46.7429C23.0724 45.1811 23.3433 43.6312 23.8709 42.1597C20.9116 43.0339 18.3161 44.8331 16.4709 47.2891C14.6258 49.7452 13.6296 52.7269 13.6309 55.7901C13.6309 59.5588 15.14 63.1732 17.8263 65.8381C20.5126 68.503 24.1559 70.0001 27.9548 70.0001H62.1023C65.9012 70.0001 69.5445 68.503 72.2308 65.8381C74.917 63.1732 76.4262 59.5588 76.4262 55.7901C76.4241 52.7182 75.4188 49.7298 73.5608 47.2724C71.7027 44.8151 69.092 43.0213 66.1199 42.1597Z" fill="white"/>
<path d="M44.996 63.8213C57.1093 63.8213 66.9277 56.1784 66.9277 46.7428C66.9231 45.1807 66.6501 43.6307 66.1205 42.1596C64.8072 41.7684 63.4439 41.5671 62.0727 41.562H27.9253C26.5521 41.5672 25.1868 41.7684 23.8714 42.1596C23.3438 43.6311 23.0729 45.181 23.0703 46.7428C23.0703 56.1784 32.8887 63.8213 44.996 63.8213Z" fill="white"/>
<path d="M13.6016 55.7902C13.6008 53.9239 13.9707 52.0757 14.6903 50.3513C15.4099 48.6269 16.4649 47.0601 17.7952 45.7404C19.1254 44.4207 20.7048 43.374 22.443 42.6602C24.1813 41.9463 26.0443 41.5793 27.9255 41.5801H62.0729C65.8718 41.5801 69.5152 43.0773 72.2015 45.7422C74.8877 48.4071 76.3969 52.0214 76.3969 55.7902V55.7902" stroke="#FFB7B7" stroke-width="1.3" stroke-linecap="round" stroke-linejoin="round"/>
<path d="M58.5906 48.8282C59.193 47.167 59.8918 45.2429 60.6869 43.0498L61.3795 41.1316C64.1564 33.4171 64.5238 27.298 62.4397 23.4437C61.9228 22.4549 61.1948 21.5897 60.3064 20.9085C59.4179 20.2274 58.3905 19.7467 57.2956 19.4998C54.8862 18.9023 52.9105 19.2907 50.6698 19.7389C46.9586 20.6632 43.0747 20.6632 39.3636 19.7389C37.0987 19.2907 35.1471 18.8963 32.7377 19.4998C31.642 19.7466 30.6136 20.2273 29.7242 20.9084C28.8348 21.5895 28.1057 22.4547 27.5875 23.4437C25.5034 27.298 25.8769 33.4171 28.6537 41.1316L29.3404 43.0319C33.8882 55.6823 34.9483 58.3534 37.7071 58.0845C39.7431 57.8873 40.0623 56.1843 40.4538 53.2024C40.5743 52.3121 40.6947 51.4097 40.8935 50.4655C41.6886 46.8443 43.0017 45.1592 45.0317 45.1592C47.0616 45.1592 48.3747 46.8443 49.1698 50.4655C49.3746 51.3918 49.4952 52.3121 49.6096 53.2024C50.0011 56.1903 50.3203 57.8873 52.3563 58.0845C54.0911 58.2518 55.2356 57.4093 57.4342 51.9356L58.5906 48.8282Z" fill="white"/>
<path d="M45.0919 27.041C43.6355 27.0343 42.2056 26.6534 40.9417 25.9356C40.8326 25.8447 40.7594 25.7184 40.7353 25.5792C40.7111 25.4399 40.7375 25.2967 40.8098 25.1749C40.882 25.0531 40.9953 24.9606 41.1298 24.9139C41.2642 24.8672 41.411 24.8692 41.544 24.9197C42.5854 25.5154 43.7663 25.8291 44.9684 25.8291C46.1705 25.8291 47.3514 25.5154 48.3928 24.9197C48.4611 24.8787 48.5368 24.8517 48.6157 24.84C48.6946 24.8284 48.7751 24.8324 48.8525 24.8518C48.9298 24.8713 49.0025 24.9058 49.0662 24.9534C49.13 25.0009 49.1837 25.0606 49.224 25.1289C49.3055 25.2652 49.329 25.428 49.2895 25.5815C49.2499 25.735 49.1506 25.8667 49.0132 25.9475C47.831 26.6597 46.475 27.0378 45.0919 27.041Z" fill="#505050"/>
<path d="M37.2741 59.3095C33.8708 59.3095 32.5456 55.6225 28.1665 43.4441L27.4859 41.5439C24.5885 33.5007 24.2453 27.053 26.492 22.888C27.0921 21.7551 27.9309 20.7637 28.9516 19.9811C29.9723 19.1985 31.1508 18.643 32.4071 18.3524C35.1057 17.6832 37.2802 18.1194 39.5812 18.5795C43.1391 19.4739 46.8656 19.4739 50.4235 18.5795C52.7305 18.1194 54.905 17.6832 57.5976 18.3524C58.8546 18.643 60.034 19.1984 61.0556 19.9809C62.0773 20.7635 62.9173 21.755 63.5187 22.888C65.7654 27.0709 65.4221 33.5007 62.5248 41.5439L61.832 43.4621C61.0369 45.6671 60.3503 47.5913 59.7298 49.2525C59.7075 49.3321 59.6688 49.4062 59.6162 49.4702C59.5635 49.5342 59.4981 49.5867 59.424 49.6243C59.3498 49.6619 59.2686 49.6839 59.1855 49.6889C59.1024 49.6938 59.0191 49.6816 58.941 49.653C58.8629 49.6244 58.7916 49.58 58.7316 49.5227C58.6716 49.4654 58.6243 49.3964 58.5926 49.32C58.5608 49.2436 58.5455 49.1616 58.5473 49.079C58.5492 48.9964 58.5683 48.915 58.6034 48.8402C59.2058 47.1789 59.9045 45.2548 60.6996 43.0618L61.3923 41.1435C64.1692 33.429 64.5366 27.3099 62.4525 23.4497C61.9353 22.4617 61.2071 21.5975 60.3187 20.9174C59.4302 20.2373 58.4029 19.7576 57.3084 19.5118C54.899 18.9142 52.9232 19.3026 50.6825 19.7508C46.9714 20.6751 43.0875 20.6751 39.3764 19.7508C37.1115 19.3026 35.1599 18.9082 32.7505 19.5118C31.6552 19.7575 30.6271 20.2372 29.7376 20.9173C28.8482 21.5973 28.1188 22.4615 27.6003 23.4497C25.5162 27.3099 25.8897 33.429 28.6665 41.1435L29.3532 43.0438C33.901 55.6942 34.9611 58.3653 37.7199 58.0964C39.7559 57.8992 40.0751 56.1962 40.4666 53.2144C40.5871 52.324 40.7075 51.4216 40.9063 50.4775C41.7014 46.8562 43.0145 45.1711 45.0445 45.1711C47.0744 45.1711 48.3875 46.8562 49.1826 50.4775C49.3874 51.4037 49.5079 52.324 49.6223 53.2144C50.0139 56.2022 50.3331 57.8992 52.3691 58.0964C54.1039 58.2637 55.2484 57.4152 57.447 51.9475C57.4762 51.8745 57.5196 51.808 57.5748 51.7517C57.63 51.6954 57.6959 51.6504 57.7686 51.6193C57.8413 51.5882 57.9195 51.5717 57.9987 51.5706C58.0778 51.5695 58.1564 51.5838 58.23 51.6129C58.3035 51.6419 58.3706 51.685 58.4274 51.7398C58.4842 51.7945 58.5295 51.8599 58.5609 51.932C58.5922 52.0041 58.6089 52.0816 58.61 52.1602C58.6111 52.2387 58.5966 52.3167 58.5673 52.3897C56.5976 57.2897 55.152 59.5604 52.2487 59.2856C49.1646 58.9868 48.7911 56.1305 48.4297 53.3638C48.3152 52.5033 48.2008 51.6069 48.0081 50.7285C47.1467 46.8204 45.9058 46.3662 45.0445 46.3662C44.1831 46.3662 42.9423 46.8204 42.087 50.7285C41.8942 51.6069 41.7737 52.5212 41.6653 53.3638C41.3039 56.1305 40.9244 58.9868 37.8404 59.2856C37.6522 59.3039 37.4631 59.3119 37.2741 59.3095Z" fill="#505050"/>
</svg>
