<svg width="89" height="89" viewBox="0 0 89 89" fill="none" xmlns="http://www.w3.org/2000/svg">
<circle cx="44.5" cy="44.5" r="44" fill="white" stroke="#505050"/>
<path d="M63.3832 60.5279C64.1976 58.2329 65.1422 55.5747 66.2171 52.5449L67.1455 49.8948C70.9079 39.2369 71.4046 30.7833 68.587 25.4585C67.8882 24.0924 66.9039 22.8972 65.7028 21.9562C64.5017 21.0151 63.1126 20.3509 61.6323 20.0099C58.3749 19.1843 55.7038 19.721 52.6744 20.3401C47.6543 21.6168 42.4009 21.6168 37.3808 20.3401C34.327 19.721 31.6803 19.1761 28.4229 20.0099C26.9432 20.3525 25.5548 21.0172 24.3539 21.9581C23.153 22.8989 22.1684 24.0934 21.4683 25.4585C18.6506 30.7833 19.1473 39.2369 22.9097 49.8948L23.8299 52.5201C29.9864 69.997 31.4197 73.6873 35.1495 73.3158C37.902 73.0434 38.3336 70.6905 38.8629 66.571C39.0258 65.3409 39.1887 64.0944 39.4574 62.79C40.5323 57.7872 42.3076 55.4591 45.052 55.4591C47.7964 55.4591 49.5717 57.7872 50.6466 62.79C50.9235 64.0696 51.0864 65.3409 51.2412 66.571C51.7705 70.6988 52.2021 73.0434 54.9546 73.3158C57.3 73.547 58.8472 72.3829 61.8196 64.8209L63.3832 60.5279Z" fill="white"/>
<path d="M45.1341 30.387C43.1651 30.3776 41.232 29.8514 39.5232 28.8596C39.3757 28.7341 39.2769 28.5598 39.2442 28.3674C39.2116 28.175 39.2472 27.977 39.3449 27.8088C39.4425 27.6405 39.5958 27.5128 39.7775 27.4483C39.9593 27.3837 40.1577 27.3865 40.3376 27.4563C41.7451 28.2801 43.3418 28.7138 44.9672 28.7138C46.5925 28.7138 48.1892 28.2801 49.5968 27.4563C49.6889 27.3883 49.7941 27.3407 49.9056 27.3166C50.017 27.2924 50.1322 27.2923 50.2437 27.3161C50.3552 27.3399 50.4605 27.3872 50.5529 27.4548C50.6452 27.5225 50.7225 27.6091 50.7798 27.709C50.837 27.8089 50.873 27.9198 50.8853 28.0346C50.8977 28.1494 50.8861 28.2656 50.8513 28.3756C50.8166 28.4856 50.7595 28.587 50.6836 28.6732C50.6078 28.7594 50.515 28.8286 50.4112 28.8762C48.8196 29.855 46.9957 30.3772 45.1341 30.387Z" fill="#505050"/>
<path d="M34.5637 74.9916C29.9626 74.9916 28.171 69.898 22.2506 53.0733L21.3222 50.448C17.4133 39.336 16.9492 30.4284 19.9867 24.6743C20.798 23.1092 21.9321 21.7395 23.312 20.6583C24.6919 19.5771 26.2852 18.8098 27.9837 18.4084C31.632 17.4837 34.5718 18.0864 37.6827 18.7221C42.4928 19.9577 47.531 19.9577 52.3411 18.7221C55.4601 18.0864 58.3999 17.4837 62.0401 18.4084C63.7396 18.8097 65.3341 19.5769 66.7154 20.6581C68.0966 21.7392 69.2322 23.109 70.0452 24.6743C73.0828 30.4531 72.6186 39.336 68.7016 50.448L67.765 53.0979C66.6901 56.1442 65.7617 58.8026 64.9229 61.0976C64.8928 61.2076 64.8404 61.31 64.7692 61.3984C64.6981 61.4868 64.6096 61.5593 64.5093 61.6113C64.4091 61.6633 64.2994 61.6936 64.187 61.7004C64.0746 61.7072 63.962 61.6905 63.8564 61.6509C63.7508 61.6114 63.6544 61.5501 63.5734 61.471C63.4923 61.3918 63.4283 61.2964 63.3854 61.1909C63.3425 61.0854 63.3217 60.9719 63.3242 60.8578C63.3267 60.7437 63.3526 60.6314 63.4001 60.5279C64.2144 58.2329 65.1591 55.5747 66.234 52.5449L67.1624 49.8948C70.9247 39.2287 71.4215 30.7833 68.6038 25.4502C67.9046 24.0853 66.9201 22.8914 65.7189 21.9518C64.5178 21.0122 63.1289 20.3495 61.6492 20.0099C58.3918 19.1843 55.7207 19.721 52.6913 20.3401C47.6712 21.6168 42.4178 21.6168 37.3977 20.3401C34.3438 19.721 31.6972 19.1761 28.4398 20.0099C26.9604 20.3505 25.572 21.0136 24.371 21.9531C23.17 22.8926 22.1852 24.086 21.4851 25.4502C18.6674 30.7833 19.1642 39.2287 22.9265 49.8948L23.8468 52.5201C30.0033 69.997 31.4365 73.6873 35.1663 73.3158C37.9188 73.0434 38.3504 70.6905 38.8798 66.571C39.0426 65.3409 39.2055 64.0944 39.4743 62.79C40.5492 57.7872 42.3245 55.4591 45.0689 55.4591C47.8133 55.4591 49.5886 57.7872 50.6635 62.79C50.9404 64.0696 51.1033 65.3409 51.258 66.571C51.7873 70.6988 52.2189 73.0434 54.9715 73.3158C57.3168 73.547 58.8641 72.3746 61.8365 64.8208C61.8692 64.7113 61.924 64.6099 61.9974 64.5229C62.0709 64.436 62.1613 64.3655 62.2631 64.316C62.3648 64.2664 62.4756 64.2388 62.5884 64.2349C62.7012 64.2311 62.8136 64.251 62.9184 64.2935C63.0232 64.336 63.1181 64.4002 63.1972 64.4818C63.2763 64.5635 63.3377 64.6609 63.3776 64.7679C63.4176 64.875 63.4351 64.9892 63.4292 65.1035C63.4232 65.2178 63.3939 65.3296 63.3431 65.4317C60.6883 72.193 58.7338 75.3384 54.8086 74.9586C50.6391 74.5376 50.1342 70.5997 49.6456 66.7774C49.4909 65.5886 49.328 64.3502 49.0755 63.1367C47.911 57.7376 46.2334 57.1102 45.0689 57.1102C43.9044 57.1102 42.2268 57.7376 41.0704 63.1367C40.8098 64.3502 40.647 65.6134 40.5004 66.7774C40.0036 70.5997 39.4987 74.5376 35.3292 74.9586C35.0748 74.9839 34.8193 74.9949 34.5637 74.9916Z" fill="#505050"/>
<path d="M60.264 38.5107C60.0963 38.5299 59.9269 38.4957 59.7791 38.413C59.6314 38.3303 59.5126 38.203 59.4393 38.0489C59.3659 37.8948 59.3417 37.7214 59.3698 37.5527C59.3979 37.384 59.477 37.2283 59.5962 37.1072L66.1844 28.7031L54.1563 26.4329C54.0007 26.4079 53.8555 26.3377 53.7384 26.2307C53.6213 26.1237 53.5373 25.9846 53.4967 25.8302C53.4555 25.6854 53.4542 25.5318 53.493 25.3863C53.5318 25.2408 53.6091 25.1088 53.7166 25.0047L64.686 14.2725C64.849 14.1127 65.0681 14.0251 65.2949 14.0289C65.5216 14.0328 65.7377 14.1278 65.8953 14.2931C66.053 14.4584 66.1394 14.6804 66.1356 14.9103C66.1318 15.1402 66.038 15.3593 65.875 15.5191L56.1027 25.0707L67.9027 27.2915C68.0476 27.3202 68.1829 27.386 68.2956 27.4828C68.4082 27.5797 68.4945 27.7042 68.5461 27.8445C68.5922 27.983 68.6036 28.131 68.5795 28.275C68.5553 28.4191 68.4962 28.5548 68.4076 28.6701L60.94 38.2052C60.8591 38.3066 60.7557 38.3871 60.6382 38.4402C60.5207 38.4933 60.3925 38.5175 60.264 38.5107Z" fill="#FFB7B7"/>
</svg>
