<svg width="89" height="89" viewBox="0 0 89 89" fill="none" xmlns="http://www.w3.org/2000/svg">
<circle cx="44.5" cy="44.5" r="44" fill="white" stroke="#505050"/>
<path d="M32.0594 42.7696H42.8466C43.065 42.7511 43.2845 42.7511 43.5028 42.7696C43.7832 42.8052 44.0412 42.9433 44.2282 43.1579C44.4152 43.3726 44.5183 43.6491 44.5183 43.9355C44.5183 44.2218 44.4152 44.4983 44.2282 44.713C44.0412 44.9277 43.7832 45.0658 43.5028 45.1014C43.2607 45.1242 43.0168 45.1242 42.7746 45.1014H21.3171C20.3896 45.0337 19.4737 45.3421 18.7707 45.9587C18.0677 46.5754 17.6353 47.4498 17.5685 48.3895C17.5018 49.3292 17.8061 50.2572 18.4147 50.9695C19.0233 51.6818 19.8862 52.1199 20.8137 52.1876C20.9806 52.2272 21.1539 52.2314 21.3226 52.1998C21.4912 52.1682 21.6516 52.1016 21.7935 52.004C21.9354 51.9064 22.0558 51.7801 22.1471 51.633C22.2384 51.4859 22.2986 51.3212 22.3239 51.1493C22.4048 50.4753 21.9643 49.9743 21.1553 49.8285C20.9917 49.822 20.8311 49.7814 20.6836 49.7095C20.5361 49.6375 20.4048 49.5356 20.2978 49.41C20.1907 49.2845 20.1103 49.1381 20.0614 48.9797C20.0125 48.8214 19.9962 48.6546 20.0136 48.4896C20.0415 48.3244 20.102 48.1665 20.1915 48.0254C20.2809 47.8844 20.3975 47.7631 20.5343 47.6688C20.671 47.5744 20.8252 47.509 20.9875 47.4763C21.1498 47.4436 21.3169 47.4444 21.4789 47.4786C22.3672 47.5675 23.1887 47.9964 23.7756 48.6779C24.3626 49.3594 24.671 50.2421 24.6377 51.146C24.6045 52.0499 24.2322 52.9068 23.5967 53.5421C22.9613 54.1775 22.1106 54.5433 21.2182 54.5649C19.6928 54.5705 18.2254 53.9732 17.1276 52.9C16.0298 51.8269 15.3882 50.3623 15.3391 48.8175C15.3139 48.0459 15.439 47.2769 15.7074 46.5543C15.9757 45.8318 16.382 45.1699 16.9029 44.6065C17.4239 44.0431 18.0493 43.5892 18.7435 43.2709C19.4376 42.9526 20.1869 42.7761 20.9485 42.7513C24.6431 42.6967 28.3468 42.7513 32.0414 42.7513L32.0594 42.7696Z" fill="#FFB7B7"/>
<path d="M19.16 40.4012C16.6789 40.4012 14.1979 40.4012 11.7168 40.4012C10.3186 40.3679 8.97867 39.8268 7.94118 38.8765C6.90368 37.9261 6.23767 36.6298 6.06446 35.2236C5.89125 33.8174 6.22238 32.3949 6.99752 31.2153C7.77266 30.0358 8.94022 29.1776 10.2875 28.7971C12.7236 28.114 14.7822 29.1797 15.2676 31.393C15.3701 31.8883 15.3672 32.4001 15.2591 32.8942C15.151 33.3883 14.9403 33.8534 14.6409 34.2585C14.3414 34.6636 13.9603 34.9993 13.5227 35.2434C13.0852 35.4874 12.6013 35.6342 12.1034 35.6739C11.9403 35.7036 11.7729 35.699 11.6117 35.6602C11.4504 35.6214 11.2989 35.5493 11.1664 35.4484C11.0339 35.3475 10.9234 35.22 10.8418 35.0739C10.7602 34.9278 10.7092 34.7661 10.692 34.5992C10.6811 34.4397 10.7016 34.2797 10.7524 34.1284C10.8032 33.9771 10.8832 33.8376 10.9878 33.718C11.0924 33.5984 11.2195 33.5013 11.3617 33.432C11.5038 33.3628 11.6582 33.3229 11.8157 33.3148C12.6607 33.1691 13.1192 32.6317 13.0023 31.9395C12.9655 31.7699 12.8953 31.6097 12.796 31.4682C12.6967 31.3267 12.5703 31.2069 12.4243 31.1159C12.2784 31.025 12.1158 30.9647 11.9464 30.9388C11.777 30.9129 11.6041 30.9217 11.4382 30.9649C10.5597 31.0762 9.75478 31.5183 9.18347 32.2035C8.61216 32.8887 8.31636 33.7667 8.35482 34.6629C8.39414 35.5715 8.77764 36.4297 9.4256 37.0591C10.0736 37.6885 10.9361 38.0407 11.8337 38.0421C15.4295 38.0421 19.0252 38.0421 22.621 38.0421H26.6392C27.628 38.0421 28.1674 38.4519 28.1764 39.2079C28.1854 39.9639 27.646 40.4012 26.6662 40.4012H19.16Z" fill="#FFB7B7"/>
<path d="M36.7253 35.6649C34.9724 35.6649 33.2195 35.6649 31.4755 35.6649C29.9258 35.6384 28.4501 34.989 27.3728 33.8599C26.2956 32.7309 25.7051 31.2144 25.7313 29.6442C25.7575 28.074 26.3983 26.5787 27.5127 25.4872C28.627 24.3957 30.1236 23.7975 31.6733 23.8241C32.5685 23.8151 33.4333 24.1534 34.0902 24.7697C34.7471 25.3861 35.1464 26.2337 35.2061 27.1389C35.2659 28.044 34.9817 28.9381 34.4117 29.6377C33.8417 30.3372 33.0292 30.7892 32.1407 30.9012C31.9699 30.9497 31.7909 30.9617 31.6152 30.9362C31.4396 30.9107 31.2711 30.8485 31.1205 30.7534C30.97 30.6583 30.8406 30.5323 30.7408 30.3837C30.6409 30.2351 30.5727 30.067 30.5406 29.8902C30.4507 29.1979 30.8912 28.7061 31.7631 28.5513C31.9208 28.5387 32.0745 28.4944 32.215 28.4208C32.3556 28.3473 32.4802 28.246 32.5815 28.123C32.6829 27.9999 32.7589 27.8576 32.8052 27.7044C32.8514 27.5511 32.867 27.39 32.8509 27.2306C32.8042 26.91 32.6344 26.6211 32.3785 26.4266C32.1227 26.2322 31.8014 26.1479 31.4845 26.1922C30.5903 26.2546 29.7528 26.6591 29.1419 27.3238C28.531 27.9884 28.1923 28.8635 28.1944 29.7718C28.1991 30.6972 28.5627 31.5837 29.2069 32.2397C29.8511 32.8958 30.7241 33.269 31.6374 33.2786C34.9185 33.2786 38.1996 33.2786 41.5257 33.2786H42.1819C42.341 33.2712 42.5 33.2965 42.6492 33.3532C42.7983 33.4098 42.9346 33.4966 43.0497 33.6081C43.1648 33.7197 43.2564 33.8536 43.319 34.002C43.3815 34.1505 43.4136 34.3103 43.4135 34.4717C43.4139 34.6328 43.3815 34.7922 43.3181 34.9399C43.2547 35.0876 43.1619 35.2205 43.0453 35.33C42.9287 35.4396 42.7911 35.5235 42.6409 35.5764C42.4908 35.6294 42.3314 35.6502 42.1729 35.6376C40.375 35.6376 38.5772 35.6376 36.7793 35.6376L36.7253 35.6649Z" fill="#FFB7B7"/>
<path d="M44.9055 47.5059H50.0924C50.9913 47.5059 51.5397 47.9521 51.5397 48.6899C51.5397 49.4277 51.0093 49.8649 50.0834 49.8649C46.6854 49.8649 43.2784 49.8649 39.8715 49.8649C39.0597 49.8608 38.272 50.1443 37.6449 50.6666C37.0177 51.189 36.5907 51.9171 36.4376 52.7249C36.2818 53.4907 36.3851 54.2872 36.7309 54.9862C37.0766 55.6852 37.6446 56.2459 38.3433 56.5777C38.8329 56.7911 39.3569 56.9115 39.8895 56.933C40.0365 56.9391 40.1832 56.9151 40.3209 56.8626C40.4586 56.8101 40.5844 56.73 40.6909 56.6272C40.7975 56.5244 40.8825 56.4009 40.9409 56.2641C40.9994 56.1273 41.03 55.9799 41.0311 55.8308C41.0501 55.5434 40.9616 55.2593 40.7835 55.0349C40.6053 54.8105 40.3504 54.6622 40.0693 54.6194C39.9735 54.6144 39.8774 54.6144 39.7816 54.6194C39.4755 54.5916 39.1923 54.4436 38.9924 54.207C38.7925 53.9705 38.6919 53.6641 38.7119 53.3533C38.7238 53.1928 38.7681 53.0365 38.8422 52.894C38.9162 52.7516 39.0184 52.6261 39.1423 52.5253C39.2662 52.4246 39.4093 52.3506 39.5626 52.3082C39.7158 52.2658 39.876 52.2557 40.0333 52.2786C40.6957 52.29 41.3396 52.5015 41.8825 52.8861C42.4255 53.2707 42.8427 53.8109 43.0807 54.4373C43.3708 55.0565 43.4643 55.7516 43.3484 56.4269C43.2325 57.1021 42.9128 57.7245 42.4334 58.2082C41.9143 58.7546 41.247 59.1328 40.5157 59.2949C39.7845 59.457 39.0222 59.3958 38.3253 59.119C36.9676 58.7519 35.7866 57.8999 35.0001 56.72C34.2135 55.5402 33.8744 54.1121 34.0452 52.6989C34.2159 51.2857 34.8852 49.9827 35.9295 49.03C36.9738 48.0773 38.3227 47.5392 39.7277 47.5149C41.4537 47.5149 43.1795 47.5149 44.9055 47.5149V47.5059Z" fill="#FFB7B7"/>
<path d="M53.572 28.1232C54.8778 26.8127 55.7776 25.1444 56.1609 23.3231C56.3857 22.139 56.161 21.793 55.1182 21.21C53.4282 20.2992 51.7562 19.2426 50.1201 18.1951C49.5398 17.7381 48.9984 17.2323 48.502 16.6831H71.326V72.244C69.3386 72.3763 67.3433 72.1763 65.42 71.6519C63.886 71.2617 62.4516 70.5445 61.2129 69.548C60.261 68.7497 59.5173 67.7267 59.047 66.5688C58.5768 65.411 58.3944 64.1539 58.5161 62.9079C58.545 60.2899 59.3158 57.7354 60.7366 55.5484C63.793 50.9943 66.7145 46.267 69.726 41.6217C70.6249 40.2646 70.517 39.882 69.2135 38.9803L54.1383 28.4785C53.9495 28.4056 53.7877 28.2781 53.572 28.1232Z" fill="white" stroke="#505050" stroke-width="1.5" stroke-linecap="round" stroke-linejoin="round"/>
<path d="M59.989 55.6032C59.8514 55.6152 59.7131 55.6152 59.5755 55.6032C57.2922 55.1569 56.8787 53.7816 56.8787 52.6977C56.9051 52.0967 57.1121 51.5184 57.472 51.04C59.198 48.7538 60.9509 46.4858 62.6948 44.1996L64.6725 41.631C65.086 41.0936 65.095 40.866 65.086 40.7931C65.077 40.7203 64.9782 40.5289 64.4298 40.1919L62.0566 38.7437L53.9662 33.807C53.5279 33.5719 53.1471 33.2404 52.8516 32.837C52.5561 32.4336 52.3533 31.9683 52.2581 31.4752C52.1928 30.9447 52.2435 30.4061 52.4066 29.8977C52.5697 29.3892 52.8413 28.9234 53.2021 28.5332C53.2673 28.4584 53.3475 28.3986 53.4375 28.3578C53.5274 28.3169 53.6249 28.296 53.7234 28.2964C53.8582 28.2962 53.9899 28.3375 54.101 28.4148L62.1915 34.0165L70.2819 39.6181C70.4211 39.7176 70.518 39.867 70.553 40.0359C70.5881 40.2049 70.5586 40.3811 70.4706 40.5289L65.9131 47.6516C64.3849 50.0471 62.8476 52.4335 61.3374 54.8381C61.2045 55.0796 61.0081 55.279 60.7701 55.4141C60.532 55.5491 60.2616 55.6146 59.989 55.6032Z" fill="#FFB7B7"/>
<path d="M53.6892 28.8974C58.8401 32.486 64.6742 36.5029 69.8701 40.1007L66.8677 44.8005C64.8181 47.9975 62.7596 51.1764 60.7369 54.4098C60.6738 54.5498 60.5726 54.6686 60.4453 54.7525C60.3179 54.8364 60.1696 54.8818 60.0178 54.8835C59.9222 54.8952 59.8257 54.8952 59.7301 54.8835C58.3008 54.6102 57.5277 53.9088 57.5457 52.661C57.5728 52.2054 57.7323 51.768 58.0041 51.404C60.3773 48.2617 62.7955 45.1375 65.1956 42.0043C66.0406 40.8931 65.9418 40.2736 64.7732 39.5632L54.3095 33.1874C52.6645 32.1945 52.4037 30.5187 53.7162 28.9429M53.7162 27.5767C53.5195 27.5753 53.3249 27.6178 53.1462 27.7012C52.9676 27.7847 52.8091 27.9069 52.6824 28.0594C52.2508 28.5206 51.9279 29.0749 51.7379 29.6807C51.548 30.2864 51.496 30.928 51.5857 31.557C51.7011 32.1468 51.9429 32.7036 52.2939 33.1884C52.645 33.6731 53.0967 34.0739 53.6173 34.3624L62.0134 39.4812L64.072 40.7382C64.157 40.7863 64.2382 40.8412 64.3147 40.9022C64.2596 40.9986 64.1964 41.09 64.1258 41.1754L62.1212 43.7895C60.4133 46.0119 58.6513 48.3437 56.9343 50.5844C56.4827 51.1827 56.2252 51.9082 56.1973 52.661C56.1973 53.754 56.5928 55.6759 59.4784 56.2406C59.6561 56.2759 59.8367 56.2942 60.0178 56.2952C60.3955 56.296 60.7665 56.1943 61.0922 56.0005C61.4178 55.8066 61.6864 55.5278 61.8696 55.1931C63.3918 52.8007 64.92 50.4052 66.4542 48.0066L68.0003 45.5838L70.0499 42.3777L71.0027 40.884C71.1932 40.5853 71.2612 40.2232 71.1924 39.8745C71.1235 39.5259 70.9234 39.2182 70.6343 39.0167L62.5438 33.4151C59.7931 31.5114 57.0423 29.6079 54.4534 27.8135C54.2284 27.6576 53.9617 27.575 53.6892 27.5767H53.7162Z" fill="#505050"/>
</svg>
