<svg width="89" height="89" viewBox="0 0 89 89" fill="none" xmlns="http://www.w3.org/2000/svg">
<circle cx="44.5" cy="44.5" r="44" fill="white" stroke="#505050"/>
<path d="M76.5838 26.9274L66.3164 16.6528L53.3769 29.5833L63.6443 39.8578L76.5838 26.9274Z" fill="white"/>
<path d="M70.7298 21L76.6305 26.9007L63.688 39.8318L57.793 33.9254" fill="white"/>
<path d="M70.7298 21L76.6305 26.9007L63.688 39.8318L57.793 33.9254" stroke="#505050" stroke-width="1.1" stroke-linecap="round" stroke-linejoin="round"/>
<path d="M68.9648 26L72.8184 29.8593" stroke="#505050" stroke-width="1.1" stroke-linecap="round" stroke-linejoin="round"/>
<path d="M63 31.6924L66.8593 35.5516" stroke="#505050" stroke-width="1.1" stroke-linecap="round" stroke-linejoin="round"/>
<path d="M66.0508 28.8364L69.91 32.6957" stroke="#505050" stroke-width="1.1" stroke-linecap="round" stroke-linejoin="round"/>
<path d="M16.9222 69.7443C16.7809 69.7528 16.6392 69.7528 16.4979 69.7443C15.8548 69.684 15.2337 69.4794 14.6807 69.1458C14.1277 68.8122 13.6571 68.3582 13.3038 67.8176C12.7597 66.9504 12.5321 65.9217 12.6596 64.9059C12.7871 63.89 13.2618 62.9496 14.0034 62.2437L38.4722 37.7922C38.9504 37.3146 39.5347 36.9566 40.1774 36.7473C40.8201 36.5381 41.5031 36.4835 42.1709 36.5879C42.2896 36.5937 42.4062 36.5548 42.4977 36.479L63.7151 15.2616C63.9292 15.0462 64.1838 14.8756 64.4644 14.7594C64.7449 14.6433 65.0457 14.584 65.3494 14.585C65.9636 14.5871 66.5524 14.83 66.9894 15.2616L67.0582 15.3304C67.4543 15.8069 67.6546 16.4162 67.6184 17.0348C67.5822 17.6534 67.3123 18.2351 66.8633 18.6621L45.8524 39.6616C45.8084 39.7087 45.7758 39.7652 45.7569 39.8268C45.738 39.8884 45.7334 39.9535 45.7434 40.0171C45.8804 40.7137 45.8438 41.4333 45.6368 42.1124C45.4297 42.7914 45.0587 43.4091 44.5564 43.9107L19.9729 68.4771C19.5731 68.8807 19.0969 69.2006 18.5722 69.4181C18.0474 69.6357 17.4845 69.7466 16.9165 69.7443H16.9222Z" fill="white"/>
<path d="M65.3559 15.1584H65.4248C65.8737 15.1663 66.3018 15.3494 66.6175 15.6687C66.6381 15.6863 66.6572 15.7055 66.6749 15.7261C66.971 16.0918 67.1173 16.5561 67.0843 17.0255C67.0513 17.4949 66.8414 17.9342 66.4971 18.2549L45.4804 39.2543C45.37 39.3692 45.2885 39.5086 45.2426 39.6612C45.1967 39.8138 45.1878 39.975 45.2167 40.1317C45.3355 40.7348 45.304 41.3579 45.125 41.946C44.9459 42.534 44.6249 43.069 44.1902 43.5036L19.5494 68.0756C19.2016 68.4234 18.7885 68.6993 18.3339 68.8872C17.8792 69.0752 17.392 69.1716 16.9001 69.1708C16.7797 69.1708 16.6535 69.1708 16.5331 69.1708C15.9737 69.1181 15.4336 68.9395 14.953 68.6486C14.4723 68.3576 14.0637 67.9618 13.7576 67.4906C13.2875 66.7342 13.0935 65.8385 13.2084 64.9553C13.3234 64.0721 13.7403 63.2559 14.3884 62.6451L38.8342 38.2165C39.1783 37.8703 39.5876 37.5958 40.0384 37.4088C40.4892 37.2218 40.9726 37.1259 41.4606 37.1269C41.6526 37.1285 41.8443 37.1438 42.0341 37.1727H42.1717C42.4335 37.1726 42.6847 37.0697 42.8713 36.886L64.0886 15.6687C64.2491 15.5065 64.4403 15.3779 64.6509 15.2902C64.8616 15.2026 65.0876 15.1578 65.3158 15.1584M65.3158 14.0115C64.9373 14.0116 64.5625 14.0865 64.2131 14.2322C63.8637 14.3779 63.5466 14.5913 63.2801 14.8602L42.1143 36.0087C41.8919 35.9792 41.6678 35.9638 41.4434 35.9628C40.8042 35.9597 40.1708 36.0839 39.5801 36.3281C38.9894 36.5722 38.4532 36.9314 38.0028 37.3849L13.5569 61.8194C12.7157 62.6175 12.1785 63.6833 12.0372 64.8343C11.896 65.9852 12.1595 67.1494 12.7828 68.1272C13.1829 68.7394 13.7162 69.2534 14.3427 69.6307C14.9692 70.008 15.6729 70.2389 16.4012 70.3063C16.5597 70.315 16.7186 70.315 16.8772 70.3063C18.1686 70.3025 19.4058 69.7869 20.3178 68.8726L44.9013 44.3007C45.4577 43.744 45.8717 43.0614 46.1083 42.3108C46.3448 41.5601 46.397 40.7635 46.2603 39.9884L67.2082 19.052C67.7603 18.5224 68.0896 17.8023 68.129 17.0383C68.1685 16.2743 67.915 15.524 67.4203 14.9405L67.3343 14.8487C66.8101 14.3196 66.1006 14.0152 65.3559 14L65.3158 14.0115Z" fill="#505050"/>
<path d="M66.8002 59.6234L66.7877 59.623L66.7752 59.6232C65.9832 59.638 65.2024 59.4348 64.5181 59.036C63.8359 58.6384 63.2757 58.0617 62.8982 57.3683C62.6174 56.8074 62.4853 55.9999 62.5013 55.0103C62.5171 54.0262 62.6784 52.9081 62.9429 51.7646C63.4731 49.4716 64.4026 47.1422 65.3271 45.6685L65.3352 45.6557L65.3425 45.6423C65.443 45.4581 65.5895 45.3028 65.7677 45.1916C65.9399 45.0842 66.1361 45.0214 66.3385 45.0089C66.5204 45.0193 66.6969 45.0755 66.8515 45.1724C67.0118 45.2729 67.1431 45.4136 67.2321 45.5806L67.2402 45.596L67.2495 45.6107C68.484 47.5837 69.567 49.9152 70.189 52.0823C70.8187 54.2766 70.9424 56.1875 70.4062 57.3994C70.0897 58.0822 69.5796 58.6571 68.9392 59.0525C68.2977 59.4486 67.5538 59.6471 66.8002 59.6234Z" fill="#FFB7B7" stroke="#505050"/>
<path d="M73.639 47.4986L73.6263 47.4982L73.6136 47.4984C73.0376 47.5093 72.4693 47.3595 71.9706 47.0646C71.4741 46.7709 71.0652 46.3444 70.7891 45.8306C70.5885 45.4228 70.489 44.8232 70.501 44.0714C70.5128 43.325 70.6335 42.4738 70.8326 41.6002C71.2321 39.8472 71.932 38.0696 72.624 36.9503L72.6319 36.9375L72.6391 36.9242C72.706 36.7997 72.8031 36.6957 72.9201 36.6216C73.031 36.5514 73.1564 36.5101 73.2856 36.5007C73.3989 36.5086 73.5092 36.5448 73.6065 36.6066C73.7098 36.6723 73.7952 36.7649 73.8534 36.8758L73.8614 36.891L73.8705 36.9057C74.8005 38.4139 75.616 40.1959 76.0838 41.8499C76.5592 43.5308 76.6431 44.9664 76.2538 45.8602C76.0232 46.3646 75.6523 46.788 75.1881 47.0789C74.7229 47.3703 74.1842 47.516 73.639 47.4986Z" fill="#FFB7B7" stroke="#505050"/>
</svg>
