<svg width="40" height="40" viewBox="0 0 40 40" fill="none" xmlns="http://www.w3.org/2000/svg">
<circle cx="20" cy="20" r="20" fill="#FFB7B7"/>
<path d="M19.6289 27.3809C17.9753 27.3809 16.7741 26.9284 16.0254 26.0234C15.2832 25.112 14.9121 24.0052 14.9121 22.7031H16.748C16.8262 23.6081 16.9954 24.2656 17.2559 24.6758C17.7116 25.4115 18.5352 25.7793 19.7266 25.7793C20.651 25.7793 21.3932 25.5319 21.9531 25.0371C22.513 24.5423 22.793 23.9043 22.793 23.123C22.793 22.1595 22.4967 21.4857 21.9043 21.1016C21.3184 20.7174 20.5013 20.5254 19.4531 20.5254C19.3359 20.5254 19.2155 20.5286 19.0918 20.5352C18.9746 20.5352 18.8542 20.5384 18.7305 20.5449V18.9922C18.9128 19.0117 19.0658 19.0247 19.1895 19.0312C19.3132 19.0378 19.4466 19.041 19.5898 19.041C20.2474 19.041 20.7878 18.9368 21.2109 18.7285C21.9531 18.3639 22.3242 17.7129 22.3242 16.7754C22.3242 16.0788 22.0768 15.5417 21.582 15.1641C21.0872 14.7865 20.5111 14.5977 19.8535 14.5977C18.6816 14.5977 17.8711 14.9883 17.4219 15.7695C17.1745 16.1992 17.0345 16.8112 17.002 17.6055H15.2637C15.2637 16.5638 15.472 15.6784 15.8887 14.9492C16.6048 13.6471 17.8646 12.9961 19.668 12.9961C21.0938 12.9961 22.1973 13.3151 22.9785 13.9531C23.7598 14.5846 24.1504 15.5026 24.1504 16.707C24.1504 17.5664 23.9193 18.263 23.457 18.7969C23.1706 19.1289 22.7995 19.3893 22.3438 19.5781C23.0794 19.7799 23.6523 20.1706 24.0625 20.75C24.4792 21.3229 24.6875 22.026 24.6875 22.8594C24.6875 24.194 24.248 25.2812 23.3691 26.1211C22.4902 26.9609 21.2435 27.3809 19.6289 27.3809Z" fill="white"/>
</svg>
