<svg width="40" height="40" viewBox="0 0 40 40" fill="none" xmlns="http://www.w3.org/2000/svg">
<circle cx="20" cy="20" r="20" fill="#FFB7B7"/>
<path d="M20.2832 12.957C21.8457 12.957 22.9329 13.3639 23.5449 14.1777C24.1634 14.985 24.4727 15.8184 24.4727 16.6777H22.7344C22.6302 16.1243 22.4642 15.6914 22.2363 15.3789C21.8132 14.793 21.1719 14.5 20.3125 14.5C19.3294 14.5 18.5482 14.9557 17.9688 15.8672C17.3893 16.7721 17.0671 18.071 17.002 19.7637C17.4056 19.1712 17.9134 18.7285 18.5254 18.4355C19.0853 18.1751 19.7103 18.0449 20.4004 18.0449C21.5723 18.0449 22.5944 18.4193 23.4668 19.168C24.3392 19.9167 24.7754 21.0332 24.7754 22.5176C24.7754 23.7871 24.362 24.9134 23.5352 25.8965C22.7083 26.873 21.5299 27.3613 20 27.3613C18.6914 27.3613 17.5618 26.8665 16.6113 25.877C15.6608 24.8809 15.1855 23.2077 15.1855 20.8574C15.1855 19.1191 15.3971 17.6445 15.8203 16.4336C16.6341 14.1159 18.1217 12.957 20.2832 12.957ZM20.1562 25.7988C21.0807 25.7988 21.7708 25.4896 22.2266 24.8711C22.6888 24.2461 22.9199 23.5104 22.9199 22.6641C22.9199 21.9479 22.7148 21.2676 22.3047 20.623C21.8945 19.972 21.1491 19.6465 20.0684 19.6465C19.3132 19.6465 18.6491 19.8971 18.0762 20.3984C17.5098 20.8997 17.2266 21.6549 17.2266 22.6641C17.2266 23.5495 17.4837 24.2949 17.998 24.9004C18.5189 25.4993 19.2383 25.7988 20.1562 25.7988Z" fill="white"/>
</svg>
