<svg width="40" height="40" viewBox="0 0 40 40" fill="none" xmlns="http://www.w3.org/2000/svg">
<circle cx="20" cy="20" r="20" fill="#FFB7B7"/>
<path d="M15.0586 27C15.1237 25.7956 15.3711 24.7474 15.8008 23.8555C16.237 22.9635 17.0833 22.153 18.3398 21.4238L20.2148 20.3398C21.0547 19.8516 21.6439 19.4349 21.9824 19.0898C22.5163 18.5495 22.7832 17.931 22.7832 17.2344C22.7832 16.4206 22.5391 15.776 22.0508 15.3008C21.5625 14.819 20.9115 14.5781 20.0977 14.5781C18.8932 14.5781 18.0599 15.0339 17.5977 15.9453C17.3503 16.4336 17.2135 17.1107 17.1875 17.9766H15.4004C15.4199 16.7591 15.6445 15.7663 16.0742 14.998C16.8359 13.6439 18.1803 12.9668 20.1074 12.9668C21.709 12.9668 22.8776 13.3997 23.6133 14.2656C24.3555 15.1315 24.7266 16.0951 24.7266 17.1562C24.7266 18.276 24.3327 19.2331 23.5449 20.0273C23.0892 20.4896 22.2721 21.0495 21.0938 21.707L19.7559 22.4492C19.1178 22.8008 18.6165 23.1361 18.252 23.4551C17.6009 24.0215 17.1908 24.6497 17.0215 25.3398H24.6582V27H15.0586Z" fill="white"/>
</svg>
