<svg width="40" height="40" viewBox="0 0 40 40" fill="none" xmlns="http://www.w3.org/2000/svg">
<circle cx="20" cy="20" r="20" fill="#FFB7B7"/>
<path d="M16.9043 23.4355C17.0215 24.4382 17.487 25.1315 18.3008 25.5156C18.7174 25.7109 19.1992 25.8086 19.7461 25.8086C20.7878 25.8086 21.5592 25.4766 22.0605 24.8125C22.5618 24.1484 22.8125 23.4128 22.8125 22.6055C22.8125 21.6289 22.513 20.8737 21.9141 20.3398C21.3216 19.806 20.6087 19.5391 19.7754 19.5391C19.1699 19.5391 18.6491 19.6562 18.2129 19.8906C17.7832 20.125 17.4154 20.4505 17.1094 20.8672L15.5859 20.7793L16.6504 13.25H23.916V14.9492H17.9688L17.373 18.8359C17.6986 18.5885 18.0078 18.403 18.3008 18.2793C18.8216 18.0645 19.4238 17.957 20.1074 17.957C21.39 17.957 22.4772 18.3704 23.3691 19.1973C24.2611 20.0241 24.707 21.0723 24.707 22.3418C24.707 23.6634 24.2969 24.8288 23.4766 25.8379C22.6628 26.847 21.3607 27.3516 19.5703 27.3516C18.431 27.3516 17.4219 27.0326 16.543 26.3945C15.6706 25.75 15.1823 24.7637 15.0781 23.4355H16.9043Z" fill="white"/>
</svg>
