<svg width="319" height="1069" viewBox="0 0 319 1069" fill="none" xmlns="http://www.w3.org/2000/svg">
<path d="M95.1425 138L97.6418 138.056L95.1425 138ZM194.844 498L193.395 495.963L194.844 498ZM49.9948 830L48.2308 831.772L49.9948 830ZM312.032 1063.54C311.684 1062.2 310.319 1061.4 308.983 1061.75C307.647 1062.09 306.845 1063.46 307.193 1064.8L312.032 1063.54ZM300.751 1046.61C301.316 1047.87 302.795 1048.43 304.055 1047.86C305.315 1047.3 305.879 1045.82 305.314 1044.56L300.751 1046.61ZM301.809 1037.32C301.172 1036.09 299.663 1035.61 298.438 1036.25C297.213 1036.89 296.736 1038.4 297.372 1039.62L301.809 1037.32ZM287.324 1022.99C288.106 1024.13 289.663 1024.41 290.8 1023.63C291.938 1022.85 292.225 1021.29 291.443 1020.16L287.324 1022.99ZM286.774 1013.67C285.945 1012.56 284.378 1012.34 283.274 1013.17C282.17 1014 281.947 1015.57 282.776 1016.67L286.774 1013.67ZM270.365 1001.61C271.287 1002.64 272.868 1002.73 273.895 1001.81C274.923 1000.88 275.009 999.304 274.088 998.276L270.365 1001.61ZM268.677 992.419C267.726 991.418 266.143 991.378 265.143 992.33C264.142 993.281 264.102 994.863 265.053 995.864L268.677 992.419ZM251.095 982.089C252.106 983.03 253.688 982.973 254.628 981.962C255.569 980.951 255.512 979.369 254.501 978.429L251.095 982.089ZM248.639 973.086C247.609 972.167 246.028 972.256 245.109 973.286C244.189 974.315 244.278 975.896 245.308 976.816L248.639 973.086ZM230.369 964.068C231.438 964.942 233.013 964.785 233.887 963.716C234.761 962.647 234.604 961.072 233.535 960.198L230.369 964.068ZM227.345 955.21C226.263 954.351 224.691 954.532 223.832 955.613C222.974 956.695 223.154 958.267 224.235 959.126L227.345 955.21ZM208.649 947.147C209.756 947.972 211.322 947.744 212.148 946.637C212.973 945.53 212.745 943.964 211.638 943.139L208.649 947.147ZM205.258 938.432C204.143 937.617 202.579 937.861 201.765 938.976C200.951 940.091 201.195 941.656 202.31 942.47L205.258 938.432ZM186.279 931.026C187.411 931.817 188.969 931.541 189.761 930.41C190.552 929.278 190.276 927.72 189.145 926.928L186.279 931.026ZM182.643 922.412C181.506 921.628 179.949 921.914 179.165 923.05C178.381 924.187 178.667 925.743 179.803 926.528L182.643 922.412ZM163.506 915.437C164.652 916.207 166.206 915.903 166.976 914.758C167.747 913.612 167.443 912.059 166.297 911.288L163.506 915.437ZM159.722 906.881C158.574 906.114 157.022 906.423 156.255 907.571C155.488 908.719 155.797 910.272 156.945 911.039L159.722 906.881ZM140.506 900.11C141.657 900.873 143.208 900.558 143.971 899.408C144.734 898.257 144.42 896.705 143.269 895.942L140.506 900.11ZM136.695 891.583C135.544 890.82 133.993 891.134 133.229 892.285C132.466 893.435 132.78 894.987 133.93 895.75L136.695 891.583ZM117.472 884.778C118.618 885.548 120.171 885.242 120.941 884.096C121.711 882.95 121.406 881.397 120.26 880.627L117.472 884.778ZM113.726 876.218C112.583 875.443 111.028 875.741 110.254 876.884C109.479 878.027 109.777 879.581 110.919 880.356L113.726 876.218ZM94.6526 869.13C95.7811 869.926 97.3408 869.656 98.1363 868.527C98.9318 867.398 98.6617 865.839 97.5332 865.043L94.6526 869.13ZM91.0953 860.456C89.9753 859.649 88.4128 859.902 87.6054 861.022C86.798 862.142 87.0515 863.705 88.1715 864.512L91.0953 860.456ZM72.2729 852.624C73.3615 853.474 74.9325 853.28 75.7819 852.191C76.6313 851.103 76.4374 849.532 75.3489 848.682L72.2729 852.624ZM69.2119 843.79C68.1418 842.918 66.567 843.078 65.6945 844.148C64.822 845.218 64.9822 846.793 66.0522 847.666L69.2119 843.79ZM51.0546 834.523C52.0534 835.476 53.6359 835.439 54.5892 834.44C55.5424 833.442 55.5054 831.859 54.5065 830.906L51.0546 834.523ZM48.8823 825.315C47.9209 824.323 46.3382 824.299 45.3471 825.261C44.3561 826.222 44.332 827.805 45.2933 828.796L48.8823 825.315ZM31.756 813.47C32.6171 814.549 34.1901 814.726 35.2694 813.865C36.3486 813.004 36.5255 811.431 35.6644 810.352L31.756 813.47ZM30.8519 804.04C30.0398 802.923 28.4763 802.676 27.3596 803.488C26.243 804.3 25.9961 805.864 26.8082 806.981L30.8519 804.04ZM15.8052 789.667C16.4662 790.879 17.9847 791.326 19.1969 790.665C20.4091 790.004 20.8559 788.486 20.1949 787.273L15.8052 789.667ZM16.5978 780.191C16.0097 778.942 14.5203 778.406 13.2711 778.995C12.0219 779.583 11.486 781.072 12.0741 782.321L16.5978 780.191ZM4.83971 763.084C5.21572 764.412 6.59752 765.184 7.92604 764.808C9.25457 764.432 10.0267 763.051 9.65073 761.722L4.83971 763.084ZM7.76768 754.043C7.48693 752.691 6.16343 751.823 4.81156 752.104C3.45969 752.384 2.59139 753.708 2.87214 755.06L7.76768 754.043ZM0.529344 734.563C0.560632 735.944 1.705 737.037 3.08535 737.006C4.46571 736.975 5.55935 735.83 5.52806 734.45L0.529344 734.563ZM5.63288 726.556C5.70037 725.177 4.63713 724.004 3.25807 723.936C1.87901 723.869 0.706349 724.932 0.638857 726.311L5.63288 726.556ZM3.39162 705.905C3.09588 707.254 3.94944 708.587 5.29811 708.883C6.64677 709.178 7.97983 708.325 8.27558 706.976L3.39162 705.905ZM10.2146 699.268C10.5912 697.939 9.81968 696.557 8.49133 696.181C7.16299 695.804 5.78082 696.576 5.40418 697.904L10.2146 699.268ZM12.3287 678.606C11.7804 679.873 12.3631 681.344 13.6302 681.893C14.8974 682.441 16.3692 681.859 16.9175 680.591L12.3287 678.606ZM20.2447 673.366C20.8503 672.125 20.3353 670.629 19.0945 670.023C17.8537 669.417 16.3569 669.932 15.7513 671.173L20.2447 673.366ZM25.6511 653.264C24.9266 654.44 25.2922 655.98 26.4676 656.704C27.643 657.429 29.1831 657.063 29.9075 655.888L25.6511 653.264ZM34.2165 649.156C34.98 648.006 34.6664 646.454 33.516 645.691C32.3656 644.927 30.8141 645.241 30.0505 646.391L34.2165 649.156ZM41.9438 629.851C41.0991 630.943 41.2998 632.513 42.3919 633.358C43.4841 634.203 45.0543 634.002 45.899 632.91L41.9438 629.851ZM50.9083 626.6C51.7801 625.529 51.6188 623.955 50.5481 623.083C49.4774 622.211 47.9027 622.372 47.031 623.443L50.9083 626.6ZM60.2848 608.063C59.3564 609.085 59.4323 610.666 60.4544 611.594C61.4764 612.523 63.0575 612.447 63.9858 611.425L60.2848 608.063ZM69.4666 605.506C70.4141 604.502 70.3681 602.919 69.3639 601.972C68.3596 601.024 66.7774 601.07 65.8298 602.075L69.4666 605.506ZM80.0592 587.622C79.071 588.587 79.0516 590.169 80.0159 591.158C80.9802 592.146 82.563 592.165 83.5512 591.201L80.0592 587.622ZM89.3724 585.604C90.3746 584.654 90.4171 583.071 89.4673 582.069C88.5175 581.067 86.9352 581.025 85.933 581.974L89.3724 585.604ZM100.868 568.281C99.8364 569.198 99.7431 570.778 100.66 571.81C101.577 572.842 103.158 572.935 104.19 572.018L100.868 568.281ZM110.257 566.689C111.3 565.784 111.411 564.205 110.506 563.162C109.601 562.12 108.022 562.008 106.979 562.914L110.257 566.689ZM122.445 549.832C121.38 550.71 121.229 552.286 122.108 553.351C122.986 554.416 124.562 554.567 125.627 553.689L122.445 549.832ZM131.871 548.585C132.944 547.716 133.109 546.141 132.24 545.069C131.371 543.996 129.797 543.83 128.724 544.699L131.871 548.585ZM144.599 532.109C143.509 532.956 143.312 534.527 144.16 535.617C145.007 536.707 146.578 536.903 147.668 536.056L144.599 532.109ZM154.048 531.133C155.144 530.293 155.352 528.724 154.512 527.628C153.673 526.532 152.104 526.324 151.008 527.163L154.048 531.133ZM167.185 514.976C166.076 515.799 165.844 517.364 166.666 518.473C167.488 519.583 169.054 519.815 170.163 518.993L167.185 514.976ZM176.656 514.207C177.77 513.39 178.011 511.826 177.195 510.712C176.378 509.599 174.814 509.358 173.7 510.174L176.656 514.207ZM190.1 498.311C188.977 499.114 188.717 500.675 189.519 501.799C190.322 502.922 191.883 503.182 193.007 502.379L190.1 498.311ZM199.809 497.51C200.927 496.699 201.175 495.135 200.363 494.018C199.552 492.901 197.989 492.653 196.872 493.464L199.809 497.51ZM212.957 481.138C211.885 482.008 211.721 483.583 212.591 484.655C213.461 485.727 215.035 485.891 216.108 485.021L212.957 481.138ZM222.674 479.552C223.723 478.654 223.846 477.076 222.948 476.027C222.05 474.978 220.472 474.855 219.423 475.753L222.674 479.552ZM234.364 461.993C233.386 462.968 233.384 464.551 234.359 465.528C235.334 466.506 236.917 466.508 237.895 465.533L234.364 461.993ZM243.686 459.542C244.627 458.532 244.57 456.95 243.56 456.009C242.549 455.068 240.967 455.125 240.027 456.135L243.686 459.542ZM252.971 440.637C252.15 441.748 252.385 443.313 253.496 444.133C254.606 444.954 256.171 444.719 256.992 443.608L252.971 440.637ZM261.778 436.743C262.535 435.589 262.213 434.039 261.058 433.282C259.904 432.525 258.354 432.847 257.597 434.002L261.778 436.743ZM267.201 416.339C266.654 417.607 267.239 419.078 268.506 419.625C269.774 420.172 271.245 419.587 271.792 418.32L267.201 416.339ZM274.784 410.53C275.225 409.221 274.521 407.803 273.212 407.363C271.904 406.922 270.486 407.626 270.045 408.934L274.784 410.53ZM274.175 389.439C274.055 390.814 275.073 392.026 276.449 392.146C277.824 392.266 279.036 391.248 279.156 389.873L274.175 389.439ZM279.465 381.426C279.446 380.046 278.312 378.942 276.931 378.961C275.55 378.98 274.447 380.115 274.466 381.495L279.465 381.426ZM271.76 361.777C272.106 363.113 273.47 363.916 274.807 363.57C276.144 363.224 276.947 361.86 276.6 360.523L271.76 361.777ZM274.147 352.481C273.69 351.178 272.264 350.492 270.961 350.949C269.658 351.406 268.972 352.833 269.429 354.136L274.147 352.481ZM261.078 335.851C261.752 337.056 263.276 337.486 264.481 336.811C265.685 336.137 266.115 334.613 265.441 333.409L261.078 335.851ZM261.145 326.22C260.405 325.054 258.861 324.709 257.695 325.449C256.529 326.188 256.184 327.733 256.924 328.899L261.145 326.22ZM245.104 312.439C245.966 313.518 247.539 313.695 248.618 312.834C249.697 311.972 249.873 310.399 249.012 309.32L245.104 312.439ZM243.698 302.892C242.801 301.843 241.223 301.719 240.173 302.616C239.124 303.514 239 305.092 239.897 306.141L243.698 302.892ZM226.127 291.12C227.091 292.109 228.673 292.129 229.662 291.165C230.651 290.202 230.671 288.619 229.707 287.63L226.127 291.12ZM223.86 281.753C222.877 280.784 221.294 280.795 220.325 281.778C219.356 282.762 219.367 284.344 220.35 285.314L223.86 281.753ZM205.486 271.237C206.505 272.169 208.086 272.099 209.018 271.08C209.95 270.061 209.88 268.48 208.861 267.548L205.486 271.237ZM202.743 262.011C201.715 261.09 200.134 261.177 199.213 262.205C198.291 263.233 198.378 264.814 199.407 265.735L202.743 262.011ZM183.988 252.178C185.031 253.082 186.61 252.97 187.515 251.927C188.419 250.883 188.307 249.305 187.264 248.4L183.988 252.178ZM181.03 243.011C179.984 242.109 178.406 242.226 177.504 243.271C176.602 244.317 176.718 245.895 177.764 246.797L181.03 243.011ZM162.207 233.364C163.249 234.27 164.828 234.159 165.734 233.116C166.639 232.074 166.528 230.495 165.486 229.589L162.207 233.364ZM159.271 224.161C158.234 223.25 156.654 223.351 155.742 224.388C154.831 225.425 154.933 227.005 155.97 227.917L159.271 224.161ZM140.676 214.141C141.687 215.081 143.269 215.023 144.209 214.011C145.149 213 145.091 211.418 144.08 210.478L140.676 214.141ZM138.087 204.811C137.092 203.853 135.51 203.883 134.552 204.877C133.594 205.871 133.623 207.454 134.618 208.412L138.087 204.811ZM120.156 193.591C121.082 194.615 122.663 194.693 123.687 193.767C124.711 192.84 124.789 191.259 123.863 190.236L120.156 193.591ZM118.529 184.107C117.645 183.047 116.068 182.904 115.008 183.788C113.947 184.672 113.804 186.248 114.689 187.309L118.529 184.107ZM102.436 170.285C103.142 171.471 104.676 171.861 105.862 171.155C107.049 170.449 107.439 168.915 106.733 167.728L102.436 170.285ZM102.976 160.692C102.388 159.442 100.899 158.906 99.6498 159.494C98.4005 160.081 97.8641 161.571 98.4519 162.82L102.976 160.692ZM92.7507 142.276C92.8491 143.654 94.0454 144.69 95.4226 144.592C96.7998 144.493 97.8364 143.297 97.7379 141.92L92.7507 142.276ZM97.7504 134.256C97.7989 132.876 96.7195 131.718 95.3397 131.67C93.9598 131.621 92.8019 132.701 92.7535 134.081L97.7504 134.256ZM94.2593 114.781C94.0809 116.15 95.0462 117.405 96.4154 117.583C97.7845 117.761 99.039 116.796 99.2174 115.427L94.2593 114.781ZM100.382 108.005C100.633 106.648 99.7364 105.343 98.3788 105.092C97.0212 104.84 95.7167 105.737 95.4652 107.094L100.382 108.005ZM100.604 88.2398C100.12 89.533 100.776 90.9735 102.069 91.4573C103.362 91.9411 104.803 91.285 105.287 89.9918L100.604 88.2398ZM108.178 83.14C108.768 81.8917 108.234 80.4014 106.986 79.8114C105.737 79.2213 104.247 79.7549 103.657 81.0032L108.178 83.14ZM113.958 64.2888C113.107 65.3764 113.299 66.9476 114.387 67.7982C115.474 68.6487 117.046 68.4565 117.896 67.3689L113.958 64.2888ZM122.727 61.7158C123.668 60.7053 123.612 59.1234 122.601 58.1825C121.591 57.2416 120.009 57.2979 119.068 58.3084L122.727 61.7158ZM133.726 45.3698C132.612 46.1858 132.371 47.7502 133.187 48.864C134.003 49.9777 135.567 50.2191 136.681 49.4031L133.726 45.3698ZM142.861 45.1738C144.024 44.4296 144.363 42.8835 143.619 41.7205C142.875 40.5576 141.329 40.2181 140.166 40.9623L142.861 45.1738ZM157.21 31.6106C155.961 32.1996 155.426 33.6895 156.015 34.9382C156.604 36.187 158.094 36.7218 159.343 36.1328L157.21 31.6106ZM166.22 33.0647C167.492 32.5279 168.088 31.0614 167.551 29.7894C167.014 28.5173 165.548 27.9213 164.276 28.4582L166.22 33.0647ZM182.397 21.7399C181.084 22.1673 180.366 23.5781 180.793 24.891C181.221 26.2039 182.631 26.9218 183.944 26.4944L182.397 21.7399ZM191.22 24.2397C192.544 23.8491 193.301 22.4589 192.911 21.1346C192.52 19.8103 191.13 19.0534 189.805 19.444L191.22 24.2397ZM208.435 14.5551C207.09 14.8684 206.254 16.2124 206.567 17.5571C206.881 18.9019 208.225 19.738 209.569 19.4248L208.435 14.5551ZM216.959 17.7801C218.309 17.493 219.171 16.1654 218.884 14.8149C218.597 13.4643 217.27 12.6022 215.919 12.8893L216.959 17.7801ZM234.852 9.29137C233.49 9.52178 232.574 10.8122 232.804 12.1735C233.034 13.5349 234.325 14.4517 235.686 14.2213L234.852 9.29137ZM243.162 13.0115C244.526 12.8006 245.461 11.5234 245.25 10.1589C245.039 8.79442 243.762 7.85929 242.398 8.07025L243.162 13.0115ZM261.423 5.44276C260.052 5.61089 259.078 6.85815 259.246 8.22859C259.414 9.59902 260.661 10.5737 262.032 10.4056L261.423 5.44276ZM269.653 9.51383C271.025 9.36086 272.013 8.12446 271.86 6.75225C271.707 5.38004 270.471 4.39164 269.099 4.54461L269.653 9.51383ZM288.152 2.66135C286.776 2.78092 285.758 3.99293 285.878 5.36846C285.997 6.74398 287.209 7.76214 288.585 7.64256L288.152 2.66135ZM296.193 7.01483C297.569 6.90721 298.598 5.70409 298.491 4.32758C298.383 2.95106 297.18 1.92242 295.803 2.03004L296.193 7.01483ZM314.95 0.725716C313.572 0.806439 312.52 1.98925 312.601 3.3676C312.681 4.74595 313.864 5.79789 315.242 5.71716L314.95 0.725716ZM312.976 1067.46C312.685 1066.15 312.37 1064.84 312.032 1063.54L307.193 1064.8C307.516 1066.04 307.817 1067.29 308.094 1068.54L312.976 1067.46ZM305.314 1044.56C304.224 1042.13 303.054 1039.71 301.809 1037.32L297.372 1039.62C298.574 1041.93 299.702 1044.26 300.751 1046.61L305.314 1044.56ZM291.443 1020.16C289.944 1017.98 288.386 1015.81 286.774 1013.67L282.776 1016.67C284.349 1018.76 285.865 1020.87 287.324 1022.99L291.443 1020.16ZM274.088 998.276C272.325 996.311 270.521 994.359 268.677 992.419L265.053 995.864C266.865 997.77 268.637 999.687 270.365 1001.61L274.088 998.276ZM254.501 978.429C252.576 976.637 250.621 974.857 248.639 973.086L245.308 976.816C247.266 978.564 249.196 980.322 251.095 982.089L254.501 978.429ZM233.535 960.198C231.491 958.526 229.427 956.864 227.345 955.21L224.235 959.126C226.3 960.765 228.345 962.412 230.369 964.068L233.535 960.198ZM211.638 943.139C209.523 941.562 207.396 939.993 205.258 938.432L202.31 942.47C204.435 944.021 206.548 945.58 208.649 947.147L211.638 943.139ZM189.145 926.928C186.982 925.416 184.814 923.91 182.643 922.412L179.803 926.528C181.967 928.02 184.126 929.519 186.279 931.026L189.145 926.928ZM166.297 911.288C164.103 909.812 161.911 908.343 159.722 906.881L156.945 911.039C159.129 912.498 161.317 913.964 163.506 915.437L166.297 911.288ZM143.269 895.942C141.067 894.483 138.875 893.03 136.695 891.583L133.93 895.75C136.112 897.197 138.305 898.651 140.506 900.11L143.269 895.942ZM120.26 880.627C118.062 879.151 115.883 877.682 113.726 876.218L110.919 880.356C113.084 881.824 115.269 883.298 117.472 884.778L120.26 880.627ZM97.5332 865.043C95.3545 863.508 93.2075 861.979 91.0953 860.456L88.1715 864.512C90.2993 866.046 92.4608 867.585 94.6526 869.13L97.5332 865.043ZM75.3489 848.682C73.25 847.044 71.203 845.414 69.2119 843.79L66.0522 847.666C68.0733 849.313 70.1483 850.966 72.2729 852.624L75.3489 848.682ZM54.5065 830.906C53.569 830.011 52.6528 829.119 51.7587 828.228L48.2308 831.772C49.1511 832.688 50.0926 833.605 51.0546 834.523L54.5065 830.906ZM51.7587 828.228C50.7829 827.257 49.8241 826.286 48.8823 825.315L45.2933 828.796C46.2556 829.788 47.2348 830.78 48.2308 831.772L51.7587 828.228ZM35.6644 810.352C33.9842 808.246 32.3806 806.142 30.8519 804.04L26.8082 806.981C28.3817 809.144 30.0305 811.307 31.756 813.47L35.6644 810.352ZM20.1949 787.273C18.9061 784.91 17.7078 782.549 16.5978 780.191L12.0741 782.321C13.227 784.77 14.47 787.219 15.8052 789.667L20.1949 787.273ZM9.65073 761.722C8.92536 759.159 8.29859 756.599 7.76768 754.043L2.87214 755.06C3.42727 757.733 4.08227 760.407 4.83971 763.084L9.65073 761.722ZM5.52806 734.45C5.46836 731.816 5.50422 729.184 5.63288 726.556L0.638857 726.311C0.50445 729.058 0.466902 731.808 0.529344 734.563L5.52806 734.45ZM8.27558 706.976C8.83953 704.404 9.4867 701.835 10.2146 699.268L5.40418 697.904C4.64964 700.565 3.97776 703.232 3.39162 705.905L8.27558 706.976ZM16.9175 680.591C17.9609 678.18 19.0707 675.772 20.2447 673.366L15.7513 671.173C14.5451 673.645 13.4034 676.122 12.3287 678.606L16.9175 680.591ZM29.9075 655.888C31.2925 653.641 32.7295 651.397 34.2165 649.156L30.0505 646.391C28.5337 648.677 27.0665 650.968 25.6511 653.264L29.9075 655.888ZM45.899 632.91C47.5285 630.803 49.1988 628.7 50.9083 626.6L47.031 623.443C45.296 625.574 43.5997 627.71 41.9438 629.851L45.899 632.91ZM63.9858 611.425C65.7815 609.448 67.6089 607.475 69.4666 605.506L65.8298 602.075C63.9512 604.066 62.1023 606.062 60.2848 608.063L63.9858 611.425ZM83.5512 591.201C85.4674 589.331 87.4082 587.465 89.3724 585.604L85.933 581.974C83.9517 583.852 81.9933 585.735 80.0592 587.622L83.5512 591.201ZM104.19 572.018C106.194 570.238 108.217 568.461 110.257 566.689L106.979 562.914C104.924 564.698 102.887 566.487 100.868 568.281L104.19 572.018ZM125.627 553.689C127.695 551.983 129.776 550.282 131.871 548.585L128.724 544.699C126.618 546.405 124.525 548.116 122.445 549.832L125.627 553.689ZM147.668 536.056C149.785 534.41 151.912 532.769 154.048 531.133L151.008 527.163C148.862 528.807 146.726 530.455 144.599 532.109L147.668 536.056ZM170.163 518.993C172.321 517.393 174.486 515.797 176.656 514.207L173.7 510.174C171.523 511.77 169.351 513.37 167.185 514.976L170.163 518.993ZM193.007 502.379C194.101 501.597 195.197 500.817 196.293 500.037L193.395 495.963C192.296 496.744 191.198 497.527 190.1 498.311L193.007 502.379ZM196.293 500.037C197.479 499.193 198.652 498.351 199.809 497.51L196.872 493.464C195.727 494.295 194.568 495.128 193.395 495.963L196.293 500.037ZM216.108 485.021C218.364 483.19 220.553 481.367 222.674 479.552L219.423 475.753C217.336 477.539 215.181 479.334 212.957 481.138L216.108 485.021ZM237.895 465.533C239.906 463.527 241.836 461.53 243.686 459.542L240.027 456.135C238.22 458.076 236.333 460.029 234.364 461.993L237.895 465.533ZM256.992 443.608C258.691 441.308 260.286 439.02 261.778 436.743L257.597 434.002C256.157 436.198 254.616 438.41 252.971 440.637L256.992 443.608ZM271.792 418.32C272.919 415.708 273.915 413.111 274.784 410.53L270.045 408.934C269.221 411.382 268.275 413.85 267.201 416.339L271.792 418.32ZM279.156 389.873C279.403 387.036 279.504 384.22 279.465 381.426L274.466 381.495C274.502 384.123 274.408 386.77 274.175 389.439L279.156 389.873ZM276.6 360.523C275.9 357.82 275.08 355.139 274.147 352.481L269.429 354.136C270.317 356.668 271.097 359.214 271.76 361.777L276.6 360.523ZM265.441 333.409C264.089 330.994 262.654 328.598 261.145 326.22L256.924 328.899C258.387 331.204 259.773 333.522 261.078 335.851L265.441 333.409ZM249.012 309.32C247.291 307.164 245.518 305.021 243.698 302.892L239.897 306.141C241.683 308.23 243.421 310.329 245.104 312.439L249.012 309.32ZM229.707 287.63C227.788 285.66 225.837 283.701 223.86 281.753L220.35 285.314C222.305 287.241 224.232 289.176 226.127 291.12L229.707 287.63ZM208.861 267.548C206.834 265.694 204.794 263.848 202.743 262.011L199.407 265.735C201.446 267.562 203.474 269.396 205.486 271.237L208.861 267.548ZM187.264 248.4C185.183 246.596 183.104 244.8 181.03 243.011L177.764 246.797C179.836 248.584 181.912 250.378 183.988 252.178L187.264 248.4ZM165.486 229.589C163.395 227.773 161.322 225.964 159.271 224.161L155.97 227.917C158.03 229.727 160.11 231.543 162.207 233.364L165.486 229.589ZM144.08 210.478C142.04 208.582 140.04 206.694 138.087 204.811L134.618 208.412C136.595 210.317 138.617 212.227 140.676 214.141L144.08 210.478ZM123.863 190.236C122.006 188.185 120.226 186.142 118.529 184.107L114.689 187.309C116.433 189.401 118.258 191.495 120.156 193.591L123.863 190.236ZM106.733 167.728C105.33 165.37 104.074 163.025 102.976 160.692L98.4519 162.82C99.6252 165.314 100.959 167.802 102.436 170.285L106.733 167.728ZM97.7379 141.92C97.6457 140.63 97.613 139.342 97.6418 138.056L92.6431 137.944C92.6107 139.39 92.6475 140.834 92.7507 142.276L97.7379 141.92ZM97.6418 138.056C97.6703 136.785 97.7062 135.518 97.7504 134.256L92.7535 134.081C92.7084 135.365 92.672 136.653 92.6431 137.944L97.6418 138.056ZM99.2174 115.427C99.5433 112.926 99.9282 110.452 100.382 108.005L95.4652 107.094C94.9943 109.636 94.5958 112.199 94.2593 114.781L99.2174 115.427ZM105.287 89.9918C106.153 87.6746 107.114 85.3901 108.178 83.14L103.657 81.0032C102.532 83.3842 101.517 85.7973 100.604 88.2398L105.287 89.9918ZM117.896 67.3689C119.394 65.4534 121.002 63.5684 122.727 61.7158L119.068 58.3084C117.245 60.2654 115.545 62.2595 113.958 64.2888L117.896 67.3689ZM136.681 49.4031C138.641 47.9676 140.699 46.5574 142.861 45.1738L140.166 40.9623C137.918 42.4008 135.773 43.8703 133.726 45.3698L136.681 49.4031ZM159.343 36.1328C161.555 35.0895 163.846 34.0666 166.22 33.0647L164.276 28.4582C161.841 29.4859 159.486 30.5369 157.21 31.6106L159.343 36.1328ZM183.944 26.4944C186.305 25.7261 188.729 24.9744 191.22 24.2397L189.805 19.444C187.271 20.1914 184.802 20.9568 182.397 21.7399L183.944 26.4944ZM209.569 19.4248C211.98 18.8631 214.443 18.3148 216.959 17.7801L215.919 12.8893C213.373 13.4306 210.878 13.9859 208.435 14.5551L209.569 19.4248ZM235.686 14.2213C238.135 13.8068 240.626 13.4036 243.162 13.0115L242.398 8.07025C239.839 8.4658 237.324 8.87289 234.852 9.29137L235.686 14.2213ZM262.032 10.4056C264.534 10.0986 267.074 9.80127 269.653 9.51383L269.099 4.54461C266.502 4.83405 263.944 5.13348 261.423 5.44276L262.032 10.4056ZM288.585 7.64256C291.088 7.42495 293.624 7.21567 296.193 7.01483L295.803 2.03004C293.22 2.23199 290.67 2.44246 288.152 2.66135L288.585 7.64256ZM315.242 5.71716C316.533 5.64158 317.831 5.56794 319.137 5.49624L318.863 0.50376C317.551 0.575787 316.247 0.649776 314.95 0.725716L315.242 5.71716Z" fill="white"/>
</svg>
